<svg width="34" height="28" viewBox="0 0 34 28" fill="none" xmlns="http://www.w3.org/2000/svg">
<path d="M4.46878 0.652238L6.32713 0.163167C7.34515 -0.10544 8.44008 -0.040779 9.40761 0.345084C10.3751 0.730948 11.1492 1.41165 11.5853 2.26018L13.0216 5.05527C13.3966 5.78511 13.501 6.59936 13.3202 7.38377C13.1395 8.16817 12.6826 8.88338 12.0136 9.42903L9.63458 11.37C9.56504 11.4267 9.52098 11.5033 9.51037 11.586C9.44031 12.1391 9.86867 13.2162 10.856 14.7141C11.5741 15.8023 12.2254 16.5672 12.778 16.995C13.1634 17.2946 13.3752 17.3587 13.4659 17.3364L16.6667 16.4795C17.5408 16.2455 18.4766 16.2568 19.343 16.5116C20.2095 16.7665 20.963 17.2522 21.4981 17.9007L23.538 20.3753C24.1583 21.1278 24.4455 22.0518 24.3462 22.9755C24.2469 23.8993 23.7679 24.7602 22.9981 25.3984L21.5872 26.5688C20.8384 27.1893 19.9187 27.6295 18.9177 27.8466C17.9167 28.0636 16.8685 28.0502 15.8753 27.8075C11.4897 26.736 7.55807 23.4978 4.03565 18.1598C0.508447 12.8149 -0.728859 8.21124 0.41131 4.34744C0.667968 3.47845 1.17612 2.68195 1.8868 2.03473C2.59748 1.38751 3.48671 0.91138 4.46878 0.652238ZM5.1583 2.6545C4.56922 2.8098 4.03577 3.0952 3.60933 3.48323C3.18288 3.87126 2.87781 4.34883 2.7235 4.86995C1.76486 8.11927 2.86204 12.2004 6.1042 17.1148C9.34158 22.0223 12.8274 24.8926 16.5186 25.7955C17.1144 25.9407 17.743 25.9485 18.3432 25.8181C18.9434 25.6877 19.4949 25.4236 19.9439 25.0514L21.3563 23.881C21.7064 23.5909 21.9242 23.1995 21.9693 22.7794C22.0144 22.3594 21.8837 21.9394 21.6016 21.5973L19.5633 19.1241C19.3201 18.829 18.9773 18.6079 18.5832 18.492C18.1891 18.376 17.7633 18.371 17.3658 18.4775L14.157 19.3372C12.2939 19.8221 10.6028 18.511 8.78741 15.7591C7.56444 13.9059 6.99436 12.4707 7.13608 11.3547C7.21092 10.775 7.51826 10.24 8.00554 9.84147L10.3846 7.90051C10.6888 7.65252 10.8966 7.3274 10.9788 6.97079C11.0611 6.61419 11.0137 6.244 10.8432 5.91218L9.40686 3.1171C9.20864 2.7317 8.85703 2.42252 8.41757 2.24718C7.9781 2.07183 7.48076 2.04228 7.01824 2.16404L5.1583 2.6545Z" fill="url(#paint0_linear_360_11371)"/>
<circle cx="30.8652" cy="21.5" r="2.5" fill="url(#paint1_linear_360_11371)"/>
<circle cx="30.8652" cy="13.5" r="2.5" fill="url(#paint2_linear_360_11371)"/>
<circle cx="30.8652" cy="5.5" r="2.5" fill="url(#paint3_linear_360_11371)"/>
<defs>
<linearGradient id="paint0_linear_360_11371" x1="1.1346e-08" y1="14" x2="24.3654" y2="14" gradientUnits="userSpaceOnUse">
<stop stop-color="#C038F5"/>
<stop offset="1" stop-color="#3496FE"/>
</linearGradient>
<linearGradient id="paint1_linear_360_11371" x1="28.3652" y1="21.5" x2="33.3652" y2="21.5" gradientUnits="userSpaceOnUse">
<stop stop-color="#C038F5"/>
<stop offset="1" stop-color="#3496FE"/>
</linearGradient>
<linearGradient id="paint2_linear_360_11371" x1="28.3652" y1="13.5" x2="33.3652" y2="13.5" gradientUnits="userSpaceOnUse">
<stop stop-color="#C038F5"/>
<stop offset="1" stop-color="#3496FE"/>
</linearGradient>
<linearGradient id="paint3_linear_360_11371" x1="28.3652" y1="5.5" x2="33.3652" y2="5.5" gradientUnits="userSpaceOnUse">
<stop stop-color="#C038F5"/>
<stop offset="1" stop-color="#3496FE"/>
</linearGradient>
</defs>
</svg>
