<svg width="41" height="40" viewBox="0 0 41 40" fill="none" xmlns="http://www.w3.org/2000/svg">
<circle cx="20.5" cy="20" r="19" stroke="url(#paint0_linear_615_27438)" stroke-width="2"/>
<path d="M13.7505 6.65224L15.3766 6.16317C16.2673 5.89456 17.2254 5.95922 18.072 6.34508C18.9186 6.73095 19.5959 7.41165 19.9775 8.26018L21.2343 11.0553C21.5624 11.7851 21.6537 12.5994 21.4955 13.3838C21.3374 14.1682 20.9376 14.8834 20.3523 15.429L18.2706 17.37C18.2097 17.4267 18.1712 17.5033 18.1619 17.586C18.1006 18.1391 18.4754 19.2162 19.3393 20.7141C19.9677 21.8023 20.5376 22.5672 21.0211 22.995C21.3583 23.2946 21.5436 23.3587 21.623 23.3364L24.4237 22.4795C25.1885 22.2455 26.0074 22.2568 26.7655 22.5116C27.5236 22.7665 28.183 23.2522 28.6511 23.9007L30.436 26.3753C30.9788 27.1278 31.2301 28.0518 31.1432 28.9755C31.0564 29.8993 30.6373 30.7602 29.9637 31.3984L28.7292 32.5688C28.074 33.1893 27.2692 33.6295 26.3934 33.8466C25.5175 34.0636 24.6003 34.0502 23.7312 33.8075C19.8939 32.736 16.4536 29.4978 13.3715 24.1598C10.2852 18.8149 9.20258 14.2112 10.2002 10.3474C10.4248 9.47845 10.8694 8.68195 11.4913 8.03473C12.1131 7.38751 12.8912 6.91138 13.7505 6.65224ZM14.3538 8.6545C13.8384 8.8098 13.3716 9.0952 12.9985 9.48323C12.6254 9.87126 12.3584 10.3488 12.2234 10.8699C11.3846 14.1193 12.3446 18.2004 15.1815 23.1148C18.0142 28.0223 21.0643 30.8926 24.2941 31.7955C24.8154 31.9407 25.3654 31.9485 25.8906 31.8181C26.4158 31.6877 26.8984 31.4236 27.2912 31.0514L28.5271 29.881C28.8334 29.5909 29.024 29.1995 29.0634 28.7795C29.1029 28.3594 28.9886 27.9394 28.7417 27.5973L26.9582 25.1241C26.7454 24.829 26.4455 24.6079 26.1006 24.492C25.7558 24.376 25.3832 24.371 25.0354 24.4775L22.2277 25.3372C20.5975 25.8221 19.1178 24.511 17.5293 21.7591C16.4592 19.9059 15.9604 18.4707 16.0844 17.3547C16.1499 16.775 16.4188 16.24 16.8452 15.8415L18.9269 13.9005C19.193 13.6525 19.3749 13.3274 19.4468 12.9708C19.5188 12.6142 19.4773 12.244 19.3282 11.9122L18.0713 9.1171C17.8979 8.7317 17.5902 8.42252 17.2057 8.24718C16.8212 8.07183 16.386 8.04228 15.9813 8.16404L14.3538 8.6545Z" fill="url(#paint1_linear_615_27438)"/>
<defs>
<linearGradient id="paint0_linear_615_27438" x1="0.5" y1="20" x2="40.5" y2="20" gradientUnits="userSpaceOnUse">
<stop stop-color="#C038F5"/>
<stop offset="1" stop-color="#3496FE"/>
</linearGradient>
<linearGradient id="paint1_linear_615_27438" x1="9.84033" y1="20" x2="31.1601" y2="20" gradientUnits="userSpaceOnUse">
<stop stop-color="#C038F5"/>
<stop offset="1" stop-color="#3496FE"/>
</linearGradient>
</defs>
</svg>
