<svg width="185" height="45" viewBox="0 0 185 45" fill="none" xmlns="http://www.w3.org/2000/svg">
<path d="M136.824 0.5L184.824 8.7243V44.5L136.824 36.6869V0.5Z" fill="url(#paint0_linear_891_6676)"/>
<path d="M149.463 32.5C149.283 32.5 149.133 32.44 149.013 32.32C148.913 32.18 148.863 32.02 148.863 31.84C148.863 31.78 148.883 31.69 148.923 31.57L156.393 14.11H146.553C146.353 14.11 146.183 14.05 146.043 13.93C145.923 13.79 145.863 13.62 145.863 13.42V12.22C145.863 12 145.923 11.83 146.043 11.71C146.183 11.57 146.353 11.5 146.553 11.5H158.853C159.073 11.5 159.243 11.57 159.363 11.71C159.503 11.83 159.573 12 159.573 12.22V13.33C159.573 13.59 159.553 13.8 159.513 13.96C159.473 14.12 159.413 14.3 159.333 14.5L151.923 31.75C151.863 31.91 151.763 32.08 151.623 32.26C151.503 32.42 151.323 32.5 151.083 32.5H149.463ZM165.744 32.5C165.564 32.5 165.414 32.44 165.294 32.32C165.194 32.18 165.144 32.02 165.144 31.84C165.144 31.78 165.164 31.69 165.204 31.57L172.674 14.11H162.834C162.634 14.11 162.464 14.05 162.324 13.93C162.204 13.79 162.144 13.62 162.144 13.42V12.22C162.144 12 162.204 11.83 162.324 11.71C162.464 11.57 162.634 11.5 162.834 11.5H175.134C175.354 11.5 175.524 11.57 175.644 11.71C175.784 11.83 175.854 12 175.854 12.22V13.33C175.854 13.59 175.834 13.8 175.794 13.96C175.754 14.12 175.694 14.3 175.614 14.5L168.204 31.75C168.144 31.91 168.044 32.08 167.904 32.26C167.784 32.42 167.604 32.5 167.364 32.5H165.744Z" fill="white"/>
<path d="M4.29707 31.5C4.07707 31.5 3.90707 31.44 3.78707 31.32C3.66707 31.18 3.60707 31.01 3.60707 30.81V11.22C3.60707 11 3.66707 10.83 3.78707 10.71C3.90707 10.57 4.07707 10.5 4.29707 10.5H11.9171C13.3971 10.5 14.6771 10.74 15.7571 11.22C16.8571 11.7 17.7071 12.42 18.3071 13.38C18.9071 14.32 19.2071 15.5 19.2071 16.92C19.2071 18.34 18.9071 19.52 18.3071 20.46C17.7071 21.4 16.8571 22.11 15.7571 22.59C14.6771 23.07 13.3971 23.31 11.9171 23.31H6.60707V30.81C6.60707 31.01 6.53707 31.18 6.39707 31.32C6.27707 31.44 6.10707 31.5 5.88707 31.5H4.29707ZM6.57707 20.79H11.7671C13.2471 20.79 14.3571 20.46 15.0971 19.8C15.8371 19.14 16.2071 18.18 16.2071 16.92C16.2071 15.68 15.8471 14.72 15.1271 14.04C14.4071 13.36 13.2871 13.02 11.7671 13.02H6.57707V20.79ZM24.4451 31.5C24.2251 31.5 24.0551 31.44 23.9351 31.32C23.8151 31.18 23.7551 31.01 23.7551 30.81V11.19C23.7551 10.99 23.8151 10.83 23.9351 10.71C24.0551 10.57 24.2251 10.5 24.4451 10.5H26.0351C26.2351 10.5 26.3951 10.57 26.5151 10.71C26.6351 10.83 26.6951 10.99 26.6951 11.19V28.89H36.6851C36.9051 28.89 37.0751 28.96 37.1951 29.1C37.3151 29.22 37.3751 29.39 37.3751 29.61V30.81C37.3751 31.01 37.3151 31.18 37.1951 31.32C37.0751 31.44 36.9051 31.5 36.6851 31.5H24.4451ZM40.1494 31.5C39.9894 31.5 39.8494 31.44 39.7294 31.32C39.6094 31.2 39.5494 31.06 39.5494 30.9C39.5494 30.8 39.5594 30.69 39.5794 30.57L47.0194 11.16C47.0994 10.96 47.2094 10.8 47.3494 10.68C47.4894 10.56 47.6994 10.5 47.9794 10.5H50.0194C50.2794 10.5 50.4794 10.56 50.6194 10.68C50.7794 10.8 50.8994 10.96 50.9794 11.16L58.3894 30.57C58.4294 30.69 58.4494 30.8 58.4494 30.9C58.4494 31.06 58.3894 31.2 58.2694 31.32C58.1494 31.44 58.0094 31.5 57.8494 31.5H56.3194C56.0794 31.5 55.8994 31.44 55.7794 31.32C55.6794 31.2 55.6094 31.09 55.5694 30.99L53.9194 26.73H44.0794L42.4294 30.99C42.4094 31.09 42.3394 31.2 42.2194 31.32C42.0994 31.44 41.9194 31.5 41.6794 31.5H40.1494ZM44.9494 24.15H53.0494L48.9994 13.5L44.9494 24.15ZM61.8671 31.5C61.6471 31.5 61.4771 31.43 61.3571 31.29C61.2371 31.15 61.1771 30.98 61.1771 30.78V29.49C61.1771 29.19 61.2371 28.95 61.3571 28.77C61.4771 28.59 61.5671 28.46 61.6271 28.38L72.7871 13.11H62.1371C61.9371 13.11 61.7671 13.05 61.6271 12.93C61.5071 12.79 61.4471 12.62 61.4471 12.42V11.22C61.4471 11 61.5071 10.83 61.6271 10.71C61.7671 10.57 61.9371 10.5 62.1371 10.5H75.7271C75.9471 10.5 76.1171 10.57 76.2371 10.71C76.3571 10.83 76.4171 11 76.4171 11.22V12.51C76.4171 12.75 76.3771 12.95 76.2971 13.11C76.2371 13.27 76.1471 13.42 76.0271 13.56L64.9871 28.89H76.0271C76.2471 28.89 76.4171 28.96 76.5371 29.1C76.6771 29.22 76.7471 29.39 76.7471 29.61V30.81C76.7471 31.01 76.6771 31.18 76.5371 31.32C76.4171 31.44 76.2471 31.5 76.0271 31.5H61.8671ZM82.1354 31.5C81.9354 31.5 81.7654 31.44 81.6254 31.32C81.5054 31.18 81.4454 31.01 81.4454 30.81V11.22C81.4454 11 81.5054 10.83 81.6254 10.71C81.7654 10.57 81.9354 10.5 82.1354 10.5H83.6354C83.8754 10.5 84.0554 10.56 84.1754 10.68C84.2954 10.8 84.3654 10.9 84.3854 10.98L90.7454 23.1L97.1354 10.98C97.1754 10.9 97.2454 10.8 97.3454 10.68C97.4654 10.56 97.6454 10.5 97.8854 10.5H99.3554C99.5754 10.5 99.7454 10.57 99.8654 10.71C100.005 10.83 100.075 11 100.075 11.22V30.81C100.075 31.01 100.005 31.18 99.8654 31.32C99.7454 31.44 99.5754 31.5 99.3554 31.5H97.8854C97.6854 31.5 97.5154 31.44 97.3754 31.32C97.2554 31.18 97.1954 31.01 97.1954 30.81V16.05L92.1854 25.83C92.1054 26.03 91.9854 26.19 91.8254 26.31C91.6654 26.41 91.4654 26.46 91.2254 26.46H90.2954C90.0354 26.46 89.8254 26.41 89.6654 26.31C89.5254 26.19 89.4054 26.03 89.3054 25.83L84.2954 16.05V30.81C84.2954 31.01 84.2254 31.18 84.0854 31.32C83.9654 31.44 83.8054 31.5 83.6054 31.5H82.1354ZM104.754 31.5C104.594 31.5 104.454 31.44 104.334 31.32C104.214 31.2 104.154 31.06 104.154 30.9C104.154 30.8 104.164 30.69 104.184 30.57L111.624 11.16C111.704 10.96 111.814 10.8 111.954 10.68C112.094 10.56 112.304 10.5 112.584 10.5H114.624C114.884 10.5 115.084 10.56 115.224 10.68C115.384 10.8 115.504 10.96 115.584 11.16L122.994 30.57C123.034 30.69 123.054 30.8 123.054 30.9C123.054 31.06 122.994 31.2 122.874 31.32C122.754 31.44 122.614 31.5 122.454 31.5H120.924C120.684 31.5 120.504 31.44 120.384 31.32C120.284 31.2 120.214 31.09 120.174 30.99L118.524 26.73H108.684L107.034 30.99C107.014 31.09 106.944 31.2 106.824 31.32C106.704 31.44 106.524 31.5 106.284 31.5H104.754ZM109.554 24.15H117.654L113.604 13.5L109.554 24.15Z" fill="white"/>
<defs>
<linearGradient id="paint0_linear_891_6676" x1="136.824" y1="22.5" x2="184.824" y2="22.5" gradientUnits="userSpaceOnUse">
<stop stop-color="#C038F5"/>
<stop offset="1" stop-color="#3496FE"/>
</linearGradient>
</defs>
</svg>
