<svg width="85" height="26" viewBox="0 0 85 26" fill="none" xmlns="http://www.w3.org/2000/svg">
<path d="M64 0L85 4.85981V26L64 21.3832V0Z" fill="url(#paint0_linear_460_12701)"/>
<path d="M69.3196 18.7778C69.2296 18.7778 69.1546 18.7478 69.0946 18.6878C69.0446 18.6178 69.0196 18.5378 69.0196 18.4478L69.0496 18.3128L72.7846 9.58278H67.8646C67.7646 9.58278 67.6796 9.55278 67.6096 9.49278C67.5496 9.42278 67.5196 9.33778 67.5196 9.23778V8.63778C67.5196 8.52778 67.5496 8.44278 67.6096 8.38278C67.6796 8.31278 67.7646 8.27778 67.8646 8.27778H74.0146C74.1246 8.27778 74.2096 8.31278 74.2696 8.38278C74.3396 8.44278 74.3746 8.52778 74.3746 8.63778V9.19278C74.3746 9.37278 74.3346 9.56778 74.2546 9.77778L70.5646 18.4028C70.5146 18.5128 70.4546 18.6028 70.3846 18.6728C70.3246 18.7428 70.2396 18.7778 70.1296 18.7778H69.3196ZM77.46 18.7778C77.37 18.7778 77.295 18.7478 77.235 18.6878C77.185 18.6178 77.16 18.5378 77.16 18.4478L77.19 18.3128L80.925 9.58278H76.005C75.905 9.58278 75.82 9.55278 75.75 9.49278C75.69 9.42278 75.66 9.33778 75.66 9.23778V8.63778C75.66 8.52778 75.69 8.44278 75.75 8.38278C75.82 8.31278 75.905 8.27778 76.005 8.27778H82.155C82.265 8.27778 82.35 8.31278 82.41 8.38278C82.48 8.44278 82.515 8.52778 82.515 8.63778V9.19278C82.515 9.37278 82.475 9.56778 82.395 9.77778L78.705 18.4028C78.655 18.5128 78.595 18.6028 78.525 18.6728C78.465 18.7428 78.38 18.7778 78.27 18.7778H77.46Z" fill="white"/>
<path d="M1.98643 19C1.88643 19 1.80143 18.97 1.73143 18.91C1.67143 18.84 1.64143 18.755 1.64143 18.655V8.86C1.64143 8.75 1.67143 8.665 1.73143 8.605C1.80143 8.535 1.88643 8.5 1.98643 8.5H5.79643C6.92643 8.5 7.81643 8.775 8.46643 9.325C9.11643 9.875 9.44143 10.67 9.44143 11.71C9.44143 12.75 9.11643 13.545 8.46643 14.095C7.82643 14.635 6.93643 14.905 5.79643 14.905H3.14143V18.655C3.14143 18.755 3.10643 18.84 3.03643 18.91C2.96643 18.97 2.88143 19 2.78143 19H1.98643ZM5.72143 13.645C6.45143 13.645 7.00143 13.48 7.37143 13.15C7.75143 12.82 7.94143 12.34 7.94143 11.71C7.94143 11.08 7.75643 10.6 7.38643 10.27C7.01643 9.93 6.46143 9.76 5.72143 9.76H3.12643V13.645H5.72143ZM12.0604 19C11.9604 19 11.8754 18.97 11.8054 18.91C11.7454 18.84 11.7154 18.755 11.7154 18.655V8.845C11.7154 8.745 11.7454 8.665 11.8054 8.605C11.8754 8.535 11.9604 8.5 12.0604 8.5H12.8554C12.9554 8.5 13.0354 8.535 13.0954 8.605C13.1654 8.665 13.2004 8.745 13.2004 8.845V17.695H18.1804C18.2904 17.695 18.3754 17.73 18.4354 17.8C18.5054 17.86 18.5404 17.945 18.5404 18.055V18.655C18.5404 18.755 18.5054 18.84 18.4354 18.91C18.3654 18.97 18.2804 19 18.1804 19H12.0604ZM19.9126 19C19.8326 19 19.7626 18.97 19.7026 18.91C19.6426 18.85 19.6126 18.78 19.6126 18.7C19.6126 18.62 19.6176 18.565 19.6276 18.535L23.3476 8.83C23.4276 8.61 23.5876 8.5 23.8276 8.5H24.8476C25.0876 8.5 25.2476 8.61 25.3276 8.83L29.0326 18.535L29.0626 18.7C29.0626 18.78 29.0326 18.85 28.9726 18.91C28.9126 18.97 28.8426 19 28.7626 19H27.9976C27.8876 19 27.8026 18.975 27.7426 18.925C27.6826 18.865 27.6426 18.805 27.6226 18.745L26.7976 16.615H21.8776L21.0526 18.745C21.0326 18.805 20.9876 18.865 20.9176 18.925C20.8576 18.975 20.7776 19 20.6776 19H19.9126ZM26.3626 15.325L24.3376 10L22.3126 15.325H26.3626ZM30.7714 19C30.6714 19 30.5864 18.97 30.5164 18.91C30.4564 18.84 30.4264 18.75 30.4264 18.64V17.995C30.4264 17.865 30.4464 17.76 30.4864 17.68C30.5364 17.6 30.5914 17.52 30.6514 17.44L36.2314 9.805H30.9064C30.8064 9.805 30.7214 9.775 30.6514 9.715C30.5914 9.645 30.5614 9.56 30.5614 9.46V8.86C30.5614 8.75 30.5914 8.665 30.6514 8.605C30.7214 8.535 30.8064 8.5 30.9064 8.5H37.7014C37.8114 8.5 37.8964 8.535 37.9564 8.605C38.0264 8.665 38.0614 8.75 38.0614 8.86V9.505C38.0614 9.615 38.0414 9.705 38.0014 9.775C37.9714 9.845 37.9264 9.93 37.8664 10.03L32.3314 17.695H37.8514C37.9614 17.695 38.0464 17.73 38.1064 17.8C38.1764 17.86 38.2114 17.945 38.2114 18.055V18.655C38.2114 18.755 38.1764 18.84 38.1064 18.91C38.0464 18.97 37.9614 19 37.8514 19H30.7714ZM40.9056 19C40.8056 19 40.7206 18.97 40.6506 18.91C40.5906 18.84 40.5606 18.755 40.5606 18.655V8.86C40.5606 8.75 40.5906 8.665 40.6506 8.605C40.7206 8.535 40.8056 8.5 40.9056 8.5H41.6556C41.8156 8.5 41.9456 8.58 42.0456 8.74L45.2106 14.8L48.4056 8.74C48.4256 8.68 48.4656 8.625 48.5256 8.575C48.5956 8.525 48.6806 8.5 48.7806 8.5H49.5156C49.6256 8.5 49.7106 8.535 49.7706 8.605C49.8406 8.665 49.8756 8.75 49.8756 8.86V18.655C49.8756 18.755 49.8406 18.84 49.7706 18.91C49.7006 18.97 49.6156 19 49.5156 19H48.7806C48.6806 19 48.5956 18.97 48.5256 18.91C48.4656 18.84 48.4356 18.755 48.4356 18.655V11.275L45.9306 16.165C45.8306 16.375 45.6706 16.48 45.4506 16.48H44.9856C44.7656 16.48 44.6056 16.375 44.5056 16.165L41.9856 11.275V18.655C41.9856 18.755 41.9506 18.84 41.8806 18.91C41.8206 18.97 41.7406 19 41.6406 19H40.9056ZM52.2147 19C52.1347 19 52.0647 18.97 52.0047 18.91C51.9447 18.85 51.9147 18.78 51.9147 18.7C51.9147 18.62 51.9197 18.565 51.9297 18.535L55.6497 8.83C55.7297 8.61 55.8897 8.5 56.1297 8.5H57.1497C57.3897 8.5 57.5497 8.61 57.6297 8.83L61.3347 18.535L61.3647 18.7C61.3647 18.78 61.3347 18.85 61.2747 18.91C61.2147 18.97 61.1447 19 61.0647 19H60.2997C60.1897 19 60.1047 18.975 60.0447 18.925C59.9847 18.865 59.9447 18.805 59.9247 18.745L59.0997 16.615H54.1797L53.3547 18.745C53.3347 18.805 53.2897 18.865 53.2197 18.925C53.1597 18.975 53.0797 19 52.9797 19H52.2147ZM58.6647 15.325L56.6397 10L54.6147 15.325H58.6647Z" fill="white"/>
<defs>
<linearGradient id="paint0_linear_460_12701" x1="64" y1="13" x2="85" y2="13" gradientUnits="userSpaceOnUse">
<stop stop-color="#C038F5"/>
<stop offset="1" stop-color="#3496FE"/>
</linearGradient>
</defs>
</svg>
