<svg width="31" height="29" viewBox="0 0 31 29" fill="none" xmlns="http://www.w3.org/2000/svg">
<path d="M1.28636 0C0.945194 0 0.618004 0.131741 0.376765 0.366241C0.135527 0.600741 0 0.918792 0 1.25042C0 1.58206 0.135527 1.90011 0.376765 2.13461C0.618004 2.36911 0.945194 2.50085 1.28636 2.50085H1.91924C2.19857 2.50132 2.47014 2.59016 2.69293 2.75393C2.91572 2.91771 3.07761 3.14753 3.15415 3.40866L7.23447 17.2884C7.46525 18.0717 7.95211 18.7606 8.62143 19.2511C9.29075 19.7415 10.1061 20.0068 10.9443 20.0068H22.6991C23.4705 20.0069 24.2242 19.7823 24.863 19.3619C25.5018 18.9416 25.9964 18.3448 26.2828 17.6485L30.075 8.43036C30.2309 8.05105 30.2889 7.64039 30.2438 7.23428C30.1987 6.82818 30.052 6.43898 29.8164 6.10072C29.5809 5.76246 29.2637 5.48543 28.8926 5.29385C28.5215 5.10226 28.1077 5.00196 27.6875 5.0017H6.298L5.62652 2.72092C5.39633 1.93759 4.91007 1.24839 4.24122 0.757499C3.57238 0.266608 2.75732 0.000711162 1.91924 0H1.28636ZM9.70942 16.5981L7.0338 7.50255H27.685L23.8928 16.7207C23.7972 16.9525 23.6325 17.1512 23.4197 17.2911C23.2069 17.4311 22.9559 17.5059 22.6991 17.5059H10.9443C10.665 17.5055 10.3934 17.4166 10.1706 17.2529C9.94785 17.0891 9.78596 16.8593 9.70942 16.5981Z" fill="url(#paint0_linear_359_9960)"/>
<path d="M11.5773 28.7598C12.0841 28.7598 12.5859 28.6627 13.0541 28.4742C13.5223 28.2857 13.9478 28.0094 14.3061 27.6611C14.6645 27.3127 14.9487 26.8992 15.1426 26.444C15.3366 25.9889 15.4364 25.5011 15.4364 25.0085C15.4364 24.5159 15.3366 24.0281 15.1426 23.5729C14.9487 23.1178 14.6645 22.7043 14.3061 22.3559C13.9478 22.0076 13.5223 21.7313 13.0541 21.5428C12.5859 21.3543 12.0841 21.2572 11.5773 21.2572C10.5538 21.2572 9.57227 21.6524 8.84856 22.3559C8.12484 23.0594 7.71826 24.0136 7.71826 25.0085C7.71826 26.0034 8.12484 26.9576 8.84856 27.6611C9.57227 28.3646 10.5538 28.7598 11.5773 28.7598ZM11.5773 26.2589C11.2362 26.2589 10.909 26.1272 10.6677 25.8927C10.4265 25.6582 10.291 25.3401 10.291 25.0085C10.291 24.6769 10.4265 24.3588 10.6677 24.1243C10.909 23.8898 11.2362 23.7581 11.5773 23.7581C11.9185 23.7581 12.2457 23.8898 12.4869 24.1243C12.7282 24.3588 12.8637 24.6769 12.8637 25.0085C12.8637 25.3401 12.7282 25.6582 12.4869 25.8927C12.2457 26.1272 11.9185 26.2589 11.5773 26.2589Z" fill="url(#paint1_linear_359_9960)"/>
<path d="M21.8679 28.7598C22.3746 28.7598 22.8765 28.6627 23.3447 28.4742C23.8129 28.2857 24.2383 28.0094 24.5966 27.6611C24.955 27.3127 25.2392 26.8992 25.4332 26.444C25.6271 25.9889 25.7269 25.5011 25.7269 25.0085C25.7269 24.5159 25.6271 24.0281 25.4332 23.5729C25.2392 23.1178 24.955 22.7043 24.5966 22.3559C24.2383 22.0076 23.8129 21.7313 23.3447 21.5428C22.8765 21.3543 22.3746 21.2572 21.8679 21.2572C20.8444 21.2572 19.8628 21.6524 19.1391 22.3559C18.4154 23.0594 18.0088 24.0136 18.0088 25.0085C18.0088 26.0034 18.4154 26.9576 19.1391 27.6611C19.8628 28.3646 20.8444 28.7598 21.8679 28.7598ZM21.8679 26.2589C21.5267 26.2589 21.1995 26.1272 20.9583 25.8927C20.717 25.6582 20.5815 25.3401 20.5815 25.0085C20.5815 24.6769 20.717 24.3588 20.9583 24.1243C21.1995 23.8898 21.5267 23.7581 21.8679 23.7581C22.209 23.7581 22.5362 23.8898 22.7775 24.1243C23.0187 24.3588 23.1542 24.6769 23.1542 25.0085C23.1542 25.3401 23.0187 25.6582 22.7775 25.8927C22.5362 26.1272 22.209 26.2589 21.8679 26.2589Z" fill="url(#paint2_linear_359_9960)"/>
<defs>
<linearGradient id="paint0_linear_359_9960" x1="1.40903e-08" y1="10.0034" x2="30.2586" y2="10.0034" gradientUnits="userSpaceOnUse">
<stop stop-color="#C038F5"/>
<stop offset="1" stop-color="#3496FE"/>
</linearGradient>
<linearGradient id="paint1_linear_359_9960" x1="7.71826" y1="25.0085" x2="15.4364" y2="25.0085" gradientUnits="userSpaceOnUse">
<stop stop-color="#C038F5"/>
<stop offset="1" stop-color="#3496FE"/>
</linearGradient>
<linearGradient id="paint2_linear_359_9960" x1="18.0088" y1="25.0085" x2="25.7269" y2="25.0085" gradientUnits="userSpaceOnUse">
<stop stop-color="#C038F5"/>
<stop offset="1" stop-color="#3496FE"/>
</linearGradient>
</defs>
</svg>
