<svg width="768" height="620" viewBox="0 0 768 620" fill="none" xmlns="http://www.w3.org/2000/svg">
<g clip-path="url(#clip0_463_12188)">
<path d="M234.812 469.612C227.68 479.884 217.452 487.607 205.622 491.654C193.793 495.701 180.98 495.86 169.053 492.108C157.126 488.356 146.71 480.89 139.325 470.798C131.94 460.706 127.972 448.518 128 436.011C127.972 423.504 131.94 411.315 139.325 401.224C146.71 391.132 157.126 383.665 169.053 379.913C180.98 376.162 193.793 376.321 205.622 380.368C217.452 384.415 227.68 392.138 234.812 402.41H262.355C262.355 349.657 279.149 301.607 309.379 261.622L264.37 216.597C245.56 219.957 226.415 214.581 211.972 200.805C189.467 177.62 189.467 140.323 211.972 116.803C235.148 94.2901 272.431 94.2901 295.943 116.803C309.715 131.251 315.089 150.404 311.73 169.22L356.739 214.245C387.64 191.061 423.916 175.604 463.886 169.892V122.851C453.618 115.716 445.898 105.485 441.852 93.6507C437.807 81.8166 437.648 68.9989 441.398 57.068C445.149 45.137 452.612 34.7174 462.7 27.3294C472.788 19.9415 484.973 15.972 497.475 16.0001C509.977 15.972 522.162 19.9415 532.25 27.3294C542.338 34.7174 549.801 45.137 553.552 57.068C557.302 68.9989 557.143 81.8166 553.098 93.6507C549.052 105.485 541.332 115.716 531.064 122.851V169.892C561.293 174.26 589.508 184.004 615.035 198.789L652.319 145.363C645.937 127.891 647.616 107.73 659.036 91.6021C663.464 85.2632 669.097 79.8602 675.615 75.7024C682.133 71.5446 689.406 68.7136 697.019 67.3715C704.631 66.0295 712.434 66.2027 719.98 67.8812C727.525 69.5598 734.666 72.7107 740.993 77.1537C767.528 95.6341 774.245 132.259 755.436 158.804C744.016 175.268 725.878 184.004 707.404 184.004L667.769 240.454C682.213 254.902 693.633 271.031 703.373 288.839C713.962 284.701 725.518 283.704 736.659 285.969C747.799 288.233 758.05 293.663 766.184 301.607C788.688 325.128 788.688 362.089 766.184 385.609C756.443 394.682 744.687 400.058 732.595 402.41C732.595 420.554 730.244 438.027 726.55 454.827L770.551 466.587C784.658 454.827 804.139 449.787 823.621 454.827C838.676 458.927 851.486 468.841 859.234 482.389C866.982 495.937 869.032 512.009 864.935 527.069C860.837 542.129 850.926 554.945 837.383 562.695C823.84 570.446 807.774 572.497 792.719 568.398C773.574 563.022 759.13 548.91 753.085 531.437L702.366 517.661C687.251 544.205 667.098 567.726 643.586 587.214L680.533 654.416C699.007 657.104 715.801 667.521 725.542 685.329C729.203 692.124 731.49 699.574 732.273 707.254C733.056 714.933 732.319 722.692 730.105 730.087C727.89 737.482 724.241 744.367 719.367 750.352C714.492 756.336 708.487 761.301 701.694 764.963C694.901 768.625 687.454 770.913 679.777 771.697C672.1 772.48 664.344 771.743 656.952 769.527C649.56 767.312 642.677 763.662 636.695 758.786C630.713 753.909 625.75 747.902 622.089 741.106C612.684 723.634 613.02 703.473 621.417 687.009L585.477 620.815C558.27 631.568 528.712 637.616 497.475 637.616H491.429C495.796 646.352 497.475 656.432 497.475 667.184C494.788 699.777 466.573 723.97 434.328 721.618C402.083 719.266 377.564 690.705 379.915 658.448C381.258 641.648 389.656 626.863 401.747 617.119C385.961 610.063 370.846 600.991 356.739 590.575L278.141 669.201C281.5 688.017 276.126 707.17 262.355 721.618C238.843 744.13 201.895 744.13 178.383 721.618C154.871 699.105 155.879 661.136 178.383 637.616C192.826 623.839 211.972 618.463 230.781 621.823L309.379 543.197C292.92 521.357 280.157 496.492 272.095 469.612H234.812V469.612ZM547.858 402.41C575.737 402.41 598.241 379.897 598.241 352.009C598.241 324.12 575.737 301.607 547.858 301.607C519.979 301.607 497.475 324.12 497.475 352.009C497.475 379.897 519.979 402.41 547.858 402.41V402.41ZM430.298 503.212C448.772 503.212 463.886 488.092 463.886 469.612C463.886 451.131 448.772 436.011 430.298 436.011C411.824 436.011 396.709 451.131 396.709 469.612C396.709 488.092 411.824 503.212 430.298 503.212Z" fill="#E3E1FB"/>
</g>
<defs>
<clipPath id="clip0_463_12188">
<rect width="1494" height="1494" fill="white" transform="translate(-38 -814)"/>
</clipPath>
</defs>
</svg>
