<svg width="153" height="215" viewBox="0 0 153 215" fill="none" xmlns="http://www.w3.org/2000/svg">
<path d="M114.698 162.604C117.256 166.286 120.923 169.055 125.165 170.505C129.407 171.956 134.002 172.013 138.279 170.668C142.555 169.323 146.291 166.647 148.939 163.029C151.587 159.412 153.01 155.043 153 150.559C153.01 146.076 151.587 141.707 148.939 138.089C146.291 134.472 142.555 131.795 138.279 130.45C134.002 129.106 129.407 129.163 125.165 130.613C120.923 132.064 117.256 134.832 114.698 138.515H104.821C104.821 119.604 98.7991 102.38 87.9589 88.0472L104.099 71.9072C110.844 73.1117 117.709 71.1845 122.888 66.2462C130.958 57.9353 130.958 44.5656 122.888 36.1343C114.578 28.0643 101.208 28.0643 92.7768 36.1343C87.8385 41.3135 85.9113 48.179 87.1158 54.9241L70.976 71.0641C59.8949 62.7532 46.8867 57.2126 32.5536 55.165V38.3024C36.2357 35.7447 39.0042 32.0772 40.4548 27.8351C41.9056 23.593 41.9626 18.9983 40.6177 14.7215C39.2728 10.4446 36.5963 6.70953 32.9789 4.0612C29.3614 1.41288 24.9922 -0.0100484 20.5089 5.34168e-05C16.0257 -0.0100484 11.6565 1.41288 8.03904 4.0612C4.42155 6.70953 1.74507 10.4446 0.400169 14.7215C-0.944733 18.9983 -0.887672 23.593 0.563034 27.8351C2.01375 32.0772 4.78217 35.7447 8.46431 38.3024V55.165C-2.37586 56.7308 -12.4934 60.2238 -21.6473 65.5235L-35.0168 46.3723C-32.7284 40.1091 -33.3306 32.8822 -37.4258 27.1007C-39.0134 24.8285 -41.0336 22.8917 -43.3707 21.4013C-45.7079 19.9108 -48.316 18.896 -51.0459 18.4149C-53.7758 17.9338 -56.5737 17.9959 -59.2795 18.5976C-61.9854 19.1993 -64.5459 20.3288 -66.8147 21.9215C-76.3299 28.5461 -78.7389 41.6749 -71.9939 51.1902C-67.8987 57.0922 -61.3946 60.2238 -54.77 60.2238L-40.5574 80.459C-45.7366 85.6382 -49.8317 91.4197 -53.3247 97.8034C-57.1216 96.3199 -61.2658 95.9627 -65.2605 96.7745C-69.2553 97.5862 -72.9314 99.5326 -75.8482 102.38C-83.9181 110.812 -83.9181 124.061 -75.8482 132.492C-72.3552 135.744 -68.1396 137.672 -63.8035 138.515C-63.8035 145.019 -62.9604 151.282 -61.6355 157.304L-77.414 161.52C-82.4727 157.304 -89.4586 155.498 -96.4445 157.304C-101.843 158.774 -106.437 162.328 -109.215 167.184C-111.993 172.041 -112.729 177.802 -111.259 183.201C-109.79 188.599 -106.236 193.193 -101.38 195.971C-96.5232 198.75 -90.762 199.485 -85.3634 198.016C-78.498 196.089 -73.3188 191.03 -71.1507 184.766L-52.9633 179.828C-47.5433 189.343 -40.3165 197.775 -31.8852 204.761L-45.1343 228.85C-51.7589 229.814 -57.7812 233.548 -61.2741 239.931C-62.587 242.367 -63.4072 245.038 -63.6879 247.791C-63.9686 250.544 -63.7044 253.325 -62.9103 255.976C-62.1162 258.626 -60.8078 261.095 -59.0598 263.24C-57.3117 265.385 -55.1583 267.165 -52.7225 268.477C-50.2866 269.79 -47.616 270.611 -44.8632 270.891C-42.1103 271.172 -39.3292 270.908 -36.6784 270.114C-34.0277 269.32 -31.5594 268.011 -29.4143 266.263C-27.2692 264.515 -25.4895 262.362 -24.1767 259.926C-20.8042 253.662 -20.9246 246.436 -23.9358 240.534L-11.048 216.805C-1.29185 220.66 9.30743 222.828 20.5089 222.828H22.677C21.1112 225.96 20.5089 229.573 20.5089 233.427C21.4725 245.111 31.59 253.783 43.1529 252.94C54.7157 252.097 63.5083 241.859 62.6652 230.296C62.1834 224.273 59.1722 218.974 54.8362 215.481C60.4971 212.951 65.9172 209.699 70.976 205.965L99.1604 234.15C97.956 240.895 99.8831 247.76 104.821 252.94C113.253 261.01 126.502 261.01 134.933 252.94C143.364 244.87 143.003 231.259 134.933 222.828C129.754 217.89 122.888 215.962 116.143 217.167L87.9589 188.982C93.8608 181.153 98.4377 172.24 101.328 162.604H114.698ZM2.44199 138.515C-7.55505 138.515 -15.625 130.445 -15.625 120.448C-15.625 110.45 -7.55505 102.38 2.44199 102.38C12.439 102.38 20.5089 110.45 20.5089 120.448C20.5089 130.445 12.439 138.515 2.44199 138.515ZM44.5982 174.649C37.9737 174.649 32.5536 169.229 32.5536 162.604C32.5536 155.98 37.9737 150.559 44.5982 150.559C51.2228 150.559 56.6429 155.98 56.6429 162.604C56.6429 169.229 51.2228 174.649 44.5982 174.649Z" fill="#E3E1FB"/>
</svg>
