<svg width="304" height="422" viewBox="0 0 304 422" fill="none" xmlns="http://www.w3.org/2000/svg">
<path d="M59.5488 253.206C55.5724 258.94 49.8705 263.251 43.2753 265.51C36.6801 267.769 29.5367 267.858 22.8875 265.764C16.2383 263.67 10.4313 259.502 6.31393 253.869C2.19659 248.236 -0.015625 241.432 6.10352e-05 234.45C-0.015625 227.469 2.19659 220.665 6.31393 215.032C10.4313 209.399 16.2383 205.231 22.8875 203.137C29.5367 201.043 36.6801 201.131 43.2753 203.39C49.8705 205.65 55.5724 209.961 59.5488 215.694H74.9041C74.9041 186.247 84.2671 159.426 101.12 137.107L76.0276 111.974C65.5411 113.849 54.8672 110.848 46.8151 103.158C34.2686 90.2166 34.2686 69.3974 46.8151 56.2682C59.736 43.7016 80.5219 43.7016 93.6301 56.2682C101.308 64.3333 104.304 75.0242 102.431 85.5276L127.524 110.661C144.752 97.719 164.976 89.0912 187.26 85.9027V59.6443C181.535 55.6615 177.231 49.9505 174.976 43.3447C172.72 36.7389 172.632 29.584 174.723 22.9242C176.814 16.2643 180.975 10.448 186.599 6.32409C192.223 2.20014 199.016 -0.0156473 205.986 8.31804e-05C212.956 -0.0156473 219.749 2.20014 225.373 6.32409C230.997 10.448 235.159 16.2643 237.25 22.9242C239.34 29.584 239.252 36.7389 236.996 43.3447C234.741 49.9505 230.437 55.6615 224.712 59.6443V85.9027C241.565 88.341 257.295 93.7802 271.527 102.033L292.313 72.2108C288.755 62.4577 289.691 51.204 296.058 42.2011C298.526 38.6628 301.667 35.6468 305.301 33.3259C308.935 31.005 312.989 29.4248 317.234 28.6756C321.478 27.9265 325.828 28.0232 330.035 28.9602C334.241 29.8971 338.222 31.656 341.75 34.1361C356.543 44.4519 360.288 64.8959 349.802 79.7132C343.435 88.9036 333.323 93.7802 323.024 93.7802L300.927 125.29C308.979 133.355 315.346 142.358 320.776 152.299C326.68 149.989 333.123 149.433 339.333 150.697C345.544 151.961 351.259 154.992 355.794 159.426C368.341 172.556 368.341 193.187 355.794 206.316C350.364 211.381 343.809 214.381 337.068 215.694C337.068 225.823 335.757 235.576 333.697 244.954L358.228 251.518C366.093 244.954 376.954 242.14 387.816 244.954C396.209 247.242 403.351 252.776 407.67 260.339C411.99 267.901 413.133 276.873 410.849 285.279C408.564 293.686 403.039 300.839 395.488 305.166C387.938 309.492 378.981 310.637 370.588 308.349C359.914 305.348 351.862 297.471 348.491 287.718L320.215 280.028C311.788 294.845 300.552 307.974 287.444 318.853L308.043 356.365C318.342 357.865 327.705 363.679 333.136 373.62C335.177 377.413 336.452 381.572 336.888 385.859C337.325 390.145 336.914 394.476 335.679 398.604C334.445 402.732 332.411 406.575 329.693 409.916C326.975 413.256 323.627 416.028 319.84 418.072C316.053 420.116 311.901 421.393 307.621 421.831C303.341 422.268 299.017 421.856 294.896 420.62C290.775 419.383 286.938 417.346 283.603 414.624C280.268 411.902 277.501 408.548 275.46 404.755C270.216 395.002 270.404 383.748 275.085 374.558L255.048 337.609C239.88 343.611 223.401 346.987 205.986 346.987H202.615C205.05 351.863 205.986 357.49 205.986 363.492C204.488 381.685 188.758 395.19 170.781 393.877C152.804 392.564 139.134 376.621 140.445 358.615C141.194 349.237 145.876 340.985 152.617 335.545C143.816 331.607 135.389 326.543 127.524 320.728L83.7053 364.617C85.5779 375.121 82.5817 385.812 74.9041 393.877C61.7959 406.443 41.1973 406.443 28.0891 393.877C14.9809 381.31 15.5426 360.116 28.0891 346.987C36.1412 339.297 46.8151 336.296 57.3016 338.171L101.12 294.282C91.9447 282.091 84.8289 268.211 80.3346 253.206H59.5488ZM234.075 215.694C249.618 215.694 262.164 203.128 262.164 187.56C262.164 171.993 249.618 159.426 234.075 159.426C218.533 159.426 205.986 171.993 205.986 187.56C205.986 203.128 218.533 215.694 234.075 215.694ZM168.534 271.962C178.833 271.962 187.26 263.522 187.26 253.206C187.26 242.891 178.833 234.45 168.534 234.45C158.235 234.45 149.808 242.891 149.808 253.206C149.808 263.522 158.235 271.962 168.534 271.962Z" fill="#E3E1FB"/>
</svg>
