<svg width="1786" height="1786" viewBox="0 0 1786 1786" fill="none"  xmlns="http://www.w3.org/2000/svg">
<g clip-path="url(#clip0_917_12439)">
<path d="M364.475 1693.42C351.889 1711.55 333.843 1725.17 312.969 1732.31C292.094 1739.46 269.485 1739.74 248.44 1733.12C227.395 1726.5 209.016 1713.32 195.984 1695.51C182.952 1677.71 175.951 1656.2 176 1634.13C175.951 1612.06 182.952 1590.55 195.984 1572.75C209.016 1554.94 227.395 1541.76 248.44 1535.14C269.485 1528.52 292.094 1528.8 312.969 1535.95C333.843 1543.09 351.889 1556.71 364.475 1574.84H413.075C413.075 1481.75 442.709 1396.97 496.051 1326.41L416.631 1246.96C383.441 1252.89 349.658 1243.41 324.172 1219.1C284.462 1178.19 284.462 1112.37 324.172 1070.87C365.067 1031.15 430.856 1031.15 472.344 1070.87C496.644 1096.37 506.127 1130.16 500.2 1163.36L579.62 1242.81C634.147 1201.9 698.158 1174.63 768.687 1164.55V1081.54C750.568 1068.95 736.946 1050.9 729.807 1030.02C722.668 1009.14 722.388 986.519 729.006 965.466C735.624 944.414 748.794 926.028 766.595 912.991C784.395 899.955 805.895 892.951 827.956 893C850.017 892.951 871.517 899.955 889.317 912.991C907.118 926.028 920.288 944.414 926.906 965.466C933.524 986.519 933.243 1009.14 926.105 1030.02C918.966 1050.9 905.344 1068.95 887.225 1081.54V1164.55C940.567 1172.26 990.352 1189.45 1035.4 1215.54L1101.18 1121.27C1089.92 1090.44 1092.89 1054.86 1113.04 1026.4C1120.85 1015.22 1130.79 1005.68 1142.29 998.348C1153.79 991.011 1166.63 986.016 1180.06 983.648C1193.49 981.28 1207.26 981.585 1220.58 984.547C1233.89 987.509 1246.49 993.069 1257.65 1000.91C1304.48 1033.52 1316.33 1098.14 1283.14 1144.98C1262.99 1174.04 1230.98 1189.45 1198.39 1189.45L1128.45 1289.06C1153.93 1314.55 1174.09 1343.01 1191.27 1374.44C1209.96 1367.14 1230.35 1365.38 1250.01 1369.37C1269.66 1373.37 1287.75 1382.95 1302.11 1396.97C1341.82 1438.47 1341.82 1503.69 1302.11 1545.19C1284.92 1561.2 1264.17 1570.69 1242.84 1574.84C1242.84 1606.86 1238.69 1637.69 1232.17 1667.33L1309.81 1688.08C1334.7 1667.33 1369.08 1658.44 1403.46 1667.33C1430.02 1674.57 1452.62 1692.06 1466.3 1715.97C1479.97 1739.87 1483.59 1768.23 1476.36 1794.81C1469.12 1821.38 1451.64 1843.99 1427.74 1857.67C1403.84 1871.35 1375.49 1874.97 1348.93 1867.73C1315.14 1858.25 1289.66 1833.35 1278.99 1802.51L1189.5 1778.21C1162.82 1825.05 1127.26 1866.55 1085.77 1900.94L1150.97 2019.52C1183.57 2024.26 1213.2 2042.64 1230.39 2074.06C1236.85 2086.06 1240.89 2099.2 1242.27 2112.75C1243.65 2126.3 1242.35 2139.99 1238.44 2153.04C1234.53 2166.09 1228.1 2178.24 1219.49 2188.8C1210.89 2199.36 1200.3 2208.12 1188.31 2214.58C1176.32 2221.05 1163.18 2225.08 1149.64 2226.46C1136.09 2227.85 1122.4 2226.55 1109.36 2222.64C1096.32 2218.73 1084.17 2212.29 1073.62 2203.68C1063.06 2195.08 1054.3 2184.48 1047.84 2172.49C1031.25 2141.66 1031.84 2106.08 1046.66 2077.03L983.24 1960.23C935.232 1979.2 883.076 1989.87 827.956 1989.87H817.288C824.992 2005.29 827.956 2023.07 827.956 2042.05C823.214 2099.56 773.429 2142.25 716.531 2138.1C659.633 2133.95 616.367 2083.55 620.516 2026.63C622.886 1996.99 637.703 1970.9 659.04 1953.71C631.184 1941.25 604.513 1925.25 579.62 1906.87L440.931 2045.61C446.858 2078.81 437.375 2112.6 413.075 2138.1C371.587 2177.82 306.391 2177.82 264.903 2138.1C223.415 2098.37 225.193 2031.38 264.903 1989.87C290.389 1965.56 324.172 1956.08 357.362 1962.01L496.051 1823.27C467.01 1784.73 444.488 1740.85 430.263 1693.42H364.475ZM916.859 1574.84C966.052 1574.84 1005.76 1535.12 1005.76 1485.9C1005.76 1436.69 966.052 1396.97 916.859 1396.97C867.666 1396.97 827.956 1436.69 827.956 1485.9C827.956 1535.12 867.666 1574.84 916.859 1574.84ZM709.419 1752.71C742.016 1752.71 768.687 1726.03 768.687 1693.42C768.687 1660.81 742.016 1634.13 709.419 1634.13C676.821 1634.13 650.15 1660.81 650.15 1693.42C650.15 1726.03 676.821 1752.71 709.419 1752.71Z" fill="#E3E1FB"/>
</g>
<defs>
<clipPath id="clip0_917_12439">
<rect width="1786" height="1786" fill="white"/>
</clipPath>
</defs>
</svg>
