<svg width="361" height="213" viewBox="0 0 361 213" fill="none" xmlns="http://www.w3.org/2000/svg">
<path d="M88.5 213C69.1 213 52.8 210 39.6 204C26.6 198 16.9 190.6 10.5 181.8C4.3 172.8 1 163.8 0.6 154.8C0.6 153 1.2 151.5 2.4 150.3C3.8 149.1 5.4 148.5 7.2 148.5H46.5C48.7 148.5 50.5 148.9 51.9 149.7C53.3 150.5 54.6 152 55.8 154.2C59.8 164.6 70.7 169.8 88.5 169.8C98.7 169.8 106.6 167.5 112.2 162.9C118 158.1 120.9 151.6 120.9 143.4C120.9 127.4 110.5 119.4 89.7 119.4H56.4C54.4 119.4 52.6 118.7 51 117.3C49.6 115.7 48.9 113.9 48.9 111.9V95.1C48.9 90.7 50.5 87.3 53.7 84.9L102.9 43.2H19.5C17.5 43.2 15.7 42.5 14.1 41.1C12.7 39.5 12 37.7 12 35.7V7.5C12 5.29999 12.7 3.49999 14.1 2.09999C15.7 0.699989 17.5 -1.43051e-05 19.5 -1.43051e-05H157.5C159.7 -1.43051e-05 161.5 0.699989 162.9 2.09999C164.5 3.49999 165.3 5.29999 165.3 7.5V33C165.3 36.8 163.7 40.1 160.5 42.9L114.9 85.2L117 85.8C135.4 88.2 149.9 94.4 160.5 104.4C171.3 114.2 176.7 128.3 176.7 146.7C176.7 160.1 172.9 171.8 165.3 181.8C157.7 191.8 147.2 199.5 133.8 204.9C120.4 210.3 105.3 213 88.5 213ZM267.654 200.1C265.654 200.1 263.854 199.4 262.254 198C260.854 196.4 260.154 194.6 260.154 192.6V137.7H206.754C204.554 137.7 202.654 137 201.054 135.6C199.654 134.2 198.954 132.4 198.954 130.2V108.3C198.954 106.1 199.654 104.3 201.054 102.9C202.654 101.3 204.554 100.5 206.754 100.5H260.154V47.4C260.154 45.2 260.854 43.4 262.254 42C263.854 40.6 265.654 39.9 267.654 39.9H292.254C294.454 39.9 296.254 40.6 297.654 42C299.054 43.4 299.754 45.2 299.754 47.4V100.5H352.854C355.054 100.5 356.854 101.3 358.254 102.9C359.654 104.3 360.354 106.1 360.354 108.3V130.2C360.354 132.4 359.654 134.2 358.254 135.6C356.854 137 355.054 137.7 352.854 137.7H299.754V192.6C299.754 194.6 299.054 196.4 297.654 198C296.254 199.4 294.454 200.1 292.254 200.1H267.654Z" fill="white"/>
</svg>
