<svg width="28" height="26" viewBox="0 0 28 26" fill="none" xmlns="http://www.w3.org/2000/svg">
<path d="M1.67304 0C1.37323 0 1.0857 0.119099 0.873699 0.331097C0.661702 0.543095 0.542603 0.830625 0.542603 1.13043C0.542603 1.43024 0.661702 1.71777 0.873699 1.92977C1.0857 2.14177 1.37323 2.26087 1.67304 2.26087H2.22921C2.47468 2.26129 2.71333 2.34161 2.90912 2.48967C3.1049 2.63773 3.24717 2.84549 3.31443 3.08156L6.90017 15.6294C7.10297 16.3375 7.53082 16.9603 8.11901 17.4037C8.7072 17.8471 9.42376 18.0869 10.1603 18.087H20.4903C21.1682 18.0871 21.8306 17.884 22.3919 17.504C22.9533 17.124 23.3879 16.5844 23.6396 15.955L26.9722 7.62139C27.1092 7.27848 27.1601 6.90722 27.1205 6.54009C27.0809 6.17295 26.9519 5.8211 26.7449 5.5153C26.5379 5.2095 26.2592 4.95905 25.9331 4.78585C25.6069 4.61265 25.2433 4.52197 24.8741 4.52174H6.07721L5.48712 2.45983C5.28483 1.75166 4.85751 1.12859 4.26974 0.684809C3.68197 0.241024 2.9657 0.000642919 2.22921 0H1.67304ZM9.07512 15.0054L6.72382 6.78261H24.8718L21.5393 15.1162C21.4553 15.3257 21.3105 15.5053 21.1235 15.6319C20.9366 15.7584 20.716 15.826 20.4903 15.8261H10.1603C9.91488 15.8257 9.67622 15.7453 9.48044 15.5973C9.28465 15.4492 9.14238 15.2415 9.07512 15.0054Z" fill="#E3E1FB"/>
<path d="M10.7165 26C11.1619 26 11.6028 25.9123 12.0143 25.7419C12.4257 25.5714 12.7996 25.3216 13.1145 25.0067C13.4294 24.6918 13.6792 24.3179 13.8497 23.9065C14.0201 23.495 14.1078 23.054 14.1078 22.6087C14.1078 22.1633 14.0201 21.7224 13.8497 21.3109C13.6792 20.8994 13.4294 20.5256 13.1145 20.2107C12.7996 19.8958 12.4257 19.646 12.0143 19.4755C11.6028 19.3051 11.1619 19.2174 10.7165 19.2174C9.81707 19.2174 8.95448 19.5747 8.31848 20.2107C7.68249 20.8467 7.3252 21.7093 7.3252 22.6087C7.3252 23.5081 7.68249 24.3707 8.31848 25.0067C8.95448 25.6427 9.81707 26 10.7165 26ZM10.7165 23.7391C10.4167 23.7391 10.1292 23.62 9.91716 23.408C9.70516 23.196 9.58606 22.9085 9.58606 22.6087C9.58606 22.3089 9.70516 22.0214 9.91716 21.8094C10.1292 21.5974 10.4167 21.4783 10.7165 21.4783C11.0163 21.4783 11.3038 21.5974 11.5158 21.8094C11.7278 22.0214 11.8469 22.3089 11.8469 22.6087C11.8469 22.9085 11.7278 23.196 11.5158 23.408C11.3038 23.62 11.0163 23.7391 10.7165 23.7391Z" fill="#E3E1FB"/>
<path d="M19.76 26C20.2054 26 20.6464 25.9123 21.0578 25.7419C21.4693 25.5714 21.8431 25.3216 22.158 25.0067C22.4729 24.6918 22.7227 24.3179 22.8932 23.9065C23.0636 23.495 23.1513 23.054 23.1513 22.6087C23.1513 22.1633 23.0636 21.7224 22.8932 21.3109C22.7227 20.8994 22.4729 20.5256 22.158 20.2107C21.8431 19.8958 21.4693 19.646 21.0578 19.4755C20.6464 19.3051 20.2054 19.2174 19.76 19.2174C18.8606 19.2174 17.998 19.5747 17.362 20.2107C16.726 20.8467 16.3687 21.7093 16.3687 22.6087C16.3687 23.5081 16.726 24.3707 17.362 25.0067C17.998 25.6427 18.8606 26 19.76 26ZM19.76 23.7391C19.4602 23.7391 19.1727 23.62 18.9607 23.408C18.7487 23.196 18.6296 22.9085 18.6296 22.6087C18.6296 22.3089 18.7487 22.0214 18.9607 21.8094C19.1727 21.5974 19.4602 21.4783 19.76 21.4783C20.0598 21.4783 20.3474 21.5974 20.5594 21.8094C20.7714 22.0214 20.8905 22.3089 20.8905 22.6087C20.8905 22.9085 20.7714 23.196 20.5594 23.408C20.3474 23.62 20.0598 23.7391 19.76 23.7391Z" fill="#E3E1FB"/>
</svg>
