<svg width="72" height="100" viewBox="0 0 72 100" fill="none" xmlns="http://www.w3.org/2000/svg">
<path fill-rule="evenodd" clip-rule="evenodd" d="M15.5375 0.131164C11.734 0.902258 8.64568 3.57413 7.41072 7.16183C6.64568 9.3837 6.79802 11.138 8.35173 18.0017L9.6781 23.861H35.9476H62.2172L63.5441 18.0017C65.0922 11.1655 65.2453 9.39776 64.481 7.1839C63.3879 4.01671 61.2297 1.8546 57.8461 0.536633L56.5531 0.032922L36.4359 0.00284385C25.3715 -0.0137577 15.9672 0.0440548 15.5375 0.131164ZM37.3199 4.23468C38.3775 4.77433 38.8773 5.79698 38.8773 7.4214V8.67296L40.3074 8.76476C41.9357 8.86925 42.8045 9.27823 43.383 10.2122C43.8812 11.0167 43.8843 12.5359 43.3894 13.2866C42.7244 14.2954 42.0634 14.581 40.391 14.5823L38.8773 14.5837V15.9732C38.8773 17.0398 38.7783 17.539 38.4508 18.1216C38.0013 18.9212 36.7976 19.6618 35.9476 19.6618C35.0976 19.6618 33.8939 18.9212 33.4445 18.1216C33.117 17.539 33.0179 17.0398 33.0179 15.9732V14.5837L31.5043 14.5823C29.8318 14.581 29.1709 14.2954 28.5058 13.2866C28.0109 12.5359 28.014 11.0167 28.5123 10.2122C29.0908 9.27823 29.9595 8.86925 31.5879 8.76476L33.0179 8.67296L33.0261 7.38019C33.0361 5.79659 33.4447 4.94484 34.5009 4.30538C35.4361 3.73937 36.306 3.71749 37.3199 4.23468ZM8.82498 31.7241C4.23181 36.3778 1.39041 42.519 0.308766 50.1308C-0.0515853 52.6665 -0.1176 67.5276 0.22322 69.3817C1.34959 75.5091 6.57009 80.6741 12.8597 81.8843L14.2838 82.1583L15.8383 81.3767C16.6933 80.9468 17.3929 80.5435 17.3929 80.4806C17.3929 80.4179 16.6926 79.6179 15.8367 78.703C12.239 74.8577 9.91443 70.3946 8.75623 65.1087C8.34412 63.2278 8.32009 62.6692 8.3156 54.9157C8.31091 46.7669 8.31384 46.7065 8.75623 45.8089C9.31248 44.6796 10.3392 43.6089 11.3701 43.0831C11.8051 42.8612 13.0965 42.5185 14.2398 42.3216C21.2574 41.113 26.7396 38.5468 31.1625 34.4003C33.4322 32.2726 35.1238 31.6829 37.3338 32.2489C38.7054 32.6005 38.822 32.6732 40.583 34.2755C45.3109 38.5778 50.7254 41.1339 57.615 42.3159C58.7806 42.5159 60.0902 42.8612 60.5252 43.0831C61.556 43.6089 62.5828 44.6796 63.139 45.8089C63.5814 46.7065 63.5843 46.7669 63.5797 54.9157C63.5752 62.6692 63.5511 63.2278 63.139 65.1087C61.9777 70.4083 59.6574 74.8565 56.0338 78.7296C55.164 79.6591 54.4857 80.4497 54.5263 80.4866C54.5668 80.5237 55.309 80.9085 56.1754 81.3421L57.7509 82.1302L59.105 81.871C65.2787 80.6895 70.3091 75.7608 71.5988 69.6306C72.0129 67.662 72.008 53.4312 71.592 50.2587C70.6099 42.7659 67.6808 36.3956 63.0703 31.7241L61.189 29.8181H35.9476H10.7062L8.82498 31.7241ZM34.6396 39.1677C31.8582 41.7626 27.157 44.5685 23.0105 46.1085C20.8541 46.9095 16.9791 47.8991 15.2207 48.098L14.0406 48.2315L14.1291 55.5774C14.199 61.3755 14.283 63.1964 14.5277 64.2179C16.4738 72.3411 22.1763 78.427 29.9535 80.6808C40.9972 83.8811 52.848 77.7187 56.59 66.8298C57.6267 63.813 57.672 63.379 57.7662 55.5774L57.8547 48.2315L56.6873 48.0995C53.4304 47.731 48.4441 46.1353 44.7574 44.2815C42.6679 43.231 38.8689 40.6515 37.2832 39.2067C36.5676 38.5546 35.9523 38.0251 35.916 38.0298C35.8797 38.0347 35.3054 38.5466 34.6396 39.1677ZM26.5687 53.4024C28.0718 54.1575 28.6242 56.1921 27.6957 57.5526C26.0283 59.9952 22.3783 58.8114 22.4232 55.8427C22.4545 53.778 24.6933 52.4601 26.5687 53.4024ZM48.059 53.4997C49.0543 54.1771 49.457 54.8448 49.472 55.8427C49.517 58.8114 45.867 59.9952 44.1996 57.5526C43.6017 56.6767 43.6033 55.3058 44.2035 54.4075C45.0779 53.0983 46.8547 52.6802 48.059 53.4997ZM32.1543 68.6548C34.5379 70.2335 37.355 70.2353 39.7343 68.6591C41.0504 67.7874 42.3254 67.678 43.3404 68.3499C44.5824 69.1718 45.025 70.547 44.4728 71.8685C43.6558 73.8239 39.4629 75.7165 35.9476 75.7165C32.4435 75.7165 28.2677 73.829 27.4275 71.8653C26.8767 70.5782 27.3 69.2042 28.5049 68.3675C29.491 67.6827 30.848 67.7896 32.1543 68.6548ZM17.8763 86.9058C15.0806 88.3249 12.0963 89.9694 11.2443 90.5602C9.47849 91.7847 6.17537 94.8583 5.75818 95.6649C5.33045 96.4919 5.40466 97.8132 5.92224 98.588C6.85837 99.9892 6.27263 99.9347 20.3715 99.9349L33.0179 99.9352V93.6255V87.3157L31.2113 86.9755C28.8433 86.5294 26.5152 85.8194 24.6838 84.9849C23.8697 84.6138 23.1486 84.3138 23.0814 84.3179C23.0142 84.3222 20.672 85.4866 17.8763 86.9058ZM47.608 84.8163C46.1689 85.5651 42.8965 86.5993 40.7816 86.9737L38.8773 87.3106V93.6229V99.9352L51.5238 99.9349C65.6226 99.9347 65.0369 99.9892 65.973 98.588C66.4906 97.8132 66.5648 96.4919 66.1371 95.6649C65.6925 94.8052 62.3652 91.7446 60.4525 90.4362C58.6933 89.2329 49.3103 84.3022 48.8117 84.3194C48.6652 84.3243 48.1234 84.5479 47.608 84.8163Z" fill="url(#paint0_linear_917_12289)"/>
<defs>
<linearGradient id="paint0_linear_917_12289" x1="0" y1="49.9977" x2="71.9067" y2="49.9977" gradientUnits="userSpaceOnUse">
<stop stop-color="#07F1D3"/>
<stop offset="0.572917" stop-color="#3A65F1"/>
<stop offset="0.984375" stop-color="#B93DF6"/>
</linearGradient>
</defs>
</svg>
