<svg width="100" height="100" viewBox="0 0 100 100" fill="none" xmlns="http://www.w3.org/2000/svg">
<path fill-rule="evenodd" clip-rule="evenodd" d="M87.8332 0.434754C87.4902 0.674446 87.1065 1.09172 86.9801 1.36213C86.1711 3.09469 86.3967 4.47275 87.7621 6.13915C91.717 10.9648 93.9127 16.971 94.1649 23.6528C94.4294 30.6658 92.2801 37.5166 88.2065 42.6452C86.7502 44.4787 86.5651 44.858 86.5495 46.0428C86.5164 48.5501 88.5858 50.1503 90.5643 49.1474C92.1338 48.3519 95.5031 43.334 97.1939 39.2743C99.1407 34.5995 100 30.125 100 24.6618C100 17.6172 98.4397 11.6626 95.094 5.93937C93.8966 3.89067 91.7214 0.989252 90.9409 0.399327C90.217 -0.147772 88.641 -0.12961 87.8332 0.434754ZM9.02163 6.81115C5.45684 7.80579 2.76857 11.2648 2.28023 15.4856C2.17418 16.4013 1.58683 22.8008 0.975029 29.7068C-0.0296466 41.0445 -0.115538 42.412 0.0910709 43.7961C0.411158 45.9419 1.16462 47.5568 2.79655 49.5943C3.56938 50.5595 4.41969 51.8777 4.68577 52.5237C5.70649 55.0005 5.7149 54.5749 4.2254 75.8081C3.47371 86.5241 2.85916 95.8719 2.85994 96.5809C2.86131 98.0197 3.23227 98.8751 4.1579 99.5744C4.69027 99.9767 5.28662 99.9971 16.4764 99.9984L28.2355 100L28.9003 99.4926C30.0241 98.6347 30.1791 97.9544 30.6222 91.928C31.1413 84.8669 31.724 75.4572 32.1076 67.9364C32.2743 64.6684 32.4997 61.3387 32.6085 60.5371C33.2923 55.4982 35.6462 50.8454 39.1521 47.6023C40.7969 46.081 43.9642 44.1531 45.5535 43.7062C46.0985 43.5531 46.5151 43.2964 46.5706 43.0791C46.753 42.3681 53.7282 6.93267 53.7282 6.71765C53.7282 6.37302 10.266 6.46383 9.02163 6.81115ZM59.7934 6.60845C59.7934 6.66809 58.2086 14.7194 56.2717 24.5001C54.3347 34.2811 52.7499 42.4051 52.7499 42.5535C52.7499 42.9782 64.5161 42.9358 65.2326 42.5087C66.0226 42.0376 66.5781 41.2481 66.8248 40.2452C67.5178 37.4278 72.7065 10.5177 72.7065 9.74037C72.7065 8.58227 72.072 7.43089 71.1374 6.89276C70.539 6.54813 69.8104 6.5006 65.125 6.50037C62.1925 6.50015 59.7934 6.54881 59.7934 6.60845ZM78.9744 10.8162C77.965 11.4092 77.4017 12.4734 77.4031 13.7835C77.4043 14.7501 77.6156 15.2017 78.9341 17.0544C82.2297 21.686 82.1217 28.1247 78.6711 32.7225C78.1668 33.3945 77.6749 34.1831 77.578 34.4748C76.6448 37.2879 79.2266 39.9561 81.6216 38.6536C82.3424 38.2617 84.0698 35.9639 84.9803 34.1856C87.6625 28.9485 87.9093 21.8167 85.5916 16.5161C84.3987 13.7884 82.405 11.0458 81.2536 10.5494C80.4359 10.1967 79.9274 10.2561 78.9744 10.8162ZM39.9012 21.6043C40.7383 22.005 41.5498 23.1322 41.7112 24.1176C41.8893 25.2053 41.3416 26.7628 40.5553 27.4056C39.9406 27.9083 39.8656 27.9137 32.5081 27.9769C27.4006 28.0209 24.918 27.9632 24.5582 27.7924C23.773 27.4197 22.9994 26.3834 22.8179 25.4605C22.5199 23.9463 23.2594 22.2171 24.4615 21.6171C25.3469 21.1756 38.9819 21.1642 39.9012 21.6043ZM47.9565 49.9714C46.8804 50.3073 45.6368 50.7997 45.1931 51.0654L44.3862 51.5486L44.0516 53.7446C43.235 59.1039 43.0016 60.1369 42.4205 60.9647C41.6248 62.0982 40.7662 62.7096 39.5223 63.0287C38.9322 63.1798 38.4012 63.3933 38.3423 63.5027C38.2028 63.761 37.8328 70.1988 37.9494 70.3327C38.1502 70.5625 42.6922 69.0131 43.811 68.3331C45.8729 67.0795 47.7923 64.541 48.5624 62.0486C48.824 61.2017 50.5978 50.3759 50.5978 49.6257C50.5978 49.2151 50.2207 49.2644 47.9565 49.9714Z" fill="url(#paint0_linear_917_226)"/>
<defs>
<linearGradient id="paint0_linear_917_226" x1="0" y1="50.0301" x2="100" y2="50.0301" gradientUnits="userSpaceOnUse">
<stop stop-color="#07F1D3"/>
<stop offset="0.572917" stop-color="#3A65F1"/>
<stop offset="0.984375" stop-color="#B93DF6"/>
</linearGradient>
</defs>
</svg>
