<svg width="100" height="100" viewBox="0 0 100 100" fill="none" xmlns="http://www.w3.org/2000/svg">
<path d="M29.1866 16.5338L19.46 7.02242C22.5961 6.13351 26.1413 7.2002 28.1412 10.0003C29.5502 11.9559 29.8229 14.3559 29.1866 16.5338ZM92.046 47.779C89.3643 47.779 86.9554 49.1124 85.5464 51.1124H81.8194C81.8194 44.1345 79.5468 37.7787 75.4562 32.4897L81.5467 26.534C84.092 26.9785 86.6827 26.2673 88.6371 24.4451C91.6824 21.3783 91.6824 16.4449 88.6371 13.3337C85.501 10.3558 80.4559 10.3558 77.2743 13.3337C75.4107 15.2448 74.6835 17.7782 75.138 20.2672L69.0475 26.2229C64.866 23.1562 59.9572 21.1117 54.5485 20.3561V14.1337C55.938 13.1899 56.9827 11.8366 57.5301 10.2713C58.0776 8.7059 58.0991 7.01044 57.5916 5.43227C57.0841 3.8541 56.0741 2.47584 54.709 1.4986C53.3439 0.521359 51.6952 -0.0037079 50.0034 1.9711e-05C48.3116 -0.0037079 46.6628 0.521359 45.2977 1.4986C43.9326 2.47584 42.9227 3.8541 42.4151 5.43227C41.9076 7.01044 41.9292 8.7059 42.4766 10.2713C43.024 11.8366 44.0687 13.1899 45.4582 14.1337V20.3561C42.0948 20.845 38.9587 21.8228 36.0043 23.2006L78.5469 64.8017C79.3196 63.2461 80.0013 61.6905 80.5013 60.0015H85.5464C86.5116 61.3603 87.8955 62.3818 89.4963 62.9172C91.0971 63.4525 92.8309 63.4735 94.4448 62.9773C96.0587 62.481 97.4681 61.4933 98.4675 60.1585C99.4669 58.8236 100.004 57.2113 100 55.557C100 51.2458 96.4548 47.779 92.046 47.779ZM95.9548 93.1579L90.1825 98.8025L86.8191 95.558C85.001 95.3802 83.2284 94.6691 81.8194 93.3357C80.4559 91.9579 79.7286 90.2245 79.5468 88.4467L67.7294 76.8464C66.2295 77.7798 64.6387 78.802 62.957 79.5131C64.5933 80.802 65.7296 82.7577 65.9114 84.9799C66.2295 89.2467 62.9116 93.0246 58.5482 93.3357C54.1849 93.6468 50.367 90.4467 50.0034 86.1355C50.0034 84.7133 50.2306 83.3799 50.8215 82.2243H50.0034C45.7764 82.2243 41.7766 81.4243 38.0951 80.002L33.2318 88.7578C34.3681 90.9356 34.4135 93.6024 33.1409 95.9135C32.6455 96.8124 31.9739 97.607 31.1644 98.2521C30.3549 98.8971 29.4235 99.3799 28.4232 99.6729C27.4229 99.966 26.3734 100.063 25.3346 99.9599C24.2958 99.8563 23.2881 99.5536 22.3689 99.0692C21.4497 98.5847 20.6371 97.928 19.9774 97.1364C19.3178 96.3449 18.8241 95.4341 18.5244 94.4559C18.2247 93.4778 18.125 92.4515 18.231 91.4357C18.3369 90.4199 18.6464 89.4344 19.1418 88.5356C20.4599 86.18 22.7325 84.8021 25.2323 84.4466L30.232 75.5575C27.0504 72.9796 24.3233 69.8684 22.278 66.3572L15.4148 68.1795C14.5967 70.4907 12.6423 72.3574 10.0515 73.0685C9.0428 73.337 7.98988 73.4086 6.95287 73.2792C5.91586 73.1497 4.91508 72.8218 4.00766 72.3142C3.10023 71.8065 2.30395 71.1291 1.66426 70.3205C1.02458 69.512 0.554022 68.5881 0.279459 67.6017C0.00489528 66.6153 -0.0682967 65.5857 0.0640611 64.5716C0.196419 63.5576 0.531734 62.5789 1.05086 61.6916C1.56999 60.8043 2.26277 60.0256 3.08963 59.4001C3.9165 58.7746 4.86127 58.3144 5.86999 58.0459C8.50618 57.3792 11.1424 58.0459 13.0513 59.6015L19.0055 58.0459C18.4765 55.7706 18.2022 53.4458 18.1873 51.1124C16.5511 50.8013 14.9603 50.0902 13.6422 48.8901C10.5969 45.7789 10.5969 40.8899 13.6422 37.7787C15.9148 35.5565 19.3236 35.0231 22.1416 36.0898C22.5961 35.2898 23.1415 34.5342 23.6415 33.7342L0.506716 11.1114L6.3245 5.46682L95.9548 93.1579Z" fill="url(#paint0_linear_917_2590)"/>
<defs>
<linearGradient id="paint0_linear_917_2590" x1="0" y1="50.0301" x2="100" y2="50.0301" gradientUnits="userSpaceOnUse">
<stop stop-color="#07F1D3"/>
<stop offset="0.572917" stop-color="#3A65F1"/>
<stop offset="0.984375" stop-color="#B93DF6"/>
</linearGradient>
</defs>
</svg>
