<svg width="40" height="40" viewBox="0 0 40 40" fill="none" xmlns="http://www.w3.org/2000/svg">
<path fill-rule="evenodd" clip-rule="evenodd" d="M20 40C31.0457 40 40 31.0457 40 20C40 8.9543 31.0457 0 20 0C8.9543 0 0 8.9543 0 20C0 31.0457 8.9543 40 20 40ZM16.2088 16.2075C17.212 15.2042 18.5726 14.6406 19.9914 14.6406C21.4102 14.6406 22.7708 15.2042 23.7741 16.2075C24.7773 17.2107 25.3409 18.5713 25.3409 19.9901C25.3409 21.4089 24.7773 22.7695 23.7741 23.7727C22.7708 24.776 21.4102 25.3396 19.9914 25.3396C18.5726 25.3396 17.212 24.776 16.2088 23.7727C15.2055 22.7695 14.6419 21.4089 14.6419 19.9901C14.6419 18.5713 15.2055 17.2107 16.2088 16.2075ZM17.534 22.4464C18.1857 23.0981 19.0697 23.4642 19.9914 23.4642C20.9131 23.4642 21.7971 23.0981 22.4488 22.4464C23.1006 21.7946 23.4667 20.9107 23.4667 19.9889C23.4667 19.0672 23.1006 18.1833 22.4488 17.5315C21.7971 16.8798 20.9131 16.5136 19.9914 16.5136C19.0697 16.5136 18.1857 16.8798 17.534 17.5315C16.8822 18.1833 16.5161 19.0672 16.5161 19.9889C16.5161 20.9107 16.8822 21.7946 17.534 22.4464ZM25.5524 15.6925C26.2411 15.6925 26.7994 15.1341 26.7994 14.4454C26.7994 13.7566 26.2411 13.1982 25.5524 13.1982C24.8636 13.1982 24.3053 13.7566 24.3053 14.4454C24.3053 15.1341 24.8636 15.6925 25.5524 15.6925ZM28.6629 11.3323C29.1874 11.8566 29.5967 12.4847 29.8645 13.1763C30.1733 13.9968 30.3381 14.8645 30.3516 15.7411C30.4163 16.8483 30.4163 17.2069 30.4163 20.0332C30.4163 22.8595 30.4013 23.2124 30.3516 24.3253C30.3342 25.1907 30.1711 26.0444 29.8668 26.8543C29.5986 27.5458 29.1892 28.1738 28.6648 28.6983C28.1403 29.2228 27.5123 29.6322 26.8207 29.9004C26.0112 30.2036 25.1561 30.3675 24.2917 30.3851C23.1869 30.4487 22.8248 30.4487 19.9997 30.4487C17.1745 30.4487 16.8217 30.4337 15.7076 30.3851C14.8415 30.3566 13.9866 30.1806 13.1798 29.8645C12.488 29.5968 11.8597 29.1877 11.335 28.6634C10.8104 28.1391 10.4008 27.5111 10.1325 26.8196C9.82827 26.0086 9.66515 25.1548 9.64779 24.2894C9.58301 23.1823 9.58301 22.8225 9.58301 19.9974C9.58301 17.1711 9.59805 16.8182 9.64779 15.7053C9.6647 14.8409 9.82862 13.9857 10.1325 13.1763C10.4 12.4845 10.8092 11.8563 11.3338 11.3319C11.8583 10.8075 12.4867 10.3986 13.1786 10.1314C13.987 9.82665 14.8415 9.66232 15.7053 9.64548C16.8101 9.58301 17.1722 9.58301 19.9974 9.58301C22.8225 9.58301 23.1753 9.59689 24.2894 9.64548C25.1538 9.66323 26.009 9.82753 26.8184 10.1314C27.5101 10.3989 28.1383 10.808 28.6629 11.3323ZM28.0956 26.1567C28.3263 25.5311 28.4479 24.8705 28.4554 24.2038V24.205H28.4681C28.5179 23.099 28.5179 22.7959 28.5179 19.978V19.9777C28.5179 17.1583 28.5052 16.8495 28.4554 15.7492C28.4446 15.09 28.323 14.4373 28.0956 13.8184C27.9218 13.3684 27.6558 12.9598 27.3147 12.6187C26.9736 12.2776 26.565 12.0116 26.115 11.8378C25.4965 11.6077 24.8429 11.4859 24.183 11.478C23.0643 11.4144 22.7751 11.4144 19.9557 11.4144C17.1364 11.4144 16.8275 11.4283 15.7273 11.478C15.0679 11.4872 14.4149 11.6089 13.7964 11.8378C12.8836 12.1872 12.1606 12.9056 11.8077 13.8184C11.5771 14.4436 11.4554 15.1037 11.4479 15.7701C11.3866 16.8911 11.3866 17.1792 11.3866 19.9985C11.3866 22.8167 11.3982 23.1268 11.4479 24.2258C11.4587 24.885 11.5803 25.5378 11.8077 26.1567C11.9822 26.6074 12.2494 27.0165 12.592 27.3575C12.9345 27.6984 13.3449 27.9637 13.7964 28.1361C14.4146 28.3661 15.0678 28.4878 15.7273 28.4959C16.8471 28.5595 17.1352 28.5595 19.9557 28.5595C22.7739 28.5595 23.084 28.5468 24.183 28.4959C24.8428 28.4874 25.4963 28.3657 26.115 28.1361C26.565 27.9626 26.9737 27.6969 27.3148 27.356C27.6559 27.0151 27.9219 26.6065 28.0956 26.1567Z" fill="url(#paint0_linear_944_3347)"/>
<defs>
<linearGradient id="paint0_linear_944_3347" x1="1.86264e-08" y1="20" x2="40" y2="20" gradientUnits="userSpaceOnUse">
<stop stop-color="#C038F5"/>
<stop offset="1" stop-color="#3496FE"/>
</linearGradient>
</defs>
</svg>
