<svg width="16" height="8" viewBox="0 0 16 8" fill="none" xmlns="http://www.w3.org/2000/svg">
<path d="M0.990212 1.64287C0.989702 1.79347 1.02272 1.94227 1.08684 2.07833C1.15095 2.2144 1.24454 2.33427 1.36072 2.42915L7.36898 7.29802C7.54816 7.44629 7.77291 7.52734 8.00486 7.52734C8.2368 7.52734 8.46155 7.44629 8.64073 7.29802L14.649 2.25778C14.8535 2.08668 14.9821 1.8408 15.0065 1.57425C15.0309 1.30769 14.9491 1.04229 14.7792 0.836434C14.6092 0.630574 14.365 0.501116 14.1002 0.476541C13.8354 0.451964 13.5717 0.534283 13.3672 0.705388L7.99985 5.21136L2.63247 0.856595C2.48548 0.733328 2.3065 0.655026 2.11669 0.630954C1.92688 0.606882 1.73419 0.638048 1.56142 0.720764C1.38866 0.803481 1.24305 0.934285 1.14182 1.0977C1.04059 1.26111 0.987976 1.4503 0.990212 1.64287Z" fill="#460BD9"/>
</svg>
