<svg width="361" height="213" viewBox="0 0 361 213" fill="none" xmlns="http://www.w3.org/2000/svg">
<path d="M39.6 204L37.9238 207.632L37.9343 207.637L37.9448 207.641L39.6 204ZM10.5 181.8L7.20597 184.069L7.23498 184.111L7.26506 184.153L10.5 181.8ZM0.6 154.8H-3.4V154.889L-3.39605 154.978L0.6 154.8ZM2.4 150.3L-0.203164 147.263L-0.319802 147.363L-0.428429 147.472L2.4 150.3ZM51.9 149.7L49.9154 153.173L49.9154 153.173L51.9 149.7ZM55.8 154.2L59.5334 152.764L59.4384 152.517L59.3116 152.285L55.8 154.2ZM112.2 162.9L114.739 165.991L114.745 165.986L114.75 165.982L112.2 162.9ZM51 117.3L47.9897 119.934L48.1653 120.135L48.366 120.31L51 117.3ZM53.7 84.9L56.1 88.1L56.1954 88.0285L56.2863 87.9514L53.7 84.9ZM102.9 43.2L105.486 46.2514L113.806 39.2H102.9V43.2ZM14.1 41.1L11.0897 43.734L11.2653 43.9347L11.466 44.1103L14.1 41.1ZM14.1 2.09999L11.466 -0.910306L11.3658 -0.822609L11.2716 -0.72844L14.1 2.09999ZM162.9 2.09999L160.072 4.92841L160.166 5.0226L160.266 5.11031L162.9 2.09999ZM160.5 42.9L157.866 39.8897L157.822 39.9279L157.78 39.9674L160.5 42.9ZM114.9 85.2L112.18 82.2675L106.975 87.0957L113.801 89.0461L114.9 85.2ZM117 85.8L115.901 89.6461L116.187 89.7279L116.483 89.7664L117 85.8ZM160.5 104.4L157.755 107.31L157.783 107.336L157.812 107.362L160.5 104.4ZM165.3 181.8L168.485 184.22L168.485 184.22L165.3 181.8ZM133.8 204.9L132.305 201.19L132.305 201.19L133.8 204.9ZM88.5 209C69.4879 209 53.7911 206.057 41.2552 200.359L37.9448 207.641C51.8089 213.943 68.7121 217 88.5 217V209ZM41.2762 200.368C28.7068 194.567 19.6259 187.547 13.7349 179.447L7.26506 184.153C14.1741 193.653 24.4932 201.433 37.9238 207.632L41.2762 200.368ZM13.794 179.531C7.92837 171.016 4.95628 162.727 4.59606 154.622L-3.39605 154.978C-2.95628 164.873 0.671628 174.584 7.20597 184.069L13.794 179.531ZM4.6 154.8C4.6 153.989 4.82761 153.529 5.22843 153.128L-0.428429 147.472C-2.42761 149.471 -3.4 152.011 -3.4 154.8H4.6ZM5.00317 153.337C5.69755 152.742 6.38004 152.5 7.2 152.5V144.5C4.41996 144.5 1.90245 145.458 -0.203164 147.263L5.00317 153.337ZM7.2 152.5H46.5V144.5H7.2V152.5ZM46.5 152.5C48.2469 152.5 49.3007 152.822 49.9154 153.173L53.8846 146.227C51.6993 144.978 49.1531 144.5 46.5 144.5V152.5ZM49.9154 153.173C50.4086 153.455 51.2627 154.235 52.2884 156.115L59.3116 152.285C57.9373 149.765 56.1914 147.545 53.8846 146.227L49.9154 153.173ZM52.0666 155.636C56.9818 168.415 70.1699 173.8 88.5 173.8V165.8C71.2301 165.8 62.6182 160.785 59.5334 152.764L52.0666 155.636ZM88.5 173.8C99.2544 173.8 108.181 171.378 114.739 165.991L109.661 159.809C105.019 163.622 98.1456 165.8 88.5 165.8V173.8ZM114.75 165.982C121.558 160.348 124.9 152.671 124.9 143.4H116.9C116.9 150.529 114.442 155.852 109.65 159.818L114.75 165.982ZM124.9 143.4C124.9 134.461 121.941 127.154 115.539 122.229C109.336 117.458 100.501 115.4 89.7 115.4V123.4C99.6992 123.4 106.464 125.342 110.661 128.57C114.659 131.646 116.9 136.339 116.9 143.4H124.9ZM89.7 115.4H56.4V123.4H89.7V115.4ZM56.4 115.4C55.4333 115.4 54.5548 115.095 53.634 114.29L48.366 120.31C50.6452 122.305 53.3667 123.4 56.4 123.4V115.4ZM54.0103 114.666C53.2046 113.745 52.9 112.867 52.9 111.9H44.9C44.9 114.933 45.9954 117.655 47.9897 119.934L54.0103 114.666ZM52.9 111.9V95.1H44.9V111.9H52.9ZM52.9 95.1C52.9 91.8137 54.0181 89.6614 56.1 88.1L51.3 81.7C46.9819 84.9385 44.9 89.5863 44.9 95.1H52.9ZM56.2863 87.9514L105.486 46.2514L100.314 40.1486L51.1137 81.8486L56.2863 87.9514ZM102.9 39.2H19.5V47.2H102.9V39.2ZM19.5 39.2C18.5333 39.2 17.6548 38.8954 16.734 38.0897L11.466 44.1103C13.7452 46.1046 16.4667 47.2 19.5 47.2V39.2ZM17.1103 38.466C16.3046 37.5452 16 36.6667 16 35.7H8C8 38.7333 9.09539 41.4548 11.0897 43.734L17.1103 38.466ZM16 35.7V7.5H8V35.7H16ZM16 7.5C16 6.23166 16.3652 5.4916 16.9284 4.92843L11.2716 -0.72844C9.03476 1.50837 8 4.36832 8 7.5H16ZM16.734 5.11029C17.6548 4.3046 18.5333 3.99999 19.5 3.99999V-4.00001C16.4667 -4.00001 13.7452 -2.90462 11.466 -0.910306L16.734 5.11029ZM19.5 3.99999H157.5V-4.00001H19.5V3.99999ZM157.5 3.99999C158.768 3.99999 159.508 4.36523 160.072 4.92841L165.728 -0.728421C163.492 -2.96525 160.632 -4.00001 157.5 -4.00001V3.99999ZM160.266 5.11031C160.964 5.72108 161.3 6.40761 161.3 7.5H169.3C169.3 4.19237 168.036 1.2789 165.534 -0.910321L160.266 5.11031ZM161.3 7.5V33H169.3V7.5H161.3ZM161.3 33C161.3 35.5016 160.313 37.7483 157.866 39.8897L163.134 45.9103C167.087 42.4517 169.3 38.0984 169.3 33H161.3ZM157.78 39.9674L112.18 82.2675L117.62 88.1325L163.22 45.8325L157.78 39.9674ZM113.801 89.0461L115.901 89.6461L118.099 81.9539L115.999 81.3539L113.801 89.0461ZM116.483 89.7664C134.277 92.0874 147.917 98.0283 157.755 107.31L163.245 101.49C151.883 90.7717 136.523 84.3126 117.517 81.8336L116.483 89.7664ZM157.812 107.362C167.568 116.215 172.7 129.112 172.7 146.7H180.7C180.7 127.488 175.032 112.185 163.188 101.438L157.812 107.362ZM172.7 146.7C172.7 159.288 169.15 170.124 162.115 179.38L168.485 184.22C176.65 173.476 180.7 160.912 180.7 146.7H172.7ZM162.115 179.38C155.014 188.723 145.138 196.018 132.305 201.19L135.295 208.61C149.262 202.982 160.386 194.877 168.485 184.22L162.115 179.38ZM132.305 201.19C119.451 206.37 104.87 209 88.5 209V217C105.73 217 121.349 214.23 135.295 208.61L132.305 201.19ZM262.254 198L259.244 200.634L259.419 200.835L259.62 201.01L262.254 198ZM260.154 137.7H264.154V133.7H260.154V137.7ZM201.054 135.6L198.225 138.428L198.32 138.523L198.42 138.61L201.054 135.6ZM201.054 102.9L198.225 100.072L198.225 100.072L201.054 102.9ZM260.154 100.5V104.5H264.154V100.5H260.154ZM262.254 42L259.62 38.9897L259.52 39.0774L259.425 39.1716L262.254 42ZM297.654 42L294.825 44.8284L294.825 44.8284L297.654 42ZM299.754 100.5H295.754V104.5H299.754V100.5ZM358.254 102.9L355.244 105.534L355.331 105.634L355.425 105.728L358.254 102.9ZM358.254 135.6L355.425 132.772L355.425 132.772L358.254 135.6ZM299.754 137.7V133.7H295.754V137.7H299.754ZM297.654 198L300.482 200.828L300.577 200.734L300.664 200.634L297.654 198ZM267.654 196.1C266.687 196.1 265.809 195.795 264.888 194.99L259.62 201.01C261.899 203.005 264.621 204.1 267.654 204.1V196.1ZM265.264 195.366C264.459 194.445 264.154 193.567 264.154 192.6H256.154C256.154 195.633 257.249 198.355 259.244 200.634L265.264 195.366ZM264.154 192.6V137.7H256.154V192.6H264.154ZM260.154 133.7H206.754V141.7H260.154V133.7ZM206.754 133.7C205.486 133.7 204.531 133.328 203.688 132.59L198.42 138.61C200.776 140.672 203.622 141.7 206.754 141.7V133.7ZM203.882 132.772C203.319 132.208 202.954 131.468 202.954 130.2H194.954C194.954 133.332 195.989 136.192 198.225 138.428L203.882 132.772ZM202.954 130.2V108.3H194.954V130.2H202.954ZM202.954 108.3C202.954 107.032 203.319 106.292 203.882 105.728L198.225 100.072C195.989 102.308 194.954 105.168 194.954 108.3H202.954ZM203.882 105.728C204.756 104.855 205.648 104.5 206.754 104.5V96.5C203.46 96.5 200.552 97.7454 198.225 100.072L203.882 105.728ZM206.754 104.5H260.154V96.5H206.754V104.5ZM264.154 100.5V47.4H256.154V100.5H264.154ZM264.154 47.4C264.154 46.1317 264.519 45.3916 265.082 44.8284L259.425 39.1716C257.189 41.4084 256.154 44.2683 256.154 47.4H264.154ZM264.888 45.0103C265.809 44.2046 266.687 43.9 267.654 43.9V35.9C264.621 35.9 261.899 36.9954 259.62 38.9897L264.888 45.0103ZM267.654 43.9H292.254V35.9H267.654V43.9ZM292.254 43.9C293.522 43.9 294.262 44.2652 294.825 44.8284L300.482 39.1716C298.246 36.9348 295.386 35.9 292.254 35.9V43.9ZM294.825 44.8284C295.389 45.3916 295.754 46.1317 295.754 47.4H303.754C303.754 44.2683 302.719 41.4084 300.482 39.1716L294.825 44.8284ZM295.754 47.4V100.5H303.754V47.4H295.754ZM299.754 104.5H352.854V96.5H299.754V104.5ZM352.854 104.5C353.946 104.5 354.633 104.836 355.244 105.534L361.264 100.266C359.075 97.764 356.162 96.5 352.854 96.5V104.5ZM355.425 105.728C355.989 106.292 356.354 107.032 356.354 108.3H364.354C364.354 105.168 363.319 102.308 361.082 100.072L355.425 105.728ZM356.354 108.3V130.2H364.354V108.3H356.354ZM356.354 130.2C356.354 131.468 355.989 132.208 355.425 132.772L361.082 138.428C363.319 136.192 364.354 133.332 364.354 130.2H356.354ZM355.425 132.772C354.862 133.335 354.122 133.7 352.854 133.7V141.7C355.986 141.7 358.846 140.665 361.082 138.428L355.425 132.772ZM352.854 133.7H299.754V141.7H352.854V133.7ZM295.754 137.7V192.6H303.754V137.7H295.754ZM295.754 192.6C295.754 193.567 295.449 194.445 294.644 195.366L300.664 200.634C302.659 198.355 303.754 195.633 303.754 192.6H295.754ZM294.825 195.172C294.262 195.735 293.522 196.1 292.254 196.1V204.1C295.386 204.1 298.246 203.065 300.482 200.828L294.825 195.172ZM292.254 196.1H267.654V204.1H292.254V196.1Z" fill="#4CF5E0"/>
</svg>
