<?xml version="1.0" encoding="utf-8"?>
<!-- Generator: Adobe Illustrator 22.0.1, SVG Export Plug-In . SVG Version: 6.00 Build 0)  -->
<svg height="100px" width="100px" version="1.1" id="Слой_1" xmlns="http://www.w3.org/2000/svg" xmlns:xlink="http://www.w3.org/1999/xlink" x="0px" y="0px"
	 viewBox="0 0 72 100" style="enable-background:new 0 0 72 100;" xml:space="preserve">
<style type="text/css">
	.st0{fill:url(#SVGID_1_);}
</style>
<linearGradient id="SVGID_1_" gradientUnits="userSpaceOnUse" x1="1.598892e-09" y1="52.0324" x2="71.9067" y2="52.0324" gradientTransform="matrix(1 0 0 -1 0 102)">
	<stop  offset="0" style="stop-color:#07F1D3"/>
	<stop  offset="0.5729" style="stop-color:#3A65F1"/>
	<stop  offset="0.9844" style="stop-color:#B93DF6"/>
</linearGradient>
<path class="st0" d="M15.5,0.1c-3.8,0.8-6.9,3.4-8.1,7c-0.8,2.2-0.6,4,0.9,10.8l1.3,5.9h26.3h26.3l1.3-5.9c1.5-6.8,1.7-8.6,0.9-10.8
	c-1.1-3.2-3.3-5.3-6.6-6.6L56.6,0L36.4,0C25.4,0,16,0,15.5,0.1z M37.3,4.2c1.1,0.5,1.6,1.6,1.6,3.2v1.3l1.4,0.1
	c1.6,0.1,2.5,0.5,3.1,1.4c0.5,0.8,0.5,2.3,0,3.1c-0.7,1-1.3,1.3-3,1.3l-1.5,0V16c0,1.1-0.1,1.6-0.4,2.1c-0.4,0.8-1.7,1.5-2.5,1.5
	c-0.9,0-2.1-0.7-2.5-1.5C33.1,17.5,33,17,33,16v-1.4l-1.5,0c-1.7,0-2.3-0.3-3-1.3c-0.5-0.8-0.5-2.3,0-3.1c0.6-0.9,1.4-1.3,3.1-1.4
	L33,8.7l0-1.3c0-1.6,0.4-2.4,1.5-3.1C35.4,3.7,36.3,3.7,37.3,4.2z M8.8,31.7c-4.6,4.7-7.4,10.8-8.5,18.4c-0.4,2.5-0.4,17.4-0.1,19.3
	c1.1,6.1,6.3,11.3,12.6,12.5l1.4,0.3l1.6-0.8c0.9-0.4,1.6-0.8,1.6-0.9c0-0.1-0.7-0.9-1.6-1.8c-3.6-3.8-5.9-8.3-7.1-13.6
	c-0.4-1.9-0.4-2.4-0.4-10.2c0-8.1,0-8.2,0.4-9.1c0.6-1.1,1.6-2.2,2.6-2.7c0.4-0.2,1.7-0.6,2.9-0.8c7-1.2,12.5-3.8,16.9-7.9
	c2.3-2.1,4-2.7,6.2-2.2c1.4,0.4,1.5,0.4,3.2,2c4.7,4.3,10.1,6.9,17,8c1.2,0.2,2.5,0.5,2.9,0.8c1,0.5,2.1,1.6,2.6,2.7
	c0.4,0.9,0.4,1,0.4,9.1c0,7.8,0,8.3-0.4,10.2c-1.2,5.3-3.5,9.7-7.1,13.6c-0.9,0.9-1.5,1.7-1.5,1.8c0,0,0.8,0.4,1.6,0.9l1.6,0.8
	l1.4-0.3c6.2-1.2,11.2-6.1,12.5-12.2c0.4-2,0.4-16.2,0-19.4c-1-7.5-3.9-13.9-8.5-18.5l-1.9-1.9H35.9H10.7L8.8,31.7z M34.6,39.2
	c-2.8,2.6-7.5,5.4-11.6,6.9c-2.2,0.8-6,1.8-7.8,2L14,48.2l0.1,7.3c0.1,5.8,0.2,7.6,0.4,8.6c1.9,8.1,7.6,14.2,15.4,16.5
	c11,3.2,22.9-3,26.6-13.9c1-3,1.1-3.5,1.2-11.3l0.1-7.3l-1.2-0.1c-3.3-0.4-8.2-2-11.9-3.8c-2.1-1.1-5.9-3.6-7.5-5.1
	C36.6,38.6,36,38,35.9,38C35.9,38,35.3,38.5,34.6,39.2z M26.6,53.4c1.5,0.8,2.1,2.8,1.1,4.2c-1.7,2.4-5.3,1.3-5.3-1.7
	C22.5,53.8,24.7,52.5,26.6,53.4z M48.1,53.5c1,0.7,1.4,1.3,1.4,2.3c0,3-3.6,4.2-5.3,1.7c-0.6-0.9-0.6-2.2,0-3.1
	C45.1,53.1,46.9,52.7,48.1,53.5z M32.2,68.7c2.4,1.6,5.2,1.6,7.6,0c1.3-0.9,2.6-1,3.6-0.3c1.2,0.8,1.7,2.2,1.1,3.5
	c-0.8,2-5,3.8-8.5,3.8c-3.5,0-7.7-1.9-8.5-3.9c-0.6-1.3-0.1-2.7,1.1-3.5C29.5,67.7,30.8,67.8,32.2,68.7z M17.9,86.9
	c-2.8,1.4-5.8,3.1-6.6,3.7c-1.8,1.2-5.1,4.3-5.5,5.1c-0.4,0.8-0.4,2.1,0.2,2.9c0.9,1.4,0.4,1.3,14.4,1.3l12.6,0v-6.3v-6.3L31.2,87
	c-2.4-0.4-4.7-1.2-6.5-2c-0.8-0.4-1.5-0.7-1.6-0.7C23,84.3,20.7,85.5,17.9,86.9z M47.6,84.8c-1.4,0.7-4.7,1.8-6.8,2.2l-1.9,0.3v6.3
	v6.3l12.6,0c14.1,0,13.5,0.1,14.4-1.3c0.5-0.8,0.6-2.1,0.2-2.9c-0.4-0.9-3.8-3.9-5.7-5.2c-1.8-1.2-11.1-6.1-11.6-6.1
	C48.7,84.3,48.1,84.5,47.6,84.8z"/>
</svg>
