<?xml version="1.0" encoding="utf-8"?>
<!-- Generator: Adobe Illustrator 22.0.1, SVG Export Plug-In . SVG Version: 6.00 Build 0)  -->
<svg height="100px" width="100px" version="1.1" id="Слой_1" xmlns="http://www.w3.org/2000/svg" xmlns:xlink="http://www.w3.org/1999/xlink" x="0px" y="0px"
	 viewBox="0 0 100 100" style="enable-background:new 0 0 100 100;" xml:space="preserve">
<style type="text/css">
	.st0{fill:url(#SVGID_1_);}
</style>
<linearGradient id="SVGID_1_" gradientUnits="userSpaceOnUse" x1="6.830305e-09" y1="52.0001" x2="100" y2="52.0001" gradientTransform="matrix(1 0 0 -1 0 102)">
	<stop  offset="0" style="stop-color:#07F1D3"/>
	<stop  offset="0.5729" style="stop-color:#3A65F1"/>
	<stop  offset="0.9844" style="stop-color:#B93DF6"/>
</linearGradient>
<path class="st0" d="M29.2,16.5L19.5,7c3.1-0.9,6.7,0.2,8.7,3C29.6,12,29.8,14.4,29.2,16.5L29.2,16.5z M92,47.8
	c-2.7,0-5.1,1.3-6.5,3.3h-3.7c0-7-2.3-13.3-6.4-18.6l6.1-6c2.5,0.4,5.1-0.3,7.1-2.1c3-3.1,3-8,0-11.1c-3.1-3-8.2-3-11.4,0
	c-1.9,1.9-2.6,4.4-2.1,6.9l-6.1,6c-4.2-3.1-9.1-5.1-14.5-5.9v-6.2c1.4-0.9,2.4-2.3,3-3.9c0.5-1.6,0.6-3.3,0.1-4.8
	c-0.5-1.6-1.5-3-2.9-3.9S51.7,0,50,0c-1.7,0-3.3,0.5-4.7,1.5s-2.4,2.4-2.9,3.9c-0.5,1.6-0.5,3.3,0.1,4.8c0.5,1.6,1.6,2.9,3,3.9v6.2
	c-3.4,0.5-6.5,1.5-9.5,2.8l42.5,41.6c0.8-1.6,1.5-3.1,2-4.8h5c1,1.4,2.3,2.4,3.9,2.9c1.6,0.5,3.3,0.6,4.9,0.1c1.6-0.5,3-1.5,4-2.8
	c1-1.3,1.5-2.9,1.5-4.6C100,51.2,96.5,47.8,92,47.8z M96,93.2l-5.8,5.6l-3.4-3.2c-1.8-0.2-3.6-0.9-5-2.2c-1.4-1.4-2.1-3.1-2.3-4.9
	L67.7,76.8c-1.5,0.9-3.1,2-4.8,2.7c1.6,1.3,2.8,3.2,3,5.5c0.3,4.3-3,8-7.4,8.4c-4.4,0.3-8.2-2.9-8.5-7.2c0-1.4,0.2-2.8,0.8-3.9H50
	c-4.2,0-8.2-0.8-11.9-2.2l-4.9,8.8c1.1,2.2,1.2,4.8-0.1,7.2c-0.5,0.9-1.2,1.7-2,2.3c-0.8,0.6-1.7,1.1-2.7,1.4c-1,0.3-2,0.4-3.1,0.3
	c-1-0.1-2-0.4-3-0.9c-0.9-0.5-1.7-1.1-2.4-1.9c-0.7-0.8-1.2-1.7-1.5-2.7c-0.3-1-0.4-2-0.3-3c0.1-1,0.4-2,0.9-2.9
	c1.3-2.4,3.6-3.7,6.1-4.1l5-8.9c-3.2-2.6-5.9-5.7-8-9.2l-6.9,1.8c-0.8,2.3-2.8,4.2-5.4,4.9C9,73.3,8,73.4,7,73.3c-1-0.1-2-0.5-2.9-1
	c-0.9-0.5-1.7-1.2-2.3-2c-0.6-0.8-1.1-1.7-1.4-2.7c-0.3-1-0.3-2-0.2-3c0.1-1,0.5-2,1-2.9c0.5-0.9,1.2-1.7,2-2.3
	c0.8-0.6,1.8-1.1,2.8-1.4c2.6-0.7,5.3,0,7.2,1.6l6-1.6c-0.5-2.3-0.8-4.6-0.8-6.9c-1.6-0.3-3.2-1-4.5-2.2c-3-3.1-3-8,0-11.1
	c2.3-2.2,5.7-2.8,8.5-1.7c0.5-0.8,1-1.6,1.5-2.4L0.5,11.1l5.8-5.6L96,93.2z"/>
</svg>
