<?xml version="1.0" encoding="utf-8"?>
<!-- Generator: Adobe Illustrator 22.0.1, SVG Export Plug-In . SVG Version: 6.00 Build 0)  -->
<svg height="100px" width="100px" version="1.1" id="Слой_1" xmlns="http://www.w3.org/2000/svg" xmlns:xlink="http://www.w3.org/1999/xlink" x="0px" y="0px"
	 viewBox="0 0 100 100" style="enable-background:new 0 0 100 100;" xml:space="preserve">
<style type="text/css">
	.st0{fill:url(#SVGID_1_);}
</style>
<linearGradient id="SVGID_1_" gradientUnits="userSpaceOnUse" x1="2.378874e-08" y1="52" x2="100" y2="52" gradientTransform="matrix(1 0 0 -1 0 102)">
	<stop  offset="0" style="stop-color:#07F1D3"/>
	<stop  offset="0.5729" style="stop-color:#3A65F1"/>
	<stop  offset="0.9844" style="stop-color:#B93DF6"/>
</linearGradient>
<path class="st0" d="M87.8,0.4c-0.3,0.2-0.7,0.7-0.9,0.9c-0.8,1.7-0.6,3.1,0.8,4.8c4,4.8,6.2,10.8,6.4,17.5c0.3,7-1.9,13.9-6,19
	c-1.5,1.8-1.6,2.2-1.7,3.4c0,2.5,2,4.1,4,3.1c1.6-0.8,4.9-5.8,6.6-9.9c1.9-4.7,2.8-9.1,2.8-14.6c0-7-1.6-13-4.9-18.7
	c-1.2-2-3.4-5-4.2-5.5C90.2-0.1,88.6-0.1,87.8,0.4z M9,6.8c-3.6,1-6.3,4.5-6.7,8.7C2.2,16.4,1.6,22.8,1,29.7C0,41-0.1,42.4,0.1,43.8
	c0.3,2.1,1.1,3.8,2.7,5.8c0.8,1,1.6,2.3,1.9,2.9c1,2.5,1,2.1-0.5,23.3C3.5,86.5,2.9,95.9,2.9,96.6c0,1.4,0.4,2.3,1.3,3
	c0.5,0.4,1.1,0.4,12.3,0.4l11.8,0l0.7-0.5c1.1-0.9,1.3-1.5,1.7-7.6c0.5-7.1,1.1-16.5,1.5-24c0.2-3.3,0.4-6.6,0.5-7.4
	c0.7-5,3-9.7,6.5-12.9c1.6-1.5,4.8-3.4,6.4-3.9c0.5-0.2,1-0.4,1-0.6c0.2-0.7,7.2-36.1,7.2-36.4C53.7,6.4,10.3,6.5,9,6.8z M59.8,6.6
	c0,0.1-1.6,8.1-3.5,17.9c-1.9,9.8-3.5,17.9-3.5,18.1c0,0.4,11.8,0.4,12.5,0c0.8-0.5,1.3-1.3,1.6-2.3c0.7-2.8,5.9-29.7,5.9-30.5
	c0-1.2-0.6-2.3-1.6-2.8c-0.6-0.3-1.3-0.4-6-0.4C62.2,6.5,59.8,6.5,59.8,6.6z M79,10.8c-1,0.6-1.6,1.7-1.6,3c0,1,0.2,1.4,1.5,3.3
	c3.3,4.6,3.2,11.1-0.3,15.7c-0.5,0.7-1,1.5-1.1,1.8c-0.9,2.8,1.6,5.5,4,4.2c0.7-0.4,2.4-2.7,3.4-4.5c2.7-5.2,2.9-12.4,0.6-17.7
	c-1.2-2.7-3.2-5.5-4.3-6C80.4,10.2,79.9,10.3,79,10.8z M39.9,21.6c0.8,0.4,1.6,1.5,1.8,2.5c0.2,1.1-0.4,2.6-1.2,3.3
	c-0.6,0.5-0.7,0.5-8,0.6c-5.1,0-7.6,0-7.9-0.2c-0.8-0.4-1.6-1.4-1.7-2.3c-0.3-1.5,0.4-3.2,1.6-3.8C25.3,21.2,39,21.2,39.9,21.6z
	 M48,50c-1.1,0.3-2.3,0.8-2.8,1.1l-0.8,0.5l-0.3,2.2c-0.8,5.4-1.1,6.4-1.6,7.2c-0.8,1.1-1.7,1.7-2.9,2.1c-0.6,0.2-1.1,0.4-1.2,0.5
	c-0.1,0.3-0.5,6.7-0.4,6.8c0.2,0.2,4.7-1.3,5.9-2c2.1-1.3,4-3.8,4.8-6.3c0.3-0.8,2-11.7,2-12.4C50.6,49.2,50.2,49.3,48,50z"/>
</svg>
