<svg width="16" height="30" viewBox="0 0 16 30" fill="none" xmlns="http://www.w3.org/2000/svg">
<path d="M15.857 27.8542C15.858 27.3537 15.6755 26.8687 15.3412 26.4833L5.29481 15.0021L14.9824 3.49947C15.1687 3.28037 15.3078 3.02826 15.3917 2.75764C15.4757 2.48702 15.5028 2.20322 15.4715 1.92255C15.4403 1.64189 15.3513 1.36989 15.2096 1.1222C15.0679 0.874501 14.8764 0.65599 14.646 0.479225C14.4167 0.301296 14.1527 0.168424 13.8694 0.088245C13.5861 0.00806564 13.289 -0.0178396 12.9951 0.0120185C12.7013 0.0418765 12.4166 0.126909 12.1572 0.262228C11.8979 0.397548 11.6692 0.580486 11.4841 0.800528L0.652842 13.6526C0.323011 14.0359 0.1427 14.5167 0.1427 15.0128C0.1427 15.509 0.323011 15.9897 0.652842 16.373L11.8653 29.2251C12.0536 29.442 12.2848 29.6213 12.5457 29.7527C12.8066 29.8841 13.0921 29.9651 13.3858 29.991C13.6795 30.0168 13.9757 29.9871 14.2574 29.9034C14.539 29.8198 14.8007 29.6839 15.0273 29.5036C15.2845 29.3042 15.4923 29.053 15.6358 28.7678C15.7793 28.4826 15.8548 28.1706 15.857 27.8542Z" fill="#4CF5E0"/>
</svg>
