<?xml version="1.0" encoding="utf-8"?>
<!-- Generator: Adobe Illustrator 22.0.1, SVG Export Plug-In . SVG Version: 6.00 Build 0)  -->
<svg height="8px" width="11.5px" version="1.1" id="Слой_1" xmlns="http://www.w3.org/2000/svg" xmlns:xlink="http://www.w3.org/1999/xlink" x="0px" y="0px"
	 viewBox="0 0 9 12" style="enable-background:new 0 0 9 12;" xml:space="preserve">
<style type="text/css">
	.st0{fill:#0E0E52;}
</style>
<path class="st0" d="M0.3,1.2c0,0.2,0.1,0.4,0.3,0.5l5.2,4.4l-5,4.4c-0.1,0.1-0.2,0.2-0.2,0.3s-0.1,0.2,0,0.3c0,0.1,0.1,0.2,0.1,0.3
	c0.1,0.1,0.2,0.2,0.3,0.2c0.1,0.1,0.3,0.1,0.4,0.2c0.1,0,0.3,0,0.5,0c0.2,0,0.3,0,0.4-0.1c0.1-0.1,0.3-0.1,0.3-0.2l5.6-5
	c0.2-0.1,0.3-0.3,0.3-0.5S8.3,5.8,8.2,5.7l-5.8-5C2.3,0.6,2.2,0.6,2,0.5C1.9,0.4,1.7,0.4,1.6,0.4c-0.2,0-0.3,0-0.5,0
	C1,0.5,0.9,0.5,0.7,0.6C0.6,0.7,0.5,0.8,0.4,0.9C0.4,1,0.3,1.1,0.3,1.2z"/>
</svg>
