<svg width="16" height="30" viewBox="0 0 16 30" fill="none" xmlns="http://www.w3.org/2000/svg">
<path d="M15.8571 2.14579C15.8581 2.64627 15.6756 3.1313 15.3413 3.51668L5.29494 14.9979L14.9825 26.5005C15.1688 26.7196 15.3079 26.9717 15.3919 27.2424C15.4758 27.513 15.5029 27.7968 15.4717 28.0774C15.4404 28.3581 15.3514 28.6301 15.2097 28.8778C15.068 29.1255 14.8765 29.344 14.6462 29.5208C14.4168 29.6987 14.1528 29.8316 13.8695 29.9118C13.5862 29.9919 13.2891 30.0178 12.9953 29.988C12.7014 29.9581 12.4167 29.8731 12.1574 29.7378C11.8981 29.6025 11.6693 29.4195 11.4842 29.1995L0.652963 16.3474C0.323132 15.9641 0.142821 15.4833 0.142821 14.9872C0.142821 14.491 0.323132 14.0103 0.652963 13.627L11.8655 0.774896C12.0537 0.557998 12.2849 0.378706 12.5458 0.247289C12.8067 0.115873 13.0922 0.0349098 13.3859 0.00904421C13.6796 -0.0168233 13.9758 0.0129142 14.2575 0.0965476C14.5392 0.180181 14.8008 0.31607 15.0274 0.496431C15.2846 0.695755 15.4924 0.94704 15.6359 1.23222C15.7794 1.5174 15.8549 1.8294 15.8571 2.14579Z" fill="#CFCFDC"/>
</svg>
