<svg width="16" height="30" viewBox="0 0 16 30" fill="none" xmlns="http://www.w3.org/2000/svg">
<path d="M15.8571 2.14579C15.8582 2.64627 15.6757 3.1313 15.3414 3.51668L5.29498 14.9979L14.9826 26.5005C15.1688 26.7196 15.308 26.9717 15.3919 27.2424C15.4758 27.513 15.503 27.7968 15.4717 28.0774C15.4404 28.3581 15.3514 28.6301 15.2098 28.8778C15.0681 29.1255 14.8766 29.344 14.6462 29.5208C14.4168 29.6987 14.1529 29.8316 13.8696 29.9118C13.5863 29.9919 13.2891 30.0178 12.9953 29.988C12.7015 29.9581 12.4167 29.8731 12.1574 29.7378C11.8981 29.6025 11.6693 29.4195 11.4843 29.1995L0.653005 16.3474C0.323174 15.9641 0.142863 15.4833 0.142863 14.9872C0.142863 14.491 0.323174 14.0103 0.653005 13.627L11.8655 0.774896C12.0538 0.557999 12.285 0.378706 12.5459 0.247289C12.8068 0.115872 13.0923 0.0349105 13.386 0.00904378C13.6797 -0.0168229 13.9759 0.0129136 14.2575 0.0965476C14.5392 0.180182 14.8008 0.316069 15.0274 0.496432C15.2847 0.695754 15.4925 0.947039 15.636 1.23222C15.7794 1.5174 15.855 1.8294 15.8571 2.14579Z" fill="#CFCFDC"/>
</svg>
