<svg width="16" height="30" viewBox="0 0 16 30" fill="none" xmlns="http://www.w3.org/2000/svg">
<path d="M0.142773 2.14579C0.14175 2.64627 0.324231 3.1313 0.658546 3.51668L10.7049 14.9979L1.01735 26.5005C0.831071 26.7196 0.691966 26.9717 0.608025 27.2424C0.524084 27.513 0.496965 27.7968 0.528223 28.0774C0.559482 28.3581 0.648502 28.6301 0.790169 28.8778C0.931836 29.1255 1.12336 29.344 1.35372 29.5208C1.5831 29.6987 1.84703 29.8316 2.13035 29.9118C2.41367 29.9919 2.71078 30.0178 3.00461 29.988C3.29844 29.9581 3.5832 29.8731 3.84251 29.7378C4.10183 29.6025 4.33059 29.4195 4.51564 29.1995L15.3469 16.3474C15.6767 15.9641 15.8571 15.4833 15.8571 14.9872C15.8571 14.491 15.6767 14.0103 15.3469 13.627L4.13442 0.774898C3.94617 0.558 3.71496 0.378706 3.45406 0.247289C3.19315 0.115873 2.90766 0.0349118 2.61395 0.00904433C2.32023 -0.0168212 2.02406 0.0129143 1.74239 0.0965496C1.46072 0.180183 1.1991 0.31607 0.972498 0.496433C0.715254 0.695757 0.507431 0.947042 0.363968 1.23222C0.220505 1.5174 0.144964 1.8294 0.142773 2.14579Z" fill="#4CF5E0"/>
</svg>
