<svg width="1304" height="1334" viewBox="0 0 1304 1334" fill="none" xmlns="http://www.w3.org/2000/svg">
<path d="M188.475 800.42C175.889 818.546 157.843 832.174 136.969 839.315C116.094 846.456 93.485 846.737 72.4399 840.117C51.3949 833.496 33.0156 820.321 19.984 802.514C6.95239 784.707 -0.0494385 763.199 0.000244141 741.13C-0.0494385 719.061 6.95239 697.554 19.984 679.746C33.0156 661.939 51.3949 648.764 72.4399 642.143C93.485 635.523 116.094 635.804 136.969 642.945C157.843 650.086 175.889 663.714 188.475 681.84H237.075C237.075 588.754 266.709 503.969 320.051 433.413L240.631 353.964C207.441 359.893 173.658 350.406 148.172 326.097C108.462 285.187 108.462 219.375 148.172 177.871C189.067 138.147 254.856 138.147 296.344 177.871C320.644 203.366 330.127 237.162 324.2 270.364L403.62 349.814C458.147 308.903 522.158 281.63 592.687 271.55V188.544C574.568 175.954 560.946 157.9 553.807 137.019C546.668 116.137 546.388 93.5192 553.006 72.4665C559.624 51.4138 572.794 33.0277 590.595 19.9913C608.395 6.95493 629.895 -0.0494633 651.956 0.000262945C674.017 -0.0494633 695.517 6.95493 713.317 19.9913C731.118 33.0277 744.288 51.4138 750.906 72.4665C757.524 93.5192 757.243 116.137 750.105 137.019C742.966 157.9 729.344 175.954 711.225 188.544V271.55C764.567 279.258 814.352 296.452 859.396 322.54L925.185 228.268C913.924 197.437 916.887 161.863 937.038 133.404C944.851 122.218 954.792 112.685 966.292 105.348C977.793 98.0112 990.627 93.0158 1004.06 90.6477C1017.49 88.2795 1031.26 88.5851 1044.58 91.547C1057.89 94.5089 1070.49 100.069 1081.65 107.909C1128.48 140.518 1140.33 205.145 1107.14 251.984C1086.99 281.037 1054.98 296.452 1022.39 296.452L952.448 396.06C977.934 421.555 998.085 450.014 1015.27 481.438C1033.96 474.136 1054.35 472.377 1074.01 476.373C1093.66 480.369 1111.75 489.95 1126.11 503.969C1165.82 545.472 1165.82 610.691 1126.11 652.195C1108.92 668.203 1088.17 677.689 1066.84 681.84C1066.84 713.857 1062.69 744.688 1056.17 774.333L1133.81 795.084C1158.7 774.333 1193.08 765.439 1227.46 774.333C1254.02 781.566 1276.62 799.06 1290.3 822.966C1303.97 846.872 1307.59 875.232 1300.36 901.807C1293.12 928.382 1275.64 950.995 1251.74 964.671C1227.84 978.348 1199.49 981.968 1172.93 974.734C1139.14 965.248 1113.66 940.346 1102.99 909.515L1013.5 885.206C986.824 932.045 951.263 973.548 909.775 1007.94L974.97 1126.52C1007.57 1131.26 1037.2 1149.64 1054.39 1181.06C1060.85 1193.06 1064.89 1206.2 1066.27 1219.75C1067.65 1233.3 1066.35 1246.99 1062.44 1260.04C1058.53 1273.09 1052.1 1285.24 1043.49 1295.8C1034.89 1306.36 1024.3 1315.12 1012.31 1321.58C1000.32 1328.05 987.182 1332.08 973.636 1333.46C960.09 1334.85 946.405 1333.55 933.361 1329.64C920.318 1325.73 908.171 1319.29 897.616 1310.68C887.061 1302.08 878.303 1291.48 871.843 1279.49C855.248 1248.66 855.84 1213.08 870.658 1184.03L807.24 1067.23C759.232 1086.2 707.076 1096.87 651.956 1096.87H641.288C648.992 1112.29 651.956 1130.07 651.956 1149.05C647.214 1206.56 597.429 1249.25 540.531 1245.1C483.633 1240.95 440.367 1190.55 444.516 1133.63C446.886 1103.99 461.703 1077.9 483.04 1060.71C455.184 1048.25 428.513 1032.25 403.62 1013.87L264.931 1152.61C270.858 1185.81 261.375 1219.6 237.075 1245.1C195.587 1284.82 130.391 1284.82 88.9033 1245.1C47.4152 1205.37 49.1932 1138.38 88.9033 1096.87C114.389 1072.56 148.172 1063.08 181.362 1069.01L320.051 930.266C291.01 891.728 268.488 847.853 254.263 800.42H188.475ZM740.859 681.84C790.052 681.84 829.762 642.115 829.762 592.904C829.762 543.693 790.052 503.969 740.859 503.969C691.666 503.969 651.956 543.693 651.956 592.904C651.956 642.115 691.666 681.84 740.859 681.84ZM533.419 859.711C566.016 859.711 592.687 833.03 592.687 800.42C592.687 767.811 566.016 741.13 533.419 741.13C500.821 741.13 474.15 767.811 474.15 800.42C474.15 833.03 500.821 859.711 533.419 859.711Z" fill="#E3E1FB"/>
</svg>
