<svg width="27" height="27" viewBox="0 0 27 27" fill="none" xmlns="http://www.w3.org/2000/svg">
<path d="M1.49713 0.5C1.19732 0.5 0.909794 0.619099 0.697796 0.831097C0.485798 1.04309 0.366699 1.33062 0.366699 1.63043C0.366699 1.93024 0.485798 2.21777 0.697796 2.42977C0.909794 2.64177 1.19732 2.76087 1.49713 2.76087H2.05331C2.29877 2.76129 2.53743 2.84161 2.73321 2.98967C2.929 3.13773 3.07127 3.34549 3.13853 3.58156L6.72426 16.1294C6.92707 16.8375 7.35491 17.4603 7.9431 17.9037C8.53129 18.3471 9.24785 18.5869 9.98444 18.587H20.3144C20.9923 18.5871 21.6547 18.384 22.216 18.004C22.7774 17.624 23.212 17.0844 23.4637 16.455L26.7963 8.12139C26.9333 7.77848 26.9842 7.40722 26.9446 7.04009C26.905 6.67295 26.776 6.3211 26.569 6.0153C26.362 5.7095 26.0833 5.45905 25.7572 5.28585C25.431 5.11265 25.0674 5.02197 24.6982 5.02174H5.90131L5.31122 2.95983C5.10893 2.25166 4.6816 1.62859 4.09383 1.18481C3.50606 0.741024 2.7898 0.500643 2.05331 0.5H1.49713ZM8.89922 15.5054L6.54792 7.28261H24.6959L21.3634 15.6162C21.2794 15.8257 21.1346 16.0053 20.9476 16.1319C20.7607 16.2584 20.5401 16.326 20.3144 16.3261H9.98444C9.73897 16.3257 9.50032 16.2453 9.30453 16.0973C9.10875 15.9492 8.96648 15.7415 8.89922 15.5054Z" fill="#E3E1FB"/>
<path d="M10.5406 26.5C10.9859 26.5 11.4269 26.4123 11.8384 26.2419C12.2498 26.0714 12.6237 25.8216 12.9386 25.5067C13.2535 25.1918 13.5033 24.8179 13.6738 24.4065C13.8442 23.995 13.9319 23.554 13.9319 23.1087C13.9319 22.6633 13.8442 22.2224 13.6738 21.8109C13.5033 21.3994 13.2535 21.0256 12.9386 20.7107C12.6237 20.3958 12.2498 20.146 11.8384 19.9755C11.4269 19.8051 10.9859 19.7174 10.5406 19.7174C9.64117 19.7174 8.77857 20.0747 8.14258 20.7107C7.50659 21.3467 7.14929 22.2093 7.14929 23.1087C7.14929 24.0081 7.50659 24.8707 8.14258 25.5067C8.77857 26.1427 9.64117 26.5 10.5406 26.5ZM10.5406 24.2391C10.2408 24.2391 9.95326 24.12 9.74126 23.908C9.52926 23.696 9.41016 23.4085 9.41016 23.1087C9.41016 22.8089 9.52926 22.5214 9.74126 22.3094C9.95326 22.0974 10.2408 21.9783 10.5406 21.9783C10.8404 21.9783 11.1279 22.0974 11.3399 22.3094C11.5519 22.5214 11.671 22.8089 11.671 23.1087C11.671 23.4085 11.5519 23.696 11.3399 23.908C11.1279 24.12 10.8404 24.2391 10.5406 24.2391Z" fill="#E3E1FB"/>
<path d="M19.5841 26.5C20.0295 26.5 20.4705 26.4123 20.8819 26.2419C21.2934 26.0714 21.6672 25.8216 21.9821 25.5067C22.297 25.1918 22.5468 24.8179 22.7173 24.4065C22.8877 23.995 22.9754 23.554 22.9754 23.1087C22.9754 22.6633 22.8877 22.2224 22.7173 21.8109C22.5468 21.3994 22.297 21.0256 21.9821 20.7107C21.6672 20.3958 21.2934 20.146 20.8819 19.9755C20.4705 19.8051 20.0295 19.7174 19.5841 19.7174C18.6847 19.7174 17.8221 20.0747 17.1861 20.7107C16.5501 21.3467 16.1928 22.2093 16.1928 23.1087C16.1928 24.0081 16.5501 24.8707 17.1861 25.5067C17.8221 26.1427 18.6847 26.5 19.5841 26.5ZM19.5841 24.2391C19.2843 24.2391 18.9968 24.12 18.7848 23.908C18.5728 23.696 18.4537 23.4085 18.4537 23.1087C18.4537 22.8089 18.5728 22.5214 18.7848 22.3094C18.9968 22.0974 19.2843 21.9783 19.5841 21.9783C19.8839 21.9783 20.1715 22.0974 20.3835 22.3094C20.5955 22.5214 20.7145 22.8089 20.7145 23.1087C20.7145 23.4085 20.5955 23.696 20.3835 23.908C20.1715 24.12 19.8839 24.2391 19.5841 24.2391Z" fill="#E3E1FB"/>
</svg>
