<svg width="24" height="22" viewBox="0 0 24 22" fill="none" xmlns="http://www.w3.org/2000/svg">
<path d="M1.69175 0.276855C1.43734 0.276855 1.19335 0.375098 1.01345 0.549972C0.833549 0.724845 0.732483 0.962024 0.732483 1.20933C0.732483 1.45664 0.833549 1.69382 1.01345 1.86869C1.19335 2.04357 1.43734 2.14181 1.69175 2.14181H2.16372C2.37202 2.14216 2.57454 2.20841 2.74068 2.33054C2.90681 2.45267 3.02754 2.62405 3.08462 2.81879L6.12743 13.1693C6.29953 13.7534 6.66259 14.2672 7.16172 14.6329C7.66085 14.9986 8.26891 15.1965 8.89397 15.1965H17.6598C18.2351 15.1966 18.7972 15.0291 19.2735 14.7156C19.7499 14.4021 20.1187 13.957 20.3323 13.4378L23.1603 6.56361C23.2765 6.28075 23.3197 5.97451 23.2861 5.67166C23.2525 5.36882 23.1431 5.07858 22.9674 4.82633C22.7918 4.57408 22.5552 4.36749 22.2785 4.22462C22.0017 4.08175 21.6932 4.00695 21.3798 4.00676H5.42908L4.92834 2.30592C4.75668 1.72177 4.39405 1.20781 3.89528 0.841743C3.39651 0.475672 2.78869 0.277386 2.16372 0.276855H1.69175ZM7.97307 12.6545L5.97778 5.87171H21.3779L18.55 12.7459C18.4787 12.9188 18.3559 13.0669 18.1972 13.1713C18.0385 13.2757 17.8514 13.3315 17.6598 13.3315H8.89397C8.68567 13.3312 8.48315 13.2649 8.31701 13.1428C8.15087 13.0207 8.03014 12.8493 7.97307 12.6545Z" fill="white"/>
<path d="M9.36604 21.7238C9.74396 21.7238 10.1182 21.6514 10.4673 21.5108C10.8165 21.3702 11.1337 21.1642 11.401 20.9044C11.6682 20.6447 11.8802 20.3363 12.0248 19.9969C12.1694 19.6575 12.2439 19.2937 12.2439 18.9263C12.2439 18.559 12.1694 18.1952 12.0248 17.8558C11.8802 17.5164 11.6682 17.208 11.401 16.9483C11.1337 16.6885 10.8165 16.4824 10.4673 16.3418C10.1182 16.2013 9.74396 16.1289 9.36604 16.1289C8.60279 16.1289 7.87081 16.4236 7.33111 16.9483C6.79142 17.4729 6.48822 18.1844 6.48822 18.9263C6.48822 19.6683 6.79142 20.3798 7.33111 20.9044C7.87081 21.429 8.60279 21.7238 9.36604 21.7238ZM9.36604 19.8588C9.11162 19.8588 8.86763 19.7606 8.68773 19.5857C8.50783 19.4108 8.40676 19.1736 8.40676 18.9263C8.40676 18.679 8.50783 18.4418 8.68773 18.267C8.86763 18.0921 9.11162 17.9939 9.36604 17.9939C9.62045 17.9939 9.86444 18.0921 10.0443 18.267C10.2242 18.4418 10.3253 18.679 10.3253 18.9263C10.3253 19.1736 10.2242 19.4108 10.0443 19.5857C9.86444 19.7606 9.62045 19.8588 9.36604 19.8588Z" fill="white"/>
<path d="M17.0399 21.7238C17.4178 21.7238 17.7921 21.6514 18.1412 21.5108C18.4904 21.3702 18.8076 21.1642 19.0748 20.9044C19.3421 20.6447 19.5541 20.3363 19.6987 19.9969C19.8433 19.6575 19.9177 19.2937 19.9177 18.9263C19.9177 18.559 19.8433 18.1952 19.6987 17.8558C19.5541 17.5164 19.3421 17.208 19.0748 16.9483C18.8076 16.6885 18.4904 16.4824 18.1412 16.3418C17.7921 16.2013 17.4178 16.1289 17.0399 16.1289C16.2767 16.1289 15.5447 16.4236 15.005 16.9483C14.4653 17.4729 14.1621 18.1844 14.1621 18.9263C14.1621 19.6683 14.4653 20.3798 15.005 20.9044C15.5447 21.429 16.2767 21.7238 17.0399 21.7238ZM17.0399 19.8588C16.7855 19.8588 16.5415 19.7606 16.3616 19.5857C16.1817 19.4108 16.0807 19.1736 16.0807 18.9263C16.0807 18.679 16.1817 18.4418 16.3616 18.267C16.5415 18.0921 16.7855 17.9939 17.0399 17.9939C17.2943 17.9939 17.5383 18.0921 17.7182 18.267C17.8981 18.4418 17.9992 18.679 17.9992 18.9263C17.9992 19.1736 17.8981 19.4108 17.7182 19.5857C17.5383 19.7606 17.2943 19.8588 17.0399 19.8588Z" fill="white"/>
</svg>
