<svg width="26" height="26" viewBox="0 0 26 26" fill="none" xmlns="http://www.w3.org/2000/svg">
<path d="M1.3194 0.851074C1.03117 0.851074 0.754735 0.962378 0.550921 1.1605C0.347107 1.35862 0.232605 1.62733 0.232605 1.90751C0.232605 2.1877 0.347107 2.45641 0.550921 2.65453C0.754735 2.85265 1.03117 2.96395 1.3194 2.96395H1.85411C2.0901 2.96435 2.31954 3.03941 2.50777 3.17778C2.69599 3.31615 2.83277 3.51031 2.89743 3.73093L6.34475 15.4574C6.53973 16.1192 6.95106 16.7012 7.51654 17.1156C8.08203 17.53 8.77093 17.7541 9.47908 17.7541H19.4102C20.062 17.7542 20.6988 17.5645 21.2385 17.2093C21.7782 16.8541 22.196 16.3499 22.4381 15.7617L25.6419 7.97359C25.7736 7.65312 25.8226 7.30617 25.7845 6.96307C25.7464 6.61996 25.6225 6.29114 25.4235 6.00536C25.2245 5.71957 24.9565 5.48552 24.6429 5.32366C24.3294 5.1618 23.9799 5.07705 23.6248 5.07683H5.55357L4.98626 3.14989C4.79178 2.48808 4.38095 1.90579 3.81586 1.49106C3.25078 1.07632 2.56217 0.851675 1.85411 0.851074H1.3194ZM8.43575 14.8743L6.17521 7.18971H23.6227L20.4188 14.9778C20.338 15.1736 20.1988 15.3415 20.0191 15.4597C19.8393 15.578 19.6273 15.6412 19.4102 15.6412H9.47908C9.24309 15.6408 9.01364 15.5658 8.82542 15.4274C8.63719 15.289 8.50041 15.0949 8.43575 14.8743V14.8743Z" fill="#460BD9"/>
<path d="M10.0134 25.1492C10.4416 25.1492 10.8656 25.0672 11.2611 24.9079C11.6567 24.7487 12.0161 24.5152 12.3189 24.2209C12.6216 23.9266 12.8618 23.5772 13.0257 23.1927C13.1895 22.8082 13.2738 22.3961 13.2738 21.9799C13.2738 21.5637 13.1895 21.1515 13.0257 20.767C12.8618 20.3825 12.6216 20.0331 12.3189 19.7388C12.0161 19.4445 11.6567 19.2111 11.2611 19.0518C10.8656 18.8925 10.4416 18.8105 10.0134 18.8105C9.14873 18.8105 8.31944 19.1445 7.708 19.7388C7.09656 20.3332 6.75305 21.1393 6.75305 21.9799C6.75305 22.8204 7.09656 23.6266 7.708 24.2209C8.31944 24.8153 9.14873 25.1492 10.0134 25.1492V25.1492ZM10.0134 23.0363C9.72521 23.0363 9.44878 22.925 9.24496 22.7269C9.04115 22.5288 8.92665 22.2601 8.92665 21.9799C8.92665 21.6997 9.04115 21.431 9.24496 21.2328C9.44878 21.0347 9.72521 20.9234 10.0134 20.9234C10.3017 20.9234 10.5781 21.0347 10.7819 21.2328C10.9857 21.431 11.1002 21.6997 11.1002 21.9799C11.1002 22.2601 10.9857 22.5288 10.7819 22.7269C10.5781 22.925 10.3017 23.0363 10.0134 23.0363Z" fill="#460BD9"/>
<path d="M18.708 25.1492C19.1362 25.1492 19.5602 25.0672 19.9557 24.9079C20.3513 24.7487 20.7107 24.5152 21.0135 24.2209C21.3162 23.9266 21.5564 23.5772 21.7202 23.1927C21.8841 22.8082 21.9684 22.3961 21.9684 21.9799C21.9684 21.5637 21.8841 21.1515 21.7202 20.767C21.5564 20.3825 21.3162 20.0331 21.0135 19.7388C20.7107 19.4445 20.3513 19.2111 19.9557 19.0518C19.5602 18.8925 19.1362 18.8105 18.708 18.8105C17.8433 18.8105 17.014 19.1445 16.4026 19.7388C15.7911 20.3332 15.4476 21.1393 15.4476 21.9799C15.4476 22.8204 15.7911 23.6266 16.4026 24.2209C17.014 24.8153 17.8433 25.1492 18.708 25.1492V25.1492ZM18.708 23.0363C18.4198 23.0363 18.1434 22.925 17.9395 22.7269C17.7357 22.5288 17.6212 22.2601 17.6212 21.9799C17.6212 21.6997 17.7357 21.431 17.9395 21.2328C18.1434 21.0347 18.4198 20.9234 18.708 20.9234C18.9963 20.9234 19.2727 21.0347 19.4765 21.2328C19.6803 21.431 19.7948 21.6997 19.7948 21.9799C19.7948 22.2601 19.6803 22.5288 19.4765 22.7269C19.2727 22.925 18.9963 23.0363 18.708 23.0363Z" fill="#460BD9"/>
<path d="M17.8685 8.4656C18.0024 8.33813 18.1806 8.26766 18.3654 8.26906C18.5503 8.27046 18.7274 8.34362 18.8593 8.4731C18.9913 8.60258 19.0677 8.77826 19.0726 8.96306C19.0775 9.14786 19.0104 9.32733 18.8855 9.4636L15.0931 14.2065C15.0279 14.2767 14.9492 14.3331 14.8617 14.3722C14.7742 14.4113 14.6797 14.4324 14.5839 14.4342C14.4881 14.4359 14.3929 14.4184 14.304 14.3825C14.2151 14.3467 14.1344 14.2932 14.0666 14.2255L11.5517 11.7105C11.4816 11.6453 11.4254 11.5666 11.3865 11.4791C11.3475 11.3917 11.3266 11.2973 11.3249 11.2016C11.3232 11.1058 11.3408 11.0108 11.3767 10.922C11.4125 10.8332 11.4659 10.7526 11.5336 10.6849C11.6013 10.6172 11.6819 10.5639 11.7706 10.528C11.8594 10.4922 11.9545 10.4746 12.0502 10.4762C12.1459 10.4779 12.2403 10.4989 12.3278 10.5378C12.4152 10.5768 12.4939 10.633 12.5592 10.703L14.5494 12.6924L17.8504 8.48651C17.8564 8.4792 17.8627 8.47222 17.8695 8.4656H17.8685Z" fill="#460BD9"/>
</svg>
