<?xml version="1.0" encoding="utf-8"?>
<!-- Generator: Adobe Illustrator 22.0.1, SVG Export Plug-In . SVG Version: 6.00 Build 0)  -->
<svg height="22px" width="22px" version="1.1" id="Слой_1" xmlns="http://www.w3.org/2000/svg" xmlns:xlink="http://www.w3.org/1999/xlink" x="0px" y="0px"
	 viewBox="0 0 40 40" style="enable-background:new 0 0 40 40;" xml:space="preserve">
<style type="text/css">
	.st0{fill:url(#SVGID_1_);}
</style>
<linearGradient id="SVGID_1_" gradientUnits="userSpaceOnUse" x1="0" y1="22" x2="40" y2="22" gradientTransform="matrix(1 0 0 -1 0 42)">
	<stop  offset="0" style="stop-color:#C038F5"/>
	<stop  offset="1" style="stop-color:#3496FE"/>
</linearGradient>
<path class="st0" d="M20,0C9,0,0,9,0,20c0,11,9,20,20,20c11,0,20-9,20-20C40,9,31,0,20,0z M24.7,13.8h-3c-0.4,0-0.8,0.5-0.8,1.1v2.2
	h3.8l-0.6,3.1H21v9.3h-3.5v-9.3h-3.2v-3.1h3.2v-1.8c0-2.6,1.8-4.7,4.3-4.7h3V13.8z"/>
</svg>
