<svg width="180" height="180" viewBox="0 0 180 180" fill="none" xmlns="http://www.w3.org/2000/svg">
<path d="M0 8L180 38.6707V172.088L0 142.951V8Z" fill="url(#paint0_linear_701_18586)"/>
<path d="M52.8119 122.896C52.2359 122.896 51.7559 122.704 51.3719 122.32C51.0519 121.872 50.8919 121.36 50.8919 120.784L51.0839 119.92L74.9879 64.048H43.4999C42.8599 64.048 42.3159 63.856 41.8679 63.472C41.4839 63.024 41.2919 62.48 41.2919 61.84V58C41.2919 57.296 41.4839 56.752 41.8679 56.368C42.3159 55.92 42.8599 55.696 43.4999 55.696H82.8599C83.5639 55.696 84.1079 55.92 84.4919 56.368C84.9399 56.752 85.1639 57.296 85.1639 58V61.552C85.1639 62.704 84.9079 63.952 84.3959 65.296L60.7799 120.496C60.4599 121.2 60.0759 121.776 59.6279 122.224C59.2439 122.672 58.6999 122.896 57.9959 122.896H52.8119ZM104.911 122.896C104.335 122.896 103.855 122.704 103.471 122.32C103.151 121.872 102.991 121.36 102.991 120.784L103.183 119.92L127.087 64.048H95.5986C94.9586 64.048 94.4146 63.856 93.9666 63.472C93.5826 63.024 93.3906 62.48 93.3906 61.84V58C93.3906 57.296 93.5826 56.752 93.9666 56.368C94.4146 55.92 94.9586 55.696 95.5986 55.696H134.959C135.663 55.696 136.207 55.92 136.591 56.368C137.039 56.752 137.263 57.296 137.263 58V61.552C137.263 62.704 137.007 63.952 136.495 65.296L112.879 120.496C112.559 121.2 112.175 121.776 111.727 122.224C111.343 122.672 110.799 122.896 110.095 122.896H104.911Z" fill="white"/>
<defs>
<linearGradient id="paint0_linear_701_18586" x1="8.3819e-08" y1="90.0442" x2="180" y2="90.0442" gradientUnits="userSpaceOnUse">
<stop stop-color="#C038F5"/>
<stop offset="1" stop-color="#3496FE"/>
</linearGradient>
</defs>
</svg>
