<?xml version="1.0" encoding="utf-8"?>
<!-- Generator: Adobe Illustrator 22.0.1, SVG Export Plug-In . SVG Version: 6.00 Build 0)  -->
<svg version="1.1" id="Слой_1" xmlns="http://www.w3.org/2000/svg" xmlns:xlink="http://www.w3.org/1999/xlink" x="0px" y="0px"
	 viewBox="0 0 141 93" style="enable-background:new 0 0 141 93;" xml:space="preserve">
<style type="text/css">
	.st0{fill:url(#SVGID_1_);}
	.st1{fill:url(#SVGID_2_);}
	.st2{fill:url(#SVGID_3_);}
</style>
<linearGradient id="SVGID_1_" gradientUnits="userSpaceOnUse" x1="101" y1="18" x2="141" y2="18" gradientTransform="matrix(1 0 0 -1 0 94)">
	<stop  offset="0" style="stop-color:#07F1D3"/>
	<stop  offset="0.5729" style="stop-color:#3A65F1"/>
	<stop  offset="0.9844" style="stop-color:#B93DF6"/>
</linearGradient>
<path class="st0" d="M138.1,59h-34.3c-0.8,0-1.5,0.3-2,0.8c-0.5,0.5-0.8,1.2-0.8,1.8v20.9c0,0.7,0.3,1.4,0.8,1.8
	c0.5,0.5,1.3,0.8,2,0.8h11.4v5.2h-5.7V93h22.9v-2.6h-5.7v-5.2h11.4c0.8,0,1.5-0.3,2-0.8c0.5-0.5,0.8-1.2,0.8-1.8V61.6
	c0-0.7-0.3-1.4-0.8-1.8C139.6,59.3,138.9,59,138.1,59L138.1,59z M123.9,90.4h-5.7v-5.2h5.7V90.4z M138.1,82.5h-34.3V61.6h34.3V82.5z
	"/>
<linearGradient id="SVGID_2_" gradientUnits="userSpaceOnUse" x1="0" y1="18" x2="40" y2="18" gradientTransform="matrix(1 0 0 -1 0 94)">
	<stop  offset="0" style="stop-color:#07F1D3"/>
	<stop  offset="0.5729" style="stop-color:#3A65F1"/>
	<stop  offset="0.9844" style="stop-color:#B93DF6"/>
</linearGradient>
<path class="st1" d="M10.5,59C9.2,59,8,59.4,7,60.1c-1,0.7-1.7,1.7-2.1,2.8l-1.2,4c0.2,0,0.4,0,0.6,0H10c0.9,0,1.9,0.2,2.7,0.5
	c0.9,0.3,1.7,0.8,2.3,1.4c0.7,0.6,1.2,1.3,1.6,2.1c0.4,0.8,0.5,1.6,0.5,2.5v11.8h16.9c0.9,0,1.8-0.2,2.6-0.6
	c0.8-0.4,1.5-0.9,2.1-1.6c0.6-0.7,0.9-1.4,1.1-2.3c0.2-0.8,0.1-1.7-0.1-2.5L35,62.8c-0.3-1.1-1.1-2.1-2-2.8c-1-0.7-2.2-1.1-3.4-1.1
	H10.5z M17,90.4c0.1-0.4,0.1-0.9,0.1-1.3v-1.3H30c0.4,0,0.7,0.1,1,0.4c0.3,0.2,0.4,0.6,0.4,0.9c0,0.3-0.2,0.7-0.4,0.9
	c-0.3,0.2-0.6,0.4-1,0.4H17z M7.1,78.6c0.6,0,1.1-0.2,1.5-0.6c0.4-0.4,0.6-0.9,0.6-1.4c0-0.5-0.2-1-0.6-1.4
	c-0.4-0.4-0.9-0.6-1.5-0.6S6,74.9,5.6,75.3C5.2,75.6,5,76.1,5,76.7c0,0.5,0.2,1,0.6,1.4C6,78.4,6.6,78.6,7.1,78.6L7.1,78.6z M0,73.4
	c0-1,0.5-2,1.3-2.8c0.8-0.7,1.9-1.1,3-1.1H10c1.1,0,2.2,0.4,3,1.1c0.8,0.7,1.3,1.7,1.3,2.8v15.7c0,1-0.5,2-1.3,2.8
	c-0.8,0.7-1.9,1.1-3,1.1H4.3c-0.6,0-1.1-0.1-1.6-0.3c-0.5-0.2-1-0.5-1.4-0.9c-0.4-0.4-0.7-0.8-0.9-1.3c-0.2-0.5-0.3-1-0.3-1.5V73.4z
	 M4.3,72.1c-0.4,0-0.7,0.1-1,0.4C3,72.7,2.9,73,2.9,73.4v15.7c0,0.3,0.2,0.7,0.4,0.9c0.3,0.2,0.6,0.4,1,0.4H10c0.4,0,0.7-0.1,1-0.4
	c0.3-0.2,0.4-0.6,0.4-0.9V73.4c0-0.3-0.2-0.7-0.4-0.9c-0.3-0.2-0.6-0.4-1-0.4H4.3L4.3,72.1z"/>
<g>
	
		<linearGradient id="SVGID_3_" gradientUnits="userSpaceOnUse" x1="24" y1="56" x2="116" y2="56" gradientTransform="matrix(1 0 0 -1 0 94)">
		<stop  offset="0" style="stop-color:#C038F5"/>
		<stop  offset="1" style="stop-color:#3496FE"/>
	</linearGradient>
	<path class="st2" d="M60.7,38.8c0.9,0.9,2.4,0.9,3.3,0l1.6-1.7c0.9-0.9,0.9-2.4,0-3.4l-5.1-5.3l5.1-5.3c0.9-0.9,0.9-2.4,0-3.4
		l-1.6-1.7c-0.9-0.9-2.4-0.9-3.3,0l-8.4,8.7c-0.9,0.9-0.9,2.4,0,3.4L60.7,38.8z M74.5,37.2l1.6,1.7c0.9,0.9,2.4,0.9,3.3,0l8.4-8.7
		c0.9-0.9,0.9-2.4,0-3.4l-8.4-8.7c-0.9-0.9-2.4-0.9-3.3,0l-1.6,1.7c-0.9,0.9-0.9,2.4,0,3.4l5.1,5.3l-5.1,5.3
		C73.6,34.7,73.6,36.2,74.5,37.2z M113.7,61.8H78.8c-0.1,2.9-2.1,4.8-4.7,4.8h-8.7c-2.7,0-4.7-2.6-4.7-4.8H26.3
		c-1.3,0-2.3,1.1-2.3,2.4v2.4c0,5.2,4.1,9.5,9.2,9.5h73.6c5.1,0,9.2-4.3,9.2-9.5v-2.4C116,62.8,115,61.8,113.7,61.8z M106.8,7.1
		c0-3.9-3.1-7.1-6.9-7.1H40.1c-3.8,0-6.9,3.2-6.9,7.1V57h73.6V7.1z M97.6,47.5H42.4v-38h55.2V47.5z"/>
</g>
</svg>
