<?xml version="1.0" encoding="utf-8"?>
<!-- Generator: Adobe Illustrator 22.0.1, SVG Export Plug-In . SVG Version: 6.00 Build 0)  -->
<svg version="1.1" id="Слой_1" xmlns="http://www.w3.org/2000/svg" xmlns:xlink="http://www.w3.org/1999/xlink" x="0px" y="0px"
	 viewBox="0 0 106 73" style="enable-background:new 0 0 106 73;" xml:space="preserve">
<style type="text/css">
	.st0{opacity:0.9;fill:url(#SVGID_1_);enable-background:new    ;}
	.st1{opacity:0.9;fill:url(#SVGID_2_);enable-background:new    ;}
	.st2{fill:url(#SVGID_3_);}
</style>
<linearGradient id="SVGID_1_" gradientUnits="userSpaceOnUse" x1="0.75" y1="14.6602" x2="30.467" y2="14.6602" gradientTransform="matrix(1 0 0 -1 0 74)">
	<stop  offset="0" style="stop-color:#07F1D3"/>
	<stop  offset="0.5729" style="stop-color:#3A65F1"/>
	<stop  offset="0.9844" style="stop-color:#B93DF6"/>
</linearGradient>
<path class="st0" d="M30.5,69.7V49c0-1.6-1.5-3-3.3-3H4.1c-1.8,0-3.3,1.3-3.3,3v20.7c0,1.6,1.5,3,3.3,3h23.1
	C29,72.6,30.5,71.3,30.5,69.7z M9.8,61.6L14,66l5.8-6.7l7.4,8.9H4.1L9.8,61.6z"/>
<linearGradient id="SVGID_2_" gradientUnits="userSpaceOnUse" x1="75.5312" y1="14.6602" x2="105.248" y2="14.6602" gradientTransform="matrix(1 0 0 -1 0 74)">
	<stop  offset="0" style="stop-color:#07F1D3"/>
	<stop  offset="0.5729" style="stop-color:#3A65F1"/>
	<stop  offset="0.9844" style="stop-color:#B93DF6"/>
</linearGradient>
<path class="st1" d="M102.5,46H78.2c-1.5,0-2.7,1.3-2.7,3v20.7c0,1.6,1.2,3,2.7,3h24.3c1.5,0,2.7-1.3,2.7-3V49
	C105.2,47.4,104,46,102.5,46z M102.5,69.7H78.2V49h24.3V69.7z M85,63.8c0-2.5,1.8-4.4,4.1-4.4c0.5,0,0.9,0.1,1.4,0.3v-9.1h6.8v3
	h-4.1v10.4c0,2.4-1.8,4.4-4.1,4.4C86.8,68.2,85,66.2,85,63.8z"/>
<g>
	
		<linearGradient id="SVGID_3_" gradientUnits="userSpaceOnUse" x1="18.5801" y1="44.283" x2="86.9292" y2="44.283" gradientTransform="matrix(1 0 0 -1 0 74)">
		<stop  offset="0" style="stop-color:#07F1D3"/>
		<stop  offset="0.5729" style="stop-color:#3A65F1"/>
		<stop  offset="0.9844" style="stop-color:#B93DF6"/>
	</linearGradient>
	<path class="st2" d="M25.4,11.9h-6.8v41.6c0,3.3,3.1,5.9,6.8,5.9h47.8v-5.9H25.4V11.9z M80.1,0h-41c-3.8,0-6.8,2.7-6.8,5.9v35.7
		c0,3.3,3.1,5.9,6.8,5.9h41c3.8,0,6.8-2.7,6.8-5.9V5.9C86.9,2.7,83.9,0,80.1,0z M52.8,37.1V10.4l20.5,13.4L52.8,37.1z"/>
</g>
</svg>
