<?xml version="1.0" encoding="utf-8"?>
<!-- Generator: Adobe Illustrator 22.0.1, SVG Export Plug-In . SVG Version: 6.00 Build 0)  -->
<svg version="1.1" id="Слой_1" xmlns="http://www.w3.org/2000/svg" xmlns:xlink="http://www.w3.org/1999/xlink" x="0px" y="0px"
	 viewBox="0 0 141 93" style="enable-background:new 0 0 141 93;" xml:space="preserve">
<style type="text/css">
	.st0{fill:url(#SVGID_1_);}
	.st1{opacity:0.9;}
	.st2{fill:url(#SVGID_2_);}
	.st3{fill:url(#SVGID_3_);}
	.st4{fill:url(#SVGID_4_);}
	.st5{fill:url(#SVGID_5_);}
	.st6{fill:url(#SVGID_6_);}
</style>
<linearGradient id="SVGID_1_" gradientUnits="userSpaceOnUse" x1="0" y1="18.0298" x2="40" y2="18.0298" gradientTransform="matrix(1 0 0 -1 0 94)">
	<stop  offset="0" style="stop-color:#07F1D3"/>
	<stop  offset="0.5729" style="stop-color:#3A65F1"/>
	<stop  offset="0.9844" style="stop-color:#B93DF6"/>
</linearGradient>
<path class="st0" d="M5.7,87.3h28.6V64.6H5.7V87.3z M11.4,70.3h17.1v11.3H11.4V70.3z M2.9,70.3H0v-9.9L1.4,59h10v2.8H2.9V70.3z
	 M40,60.4v9.9h-2.9v-8.5h-8.6V59h10L40,60.4z M37.1,81.6H40v9.9L38.6,93h-10v-2.8h8.6V81.6z M2.9,90.1h8.6V93h-10L0,91.6v-9.9h2.9
	V90.1z"/>
<g class="st1">
	
		<linearGradient id="SVGID_2_" gradientUnits="userSpaceOnUse" x1="100.66" y1="8.4211" x2="140.66" y2="8.4211" gradientTransform="matrix(1 0 0 -1 0 94)">
		<stop  offset="0" style="stop-color:#07F1D3"/>
		<stop  offset="0.5729" style="stop-color:#3A65F1"/>
		<stop  offset="0.9844" style="stop-color:#B93DF6"/>
	</linearGradient>
	<path class="st2" d="M137.8,78.2h-15.7c-1.6,0-2.9,1.3-2.9,3V90c0,1.6,1.3,3,2.9,3h15.7c1.6,0,2.9-1.3,2.9-3v-8.9
		C140.7,79.5,139.4,78.2,137.8,78.2z"/>
	
		<linearGradient id="SVGID_3_" gradientUnits="userSpaceOnUse" x1="100.66" y1="22.9872" x2="140.66" y2="22.9872" gradientTransform="matrix(1 0 0 -1 0 94)">
		<stop  offset="0" style="stop-color:#07F1D3"/>
		<stop  offset="0.5729" style="stop-color:#3A65F1"/>
		<stop  offset="0.9844" style="stop-color:#B93DF6"/>
	</linearGradient>
	<path class="st3" d="M114.9,66.4v5.3l-6.1-6.3l-2,2.1l6.1,6.3h-5.1v3h10V66.4H114.9z"/>
	
		<linearGradient id="SVGID_4_" gradientUnits="userSpaceOnUse" x1="100.66" y1="22.4646" x2="140.66" y2="22.4646" gradientTransform="matrix(1 0 0 -1 0 94)">
		<stop  offset="0" style="stop-color:#07F1D3"/>
		<stop  offset="0.5729" style="stop-color:#3A65F1"/>
		<stop  offset="0.9844" style="stop-color:#B93DF6"/>
	</linearGradient>
	<path class="st4" d="M116.4,84.1h-12.9c-0.8,0-1.5-0.3-2-0.9c-0.5-0.6-0.8-1.3-0.8-2.1V61.9c0-0.8,0.3-1.5,0.8-2.1
		c0.5-0.6,1.3-0.9,2-0.9h31.4c0.8,0,1.5,0.3,2,0.9c0.5,0.6,0.8,1.3,0.8,2.1v13.3h-2.9V61.9h-31.4v19.2h12.9V84.1z"/>
</g>
<g>
	
		<linearGradient id="SVGID_5_" gradientUnits="userSpaceOnUse" x1="24" y1="62.2537" x2="116" y2="62.2537" gradientTransform="matrix(1 0 0 -1 0 94)">
		<stop  offset="0" style="stop-color:#C038F5"/>
		<stop  offset="1" style="stop-color:#3496FE"/>
	</linearGradient>
	<path class="st5" d="M48.3,44.6c0.3,0.3,0.9,0.3,1.2,0l11-9l9.3,7.6c0.3,0.3,0.9,0.3,1.2,0l24.6-20.1c0.3-0.3,0.3-0.7,0-1l-4-3.3
		c-0.3-0.3-0.9-0.3-1.2,0L70.5,35.2l-9.3-7.6c-0.3-0.3-0.9-0.3-1.2,0L44.3,40.3c-0.3,0.3-0.3,0.7,0,1L48.3,44.6z"/>
	
		<linearGradient id="SVGID_6_" gradientUnits="userSpaceOnUse" x1="24" y1="56" x2="116" y2="56" gradientTransform="matrix(1 0 0 -1 0 94)">
		<stop  offset="0" style="stop-color:#C038F5"/>
		<stop  offset="1" style="stop-color:#3496FE"/>
	</linearGradient>
	<path class="st6" d="M112.5,6.4H73.9V0.7C73.9,0.3,73.5,0,73,0H67c-0.5,0-0.9,0.3-0.9,0.7v5.7H27.5c-1.9,0-3.5,1.3-3.5,2.8v46.1
		c0,1.6,1.6,2.8,3.5,2.8h38.7v2.8l-17.9,9.6c-0.4,0.2-0.5,0.6-0.2,1l3.3,4.2v0c0.3,0.3,0.8,0.4,1.2,0.2L70,66.5l17.5,9.4
		c0.4,0.2,0.9,0.1,1.2-0.2v0l3.3-4.2c0.3-0.3,0.1-0.8-0.2-1L73.9,61v-2.9h38.6c1.9,0,3.5-1.3,3.5-2.8V9.2
		C116,7.6,114.4,6.4,112.5,6.4z M108.2,51.7H31.8v-39h76.4V51.7z"/>
</g>
</svg>
