<?xml version="1.0" encoding="utf-8"?>
<!-- Generator: Adobe Illustrator 22.0.1, SVG Export Plug-In . SVG Version: 6.00 Build 0)  -->
<svg height="22px" width="22px" version="1.1" id="Слой_1" xmlns="http://www.w3.org/2000/svg" xmlns:xlink="http://www.w3.org/1999/xlink" x="0px" y="0px"
	 viewBox="0 0 22 22" style="enable-background:new 0 0 22 22;" xml:space="preserve">
<style type="text/css">
	.st0{fill:#E3E1FB;}
	.st1{opacity:0.5;fill:#460BD9;enable-background:new    ;}
</style>
<circle class="st0" cx="11" cy="11" r="11"/>
<path class="st1" d="M10.3,6.7c-0.1,0-0.2,0-0.3-0.1C10,6.6,10,6.5,10,6.4V5.6c0-0.1,0-0.2,0.1-0.3c0.1-0.1,0.2-0.1,0.3-0.1h0.9
	c0.1,0,0.2,0,0.3,0.1s0.1,0.2,0.1,0.3v0.8c0,0.1,0,0.2-0.1,0.3c-0.1,0.1-0.2,0.1-0.3,0.1H10.3z M10.5,16c-0.1,0-0.2,0-0.3-0.1
	c-0.1-0.1-0.1-0.2-0.1-0.3V8.5c0-0.1,0-0.2,0.1-0.2c0.1-0.1,0.2-0.1,0.3-0.1h0.7c0.1,0,0.2,0,0.2,0.1c0.1,0.1,0.1,0.1,0.1,0.2v7.1
	c0,0.1,0,0.2-0.1,0.3C11.4,16,11.3,16,11.2,16H10.5z"/>
</svg>
