<?xml version="1.0" encoding="utf-8"?>
<!-- Generator: Adobe Illustrator 22.0.1, SVG Export Plug-In . SVG Version: 6.00 Build 0)  -->
<svg height="22px" width="22px" version="1.1" id="Слой_1" xmlns="http://www.w3.org/2000/svg" xmlns:xlink="http://www.w3.org/1999/xlink" x="0px" y="0px"
	 viewBox="0 0 40 40" style="enable-background:new 0 0 40 40;" xml:space="preserve">
<style type="text/css">
	.st0{fill:url(#SVGID_1_);}
</style>
<linearGradient id="SVGID_1_" gradientUnits="userSpaceOnUse" x1="0" y1="22" x2="40" y2="22" gradientTransform="matrix(1 0 0 -1 0 42)">
	<stop  offset="0" style="stop-color:#C038F5"/>
	<stop  offset="1" style="stop-color:#3496FE"/>
</linearGradient>
<path class="st0" d="M20,40c11,0,20-9,20-20S31,0,20,0S0,9,0,20S9,40,20,40z M16.2,16.2c1-1,2.4-1.6,3.8-1.6s2.8,0.6,3.8,1.6
	c1,1,1.6,2.4,1.6,3.8c0,1.4-0.6,2.8-1.6,3.8c-1,1-2.4,1.6-3.8,1.6s-2.8-0.6-3.8-1.6c-1-1-1.6-2.4-1.6-3.8
	C14.6,18.6,15.2,17.2,16.2,16.2z M17.5,22.4c0.7,0.7,1.5,1,2.5,1s1.8-0.4,2.5-1c0.7-0.7,1-1.5,1-2.5c0-0.9-0.4-1.8-1-2.5
	c-0.7-0.7-1.5-1-2.5-1s-1.8,0.4-2.5,1c-0.7,0.7-1,1.5-1,2.5C16.5,20.9,16.9,21.8,17.5,22.4z M25.6,15.7c0.7,0,1.2-0.6,1.2-1.2
	c0-0.7-0.6-1.2-1.2-1.2s-1.2,0.6-1.2,1.2C24.3,15.1,24.9,15.7,25.6,15.7z M28.7,11.3c0.5,0.5,0.9,1.2,1.2,1.8
	c0.3,0.8,0.5,1.7,0.5,2.6c0.1,1.1,0.1,1.5,0.1,4.3s0,3.2-0.1,4.3c0,0.9-0.2,1.7-0.5,2.5c-0.3,0.7-0.7,1.3-1.2,1.8
	c-0.5,0.5-1.2,0.9-1.8,1.2c-0.8,0.3-1.7,0.5-2.5,0.5c-1.1,0.1-1.5,0.1-4.3,0.1c-2.8,0-3.2,0-4.3-0.1c-0.9,0-1.7-0.2-2.5-0.5
	c-0.7-0.3-1.3-0.7-1.8-1.2c-0.5-0.5-0.9-1.2-1.2-1.8c-0.3-0.8-0.5-1.7-0.5-2.5c-0.1-1.1-0.1-1.5-0.1-4.3c0-2.8,0-3.2,0.1-4.3
	c0-0.9,0.2-1.7,0.5-2.5c0.3-0.7,0.7-1.3,1.2-1.8c0.5-0.5,1.2-0.9,1.8-1.2c0.8-0.3,1.7-0.5,2.5-0.5c1.1-0.1,1.5-0.1,4.3-0.1
	c2.8,0,3.2,0,4.3,0.1c0.9,0,1.7,0.2,2.5,0.5C27.5,10.4,28.1,10.8,28.7,11.3z M28.1,26.2c0.2-0.6,0.4-1.3,0.4-2v0h0
	c0-1.1,0-1.4,0-4.2v0c0-2.8,0-3.1-0.1-4.2c0-0.7-0.1-1.3-0.4-1.9c-0.2-0.5-0.4-0.9-0.8-1.2c-0.3-0.3-0.7-0.6-1.2-0.8
	c-0.6-0.2-1.3-0.4-1.9-0.4c-1.1-0.1-1.4-0.1-4.2-0.1c-2.8,0-3.1,0-4.2,0.1c-0.7,0-1.3,0.1-1.9,0.4c-0.9,0.3-1.6,1.1-2,2
	c-0.2,0.6-0.4,1.3-0.4,2c-0.1,1.1-0.1,1.4-0.1,4.2c0,2.8,0,3.1,0.1,4.2c0,0.7,0.1,1.3,0.4,1.9c0.2,0.5,0.4,0.9,0.8,1.2
	c0.3,0.3,0.8,0.6,1.2,0.8c0.6,0.2,1.3,0.4,1.9,0.4c1.1,0.1,1.4,0.1,4.2,0.1c2.8,0,3.1,0,4.2-0.1c0.7,0,1.3-0.1,1.9-0.4
	c0.5-0.2,0.9-0.4,1.2-0.8C27.7,27,27.9,26.6,28.1,26.2z"/>
</svg>
