<svg width="25" height="18" viewBox="0 0 25 18" fill="none" xmlns="http://www.w3.org/2000/svg">
<path d="M22.833 0H1.83301C1.43518 0 1.05365 0.158035 0.772348 0.43934C0.491043 0.720644 0.333008 1.10218 0.333008 1.5V16.5C0.333008 16.8978 0.491043 17.2794 0.772348 17.5607C1.05365 17.842 1.43518 18 1.83301 18H22.833C23.2308 18 23.6124 17.842 23.8937 17.5607C24.175 17.2794 24.333 16.8978 24.333 16.5V1.5C24.333 1.10218 24.175 0.720644 23.8937 0.43934C23.6124 0.158035 23.2308 0 22.833 0V0ZM21.678 16.5H3.07801L8.32801 11.07L7.24801 10.0275L1.83301 15.63V2.64L11.1555 11.9175C11.4366 12.1969 11.8167 12.3537 12.213 12.3537C12.6093 12.3537 12.9895 12.1969 13.2705 11.9175L22.833 2.4075V15.5325L17.313 10.0125L16.2555 11.07L21.678 16.5ZM2.81551 1.5H21.618L12.213 10.8525L2.81551 1.5Z" fill="#0E0E52"/>
</svg>
