<?xml version="1.0" encoding="utf-8"?>
<!-- Generator: Adobe Illustrator 22.0.1, SVG Export Plug-In . SVG Version: 6.00 Build 0)  -->
<svg version="1.1" id="Слой_1" xmlns="http://www.w3.org/2000/svg" xmlns:xlink="http://www.w3.org/1999/xlink" x="0px" y="0px"
	 viewBox="0 0 32 24" style="enable-background:new 0 0 32 24;" xml:space="preserve">
<style type="text/css">
	.st0{fill:#E3E1FB;}
</style>
<path class="st0" d="M0,4c0-1.1,0.4-2.1,1.2-2.8C1.9,0.4,2.9,0,4,0h24c1.1,0,2.1,0.4,2.8,1.2C31.6,1.9,32,2.9,32,4v16
	c0,1.1-0.4,2.1-1.2,2.8C30.1,23.6,29.1,24,28,24H4c-1.1,0-2.1-0.4-2.8-1.2C0.4,22.1,0,21.1,0,20V4z M4,2C3.5,2,3,2.2,2.6,2.6
	C2.2,3,2,3.5,2,4v0.4l14,8.4l14-8.4V4c0-0.5-0.2-1-0.6-1.4C29,2.2,28.5,2,28,2H4z M30,6.8l-9.5,5.7l9.5,5.8V6.8L30,6.8z M29.9,20.5
	l-11.4-6.9L16,15.2l-2.5-1.5L2.1,20.5c0.1,0.4,0.4,0.8,0.7,1.1C3.1,21.9,3.6,22,4,22h24c0.4,0,0.9-0.1,1.2-0.4
	C29.6,21.3,29.8,20.9,29.9,20.5z M2,18.2l9.5-5.8L2,6.8V18.2L2,18.2z"/>
</svg>
