<?xml version="1.0" encoding="utf-8"?>
<!-- Generator: Adobe Illustrator 22.0.1, SVG Export Plug-In . SVG Version: 6.00 Build 0)  -->
<svg version="1.1" id="Слой_1" xmlns="http://www.w3.org/2000/svg" xmlns:xlink="http://www.w3.org/1999/xlink" x="0px" y="0px"
	 viewBox="0 0 23 28" style="enable-background:new 0 0 23 28;" xml:space="preserve">
<style type="text/css">
	.st0{fill:#E3E1FB;}
</style>
<path class="st0" d="M4.8,0.7l1.6-0.5C7.3-0.1,8.2,0,9.1,0.3c0.8,0.4,1.5,1.1,1.9,1.9l1.3,2.8c0.3,0.7,0.4,1.5,0.3,2.3
	c-0.2,0.8-0.6,1.5-1.1,2l-2.1,1.9c-0.1,0.1-0.1,0.1-0.1,0.2c-0.1,0.6,0.3,1.6,1.2,3.1c0.6,1.1,1.2,1.9,1.7,2.3
	c0.3,0.3,0.5,0.4,0.6,0.3l2.8-0.9c0.8-0.2,1.6-0.2,2.3,0c0.8,0.3,1.4,0.7,1.9,1.4l1.8,2.5c0.5,0.8,0.8,1.7,0.7,2.6
	c-0.1,0.9-0.5,1.8-1.2,2.4l-1.2,1.2c-0.7,0.6-1.5,1.1-2.3,1.3c-0.9,0.2-1.8,0.2-2.7,0c-3.8-1.1-7.3-4.3-10.4-9.6
	C1.3,12.8,0.2,8.2,1.2,4.3C1.4,3.5,1.9,2.7,2.5,2S3.9,0.9,4.8,0.7z M5.4,2.7C4.8,2.8,4.4,3.1,4,3.5S3.4,4.3,3.2,4.9
	c-0.8,3.2,0.1,7.3,3,12.2c2.8,4.9,5.9,7.8,9.1,8.7c0.5,0.1,1.1,0.2,1.6,0s1-0.4,1.4-0.8l1.2-1.2c0.3-0.3,0.5-0.7,0.5-1.1
	c0-0.4-0.1-0.8-0.3-1.2L18,19.1c-0.2-0.3-0.5-0.5-0.9-0.6c-0.3-0.1-0.7-0.1-1.1,0l-2.8,0.9c-1.6,0.5-3.1-0.8-4.7-3.6
	c-1.1-1.9-1.6-3.3-1.4-4.4c0.1-0.6,0.3-1.1,0.8-1.5l2.1-1.9c0.3-0.2,0.4-0.6,0.5-0.9c0.1-0.4,0-0.7-0.1-1.1L9.1,3.1
	C8.9,2.7,8.6,2.4,8.2,2.2C7.8,2.1,7.4,2,7,2.2L5.4,2.7z"/>
</svg>
