<?xml version="1.0" encoding="utf-8"?>
<!-- Generator: Adobe Illustrator 22.0.1, SVG Export Plug-In . SVG Version: 6.00 Build 0)  -->
<svg version="1.1" id="Слой_1" xmlns="http://www.w3.org/2000/svg" xmlns:xlink="http://www.w3.org/1999/xlink" x="0px" y="0px"
	 viewBox="0 0 44 44" style="enable-background:new 0 0 44 44;" xml:space="preserve">
<style type="text/css">
	.st0{fill:url(#SVGID_1_);}
	.st1{fill:url(#SVGID_2_);}
	.st2{fill:url(#SVGID_3_);}
	.st3{fill:url(#SVGID_4_);}
</style>
<linearGradient id="SVGID_1_" gradientUnits="userSpaceOnUse" x1="10" y1="24" x2="34.3654" y2="24" gradientTransform="matrix(1 0 0 -1 0 46)">
	<stop  offset="0" style="stop-color:#C038F5"/>
	<stop  offset="1" style="stop-color:#3496FE"/>
</linearGradient>
<path class="st0" d="M14.5,8.7l1.9-0.5c1-0.3,2.1-0.2,3.1,0.2c1,0.4,1.7,1.1,2.2,1.9l1.4,2.8c0.4,0.7,0.5,1.5,0.3,2.3
	c-0.2,0.8-0.6,1.5-1.3,2l-2.4,1.9c-0.1,0.1-0.1,0.1-0.1,0.2c-0.1,0.6,0.4,1.6,1.3,3.1c0.7,1.1,1.4,1.9,1.9,2.3
	c0.4,0.3,0.6,0.4,0.7,0.3l3.2-0.9c0.9-0.2,1.8-0.2,2.7,0c0.9,0.3,1.6,0.7,2.2,1.4l2,2.5c0.6,0.8,0.9,1.7,0.8,2.6
	c-0.1,0.9-0.6,1.8-1.3,2.4l-1.4,1.2c-0.7,0.6-1.7,1.1-2.7,1.3c-1,0.2-2,0.2-3,0c-4.4-1.1-8.3-4.3-11.8-9.6
	c-3.5-5.3-4.8-9.9-3.6-13.8c0.3-0.9,0.8-1.7,1.5-2.3C12.6,9.4,13.5,8.9,14.5,8.7z M15.2,10.7c-0.6,0.2-1.1,0.4-1.5,0.8
	c-0.4,0.4-0.7,0.9-0.9,1.4c-1,3.2,0.1,7.3,3.4,12.2c3.2,4.9,6.7,7.8,10.4,8.7c0.6,0.1,1.2,0.2,1.8,0c0.6-0.1,1.2-0.4,1.6-0.8
	l1.4-1.2c0.4-0.3,0.6-0.7,0.6-1.1c0-0.4-0.1-0.8-0.4-1.2l-2-2.5c-0.2-0.3-0.6-0.5-1-0.6c-0.4-0.1-0.8-0.1-1.2,0l-3.2,0.9
	c-1.9,0.5-3.6-0.8-5.4-3.6c-1.2-1.9-1.8-3.3-1.7-4.4c0.1-0.6,0.4-1.1,0.9-1.5l2.4-1.9c0.3-0.2,0.5-0.6,0.6-0.9
	c0.1-0.4,0-0.7-0.1-1.1l-1.4-2.8c-0.2-0.4-0.5-0.7-1-0.9C18,10.1,17.5,10,17,10.2L15.2,10.7z"/>
<linearGradient id="SVGID_2_" gradientUnits="userSpaceOnUse" x1="38.3652" y1="16.5" x2="43.3652" y2="16.5" gradientTransform="matrix(1 0 0 -1 0 46)">
	<stop  offset="0" style="stop-color:#C038F5"/>
	<stop  offset="1" style="stop-color:#3496FE"/>
</linearGradient>
<circle class="st1" cx="40.9" cy="29.5" r="2.5"/>
<linearGradient id="SVGID_3_" gradientUnits="userSpaceOnUse" x1="38.3652" y1="24.5" x2="43.3652" y2="24.5" gradientTransform="matrix(1 0 0 -1 0 46)">
	<stop  offset="0" style="stop-color:#C038F5"/>
	<stop  offset="1" style="stop-color:#3496FE"/>
</linearGradient>
<circle class="st2" cx="40.9" cy="21.5" r="2.5"/>
<linearGradient id="SVGID_4_" gradientUnits="userSpaceOnUse" x1="38.3652" y1="32.5" x2="43.3652" y2="32.5" gradientTransform="matrix(1 0 0 -1 0 46)">
	<stop  offset="0" style="stop-color:#C038F5"/>
	<stop  offset="1" style="stop-color:#3496FE"/>
</linearGradient>
<circle class="st3" cx="40.9" cy="13.5" r="2.5"/>
</svg>
