<?xml version="1.0" standalone="no"?>
<!DOCTYPE svg PUBLIC "-//W3C//DTD SVG 20010904//EN"
 "http://www.w3.org/TR/2001/REC-SVG-20010904/DTD/svg10.dtd">
<svg version="1.0" xmlns="http://www.w3.org/2000/svg"
 width="1980.000000pt" height="1290.000000pt" viewBox="0 0 1980.000000 1290.000000"
 preserveAspectRatio="xMidYMid meet">

<g transform="translate(0.000000,1290.000000) scale(0.100000,-0.100000)"
fill="#000000" stroke="none">
<path d="M9494 8588 c3 -13 3 -18 0 -11 -4 10 -10 10 -25 0 -16 -10 -22 -9
-30 3 -8 11 -9 9 -4 -9 5 -18 4 -22 -6 -16 -8 6 -11 4 -7 -7 4 -8 2 -21 -3
-29 -6 -10 -9 -5 -9 17 0 27 -3 32 -24 30 -19 -1 -22 -4 -15 -18 14 -27 11
-30 -11 -8 -20 20 -47 19 -35 -1 3 -5 -1 -6 -10 -3 -10 4 -24 -2 -36 -15 -24
-26 -30 -27 -23 -3 5 16 5 16 -6 0 -6 -9 -17 -15 -25 -12 -8 4 -15 1 -15 -6 0
-6 5 -8 10 -5 6 3 10 1 10 -6 0 -6 -8 -9 -19 -6 -14 3 -21 -2 -25 -19 -7 -27
-45 -66 -57 -58 -4 2 -6 -5 -4 -17 3 -16 1 -18 -9 -10 -10 9 -15 8 -20 -4 -4
-11 -2 -14 7 -9 6 4 3 -2 -8 -13 -11 -11 -24 -18 -29 -15 -4 2 -12 -2 -17 -9
-4 -8 -14 -14 -21 -14 -7 0 -13 -11 -13 -25 0 -15 -5 -24 -12 -22 -20 3 -15
-16 5 -21 16 -4 16 -5 -1 -6 -12 -1 -16 -6 -11 -13 4 -7 -1 -5 -12 4 -19 17
-21 16 -44 -12 -14 -17 -24 -33 -22 -35 4 -9 -22 -33 -30 -28 -4 2 -5 -3 -2
-12 4 -9 3 -15 -2 -14 -21 3 -28 -2 -14 -11 18 -11 10 -21 -19 -23 -21 -1 -21
-2 -5 -14 17 -12 16 -13 -3 -13 -21 0 -26 -21 -8 -37 4 -4 5 -3 1 4 -7 14 10
28 18 14 3 -5 -1 -14 -9 -21 -12 -10 -19 -10 -32 1 -15 11 -16 11 -6 -1 9 -10
9 -18 1 -34 -16 -28 -18 -45 -7 -52 5 -3 7 -10 3 -15 -3 -5 -10 -6 -16 -3 -7
4 -8 2 -4 -5 4 -6 -2 -27 -14 -45 -13 -22 -17 -37 -10 -41 5 -3 10 1 10 9 0 9
5 16 11 16 11 0 4 -15 -19 -42 -10 -12 -11 -18 -4 -18 7 0 12 -5 12 -11 0 -5
-5 -7 -12 -3 -8 5 -9 0 -6 -14 4 -12 2 -22 -3 -22 -5 0 -9 12 -9 26 0 14 -4
23 -9 20 -5 -4 -8 -14 -6 -24 2 -9 4 -20 4 -24 1 -5 9 -8 19 -8 15 -1 15 -2
-2 -15 -11 -8 -15 -15 -9 -15 8 0 7 -9 -2 -27 -7 -16 -16 -46 -19 -67 -4 -22
-8 -42 -11 -44 -2 -2 0 -15 5 -28 6 -14 6 -26 0 -29 -5 -3 -7 -12 -4 -20 4 -8
10 -12 15 -9 5 3 9 -7 10 -23 0 -15 3 -22 6 -15 2 6 14 11 26 11 17 -1 18 -2
4 -6 -9 -2 -15 -9 -12 -14 4 -5 1 -9 -5 -9 -7 0 -5 -6 4 -15 8 -8 23 -15 33
-15 15 0 16 -2 3 -10 -12 -8 -12 -10 5 -10 12 0 16 -3 9 -8 -17 -10 1 -53 19
-46 8 3 17 -1 20 -9 3 -7 -1 -14 -9 -15 -8 -1 -21 -3 -29 -4 -8 -1 -12 -5 -9
-10 3 -5 10 -6 15 -3 5 4 10 1 10 -4 1 -6 2 -17 3 -23 1 -8 13 -12 31 -10 24
2 27 1 15 -8 -13 -9 -13 -12 1 -23 9 -7 20 -23 24 -37 7 -23 7 -24 -11 -10
-17 14 -18 13 -7 -1 7 -9 9 -20 5 -24 -4 -5 -1 -5 6 -1 8 5 12 0 12 -12 0 -13
9 -22 28 -27 32 -8 72 -42 72 -62 0 -8 5 -11 12 -7 7 5 9 2 5 -8 -8 -22 2 -29
26 -17 14 8 18 8 13 0 -4 -6 -2 -11 4 -11 6 0 8 -4 5 -10 -3 -5 -2 -10 3 -10
5 0 14 -11 20 -25 6 -14 16 -25 22 -25 6 0 9 4 6 8 -3 5 1 9 9 9 8 0 12 -3 10
-7 -7 -11 25 -51 36 -45 5 4 9 -1 9 -9 0 -17 20 -18 31 -2 4 5 15 6 25 2 18
-7 18 -8 -1 -23 -15 -12 -16 -14 -3 -10 9 3 18 2 20 -2 2 -4 18 -11 37 -14 26
-6 32 -4 28 8 -5 12 -2 12 18 3 14 -6 25 -16 25 -22 0 -7 9 -12 20 -13 11 -1
18 2 15 7 -3 6 1 7 9 4 8 -3 18 -14 21 -25 7 -20 25 -26 25 -9 0 6 6 5 14 -2
10 -10 11 -15 2 -21 -6 -5 2 -6 19 -2 42 8 48 8 68 0 13 -5 17 -2 17 15 0 12
4 18 11 15 6 -4 8 -13 5 -21 -3 -7 -1 -16 5 -19 5 -4 9 -3 8 2 -4 23 2 35 17
29 8 -3 12 -2 9 4 -3 6 -1 10 4 10 6 0 11 -7 11 -15 0 -20 41 -36 58 -22 7 5
15 7 18 4 4 -3 15 3 27 13 11 11 25 16 31 13 6 -4 5 0 -1 9 -11 13 -9 15 17
16 16 0 32 -4 36 -9 3 -5 10 -7 15 -4 5 4 6 -2 2 -12 -6 -16 -5 -16 10 -5 9 8
16 17 15 20 -1 4 4 17 12 29 10 16 21 21 40 17 20 -3 21 -3 6 4 -19 8 -19 9 1
14 12 3 26 1 32 -5 8 -8 18 -4 35 12 14 13 24 28 23 32 -1 5 9 15 23 22 14 7
24 20 24 29 -1 10 4 14 12 11 8 -3 11 -9 8 -14 -3 -5 0 -9 6 -9 6 0 9 -4 5 -9
-3 -6 3 -9 14 -8 20 1 20 2 2 32 -18 30 -18 65 0 65 6 0 7 -4 4 -10 -3 -5 -1
-10 5 -10 6 0 8 -5 4 -12 -5 -9 -2 -9 9 1 9 7 17 10 17 6 0 -5 9 2 20 15 11
13 20 33 20 45 0 13 7 26 16 29 24 9 28 7 14 -9 -7 -8 -9 -15 -6 -15 11 0 36
27 30 32 -10 10 -13 48 -3 48 5 0 9 7 9 16 0 9 -5 13 -12 9 -7 -4 -5 0 4 7 17
15 9 46 -9 35 -5 -3 -10 0 -10 8 0 18 9 19 23 5 8 -8 15 -6 25 6 9 12 10 15 1
10 -9 -5 -12 1 -10 24 1 17 7 34 12 37 5 3 6 1 2 -5 -3 -6 -2 -13 4 -17 6 -4
8 -10 5 -15 -3 -4 2 -11 11 -14 11 -4 15 -2 11 7 -3 8 -1 20 4 28 8 11 9 10 7
-5 -2 -10 2 -21 8 -23 6 -2 11 14 13 39 1 23 4 45 6 49 3 4 -2 13 -11 20 -14
12 -14 14 3 20 16 7 16 8 1 8 -13 1 -18 9 -18 32 0 19 4 28 11 24 6 -4 8 -13
5 -21 -3 -7 0 -16 5 -20 7 -4 10 5 9 22 -3 48 0 65 10 59 6 -3 10 -1 10 4 0
17 -11 13 -39 -11 -14 -13 -20 -16 -13 -7 6 9 8 20 4 24 -4 5 -1 4 7 0 11 -6
13 -4 8 9 -4 9 -3 15 2 12 14 -9 32 20 25 38 -5 12 -2 15 12 10 11 -3 15 -2 9
3 -6 4 -10 17 -10 28 0 11 -4 26 -10 34 -8 11 -6 13 5 9 12 -4 16 2 18 23 2
20 -3 29 -13 30 -28 3 -33 4 -42 12 -4 5 -3 8 2 7 24 -5 27 2 9 23 l-19 22 22
-19 c13 -10 20 -23 17 -27 -3 -5 0 -9 5 -9 6 0 11 7 11 15 0 21 -4 30 -12 28
-3 -1 -9 5 -12 13 -4 12 -2 15 9 10 18 -6 19 -2 5 24 -6 12 -7 21 0 25 17 10
-2 37 -22 32 -19 -5 -19 -5 -2 14 9 10 12 19 7 19 -6 0 -10 17 -10 38 0 21 -2
43 -6 48 -13 22 -16 64 -4 64 8 0 7 3 -2 9 -7 5 -10 15 -7 22 4 8 0 5 -8 -5
-9 -11 -16 -15 -16 -8 0 6 -7 9 -17 5 -13 -5 -15 -2 -11 15 5 19 -11 46 -23
39 -2 -1 1 3 7 8 8 8 8 14 -2 23 -7 7 -11 19 -8 27 4 8 1 15 -5 15 -8 0 -9 5
-1 19 8 16 6 23 -12 35 -12 8 -26 12 -31 9 -6 -4 -7 4 -4 19 6 21 3 27 -15 31
-17 5 -19 9 -10 20 7 8 9 17 5 20 -9 10 -25 9 -19 -1 8 -13 -44 -6 -57 8 -9
10 -9 13 0 17 9 3 10 10 4 21 -5 9 -9 21 -9 25 0 17 -12 20 -12 4 0 -9 -4 -17
-10 -17 -5 0 -10 4 -10 9 0 5 -10 11 -22 13 -15 2 -22 9 -20 19 1 9 -5 23 -15
30 -14 12 -16 12 -8 0 5 -10 4 -12 -3 -7 -7 4 -12 13 -12 21 0 8 -4 16 -9 19
-4 3 -6 -7 -5 -22 4 -25 3 -24 -12 7 -11 25 -18 31 -27 22 -6 -6 -17 -11 -25
-11 -12 0 -12 3 -1 17 8 9 9 14 3 10 -6 -3 -20 2 -31 13 -12 10 -24 16 -27 13
-3 -4 -6 0 -6 8 0 11 -2 11 -10 -1 -7 -11 -10 -12 -10 -2 0 10 -4 9 -16 -3
-12 -12 -19 -13 -30 -4 -7 6 -18 8 -24 4 -17 -10 -33 5 -20 20 9 11 7 12 -11
8 -17 -5 -20 -3 -13 8 6 10 0 9 -19 -3 -31 -21 -41 -23 -32 -5 4 6 -2 3 -12
-9 l-18 -21 -28 29 c-32 32 -47 35 -48 11 0 -10 -3 -13 -5 -6 -3 7 -12 9 -20
6 -8 -3 -14 0 -14 6 0 6 -5 11 -11 11 -6 0 -8 -10 -5 -22z m80 -4 c3 -8 2 -12
-4 -9 -6 3 -10 10 -10 16 0 14 7 11 14 -7z m-733 -587 c-6 -8 -8 -17 -4 -20 3
-4 1 -7 -6 -7 -7 0 -9 -4 -6 -10 10 -16 -1 -11 -16 7 -10 11 -10 14 -1 9 11
-6 17 5 13 27 0 4 6 7 15 7 13 0 14 -3 5 -13z m1493 -25 c2 -4 -5 -9 -17 -9
-17 -2 -19 0 -7 7 18 12 18 12 24 2z m-4 -87 c0 -5 -5 -3 -10 5 -5 8 -10 20
-10 25 0 6 5 3 10 -5 5 -8 10 -19 10 -25z m-1570 -221 c0 -8 -4 -14 -9 -14 -6
0 -9 9 -8 19 1 22 17 18 17 -5z m1620 6 c0 -5 -7 -7 -15 -4 -8 4 -15 8 -15 10
0 2 7 4 15 4 8 0 15 -4 15 -10z m-16 -69 c3 -5 -1 -11 -9 -14 -9 -4 -12 -1 -8
9 6 16 10 17 17 5z m-1584 -181 c0 -5 -2 -10 -4 -10 -3 0 -8 5 -11 10 -3 6 -1
10 4 10 6 0 11 -4 11 -10z m58 -62 c-2 -6 -10 -14 -16 -16 -7 -2 -10 2 -6 12
7 18 28 22 22 4z m1469 -13 c0 -8 -4 -12 -9 -9 -5 3 -6 10 -3 15 9 13 12 11
12 -6z m-1464 -70 c4 -8 3 -16 -1 -19 -4 -3 -9 4 -9 15 -2 23 3 25 10 4z
m1402 -15 c3 -5 1 -10 -4 -10 -6 0 -11 5 -11 10 0 6 2 10 4 10 3 0 8 -4 11
-10z m-1315 -104 c0 -11 -19 -15 -25 -6 -3 5 1 10 9 10 9 0 16 -2 16 -4z
m1071 -243 c10 -11 10 -14 2 -9 -8 4 -13 1 -13 -9 0 -9 -4 -13 -10 -10 -5 3
-10 1 -10 -5 0 -6 -4 -8 -10 -5 -5 3 -10 11 -10 17 0 6 3 8 7 5 9 -9 34 13 27
24 -9 16 3 10 17 -8z"/>
<path d="M10371 7537 c-13 -21 -12 -21 5 -5 10 10 16 20 13 22 -3 3 -11 -5
-18 -17z"/>
<path d="M10048 6922 c-11 -13 -10 -15 9 -10 14 4 23 1 25 -7 2 -10 5 -10 14
-1 8 9 5 15 -12 23 -19 9 -26 8 -36 -5z"/>
<path d="M9800 6806 c0 -2 7 -9 15 -16 13 -11 14 -10 9 4 -5 14 -24 23 -24 12z"/>
<path d="M9543 6743 c14 -14 19 -15 29 -4 11 11 10 13 -4 8 -10 -4 -18 -2 -18
3 0 6 -5 10 -12 10 -8 0 -6 -6 5 -17z"/>
<path d="M9696 6743 c-6 -14 -5 -15 5 -6 7 7 10 15 7 18 -3 3 -9 -2 -12 -12z"/>
<path d="M4636 5363 c-4 -5 -12 -9 -17 -9 -5 -1 -13 -2 -17 -3 -4 0 -8 -11 -9
-22 -1 -12 -4 -23 -7 -26 -7 -8 -26 7 -26 20 0 7 4 6 10 -3 7 -12 9 -11 8 6
-2 15 -7 20 -19 17 -19 -5 -58 -43 -44 -43 4 0 14 8 22 18 13 15 13 15 3 -5
-6 -13 -16 -23 -22 -23 -7 0 -7 -4 1 -13 8 -10 7 -14 -4 -14 -8 0 -12 4 -9 8
2 4 -2 10 -8 12 -9 4 -9 6 -1 6 13 1 5 41 -9 41 -5 0 -6 -6 -2 -12 5 -9 3 -9
-9 1 -9 7 -14 18 -10 24 3 6 1 7 -5 3 -9 -5 -9 -13 -2 -26 11 -20 4 -50 -12
-50 -5 0 -6 5 -2 12 4 7 3 8 -5 4 -9 -6 -9 -11 0 -22 6 -7 16 -11 22 -7 6 4 7
1 2 -8 -14 -22 -58 -54 -70 -51 -5 2 0 -6 13 -18 22 -21 30 -36 13 -26 -11 7
-36 -22 -27 -31 3 -3 6 0 6 7 0 9 5 7 14 -5 16 -22 5 -62 -16 -57 -7 1 -2 -7
12 -18 l25 -21 -25 6 c-17 4 -21 3 -11 -3 7 -5 11 -14 7 -20 -3 -6 0 -13 6
-15 10 -4 9 -8 -2 -16 -10 -7 -16 -7 -21 0 -4 7 -8 5 -12 -4 -3 -8 3 -23 14
-33 11 -10 19 -12 19 -6 0 7 -5 12 -11 12 -5 0 -7 5 -4 10 10 16 25 1 25 -25
0 -13 4 -26 10 -30 5 -3 7 -12 4 -19 -3 -8 0 -17 7 -22 8 -4 10 -3 5 4 -4 7
-3 12 2 12 12 0 24 -29 17 -39 -2 -4 1 -8 8 -8 7 0 24 -3 40 -6 15 -3 27 -1
27 4 0 5 5 9 11 9 5 0 8 -4 5 -9 -7 -10 18 -33 27 -25 3 3 3 -5 0 -18 -3 -16
-2 -19 5 -10 11 16 59 6 71 -15 4 -8 12 -16 17 -16 5 -1 8 -4 7 -7 -1 -3 6 -6
16 -6 13 0 17 6 13 19 -4 14 -7 16 -13 5 -7 -10 -9 -9 -9 5 0 28 1 32 11 29
13 -3 11 5 -7 22 -8 9 -11 16 -5 16 6 0 11 6 11 14 0 8 7 16 15 20 12 4 13 2
3 -14 -19 -30 4 -48 29 -23 11 11 25 17 33 15 8 -3 10 0 5 8 -6 10 -4 12 9 7
10 -4 20 -7 22 -7 2 0 4 -4 4 -10 0 -5 -8 -7 -17 -3 -13 4 -15 3 -8 -5 12 -13
58 -4 49 9 -3 5 2 9 10 9 9 0 16 -5 16 -12 0 -6 2 -9 5 -6 10 10 -7 38 -19 31
-6 -4 7 12 29 35 21 23 45 42 53 42 8 0 10 5 5 13 -4 6 -6 20 -4 31 1 11 -2
16 -8 12 -6 -4 -11 -2 -11 4 0 7 7 10 15 6 8 -3 15 -1 15 5 0 6 5 7 12 3 7 -5
8 -3 4 5 -5 7 -15 10 -23 7 -8 -3 -11 -1 -8 4 3 6 1 10 -5 10 -6 0 -8 4 -5 10
3 5 19 8 35 6 38 -4 39 10 1 19 -29 6 -37 32 -16 48 7 4 6 10 -1 15 -6 4 -13
15 -17 25 -3 9 -12 17 -18 17 -8 0 -7 -6 2 -17 13 -16 12 -17 -4 -4 -16 12
-16 16 -3 30 14 15 12 17 -19 16 -19 -1 -33 1 -30 3 3 3 -1 12 -8 20 -9 13 -9
14 0 8 21 -12 54 -16 47 -5 -3 6 -8 8 -11 5 -3 -3 -15 1 -27 9 -25 18 -77 19
-95 3 -11 -11 -11 -9 -2 9 9 19 8 24 -8 33 -23 12 -54 3 -44 -14 4 -6 -1 -5
-11 3 -16 14 -16 15 6 27 13 8 17 13 10 14 -7 0 -10 4 -7 10 3 6 -1 7 -10 4
-11 -5 -14 -2 -9 12 5 17 4 17 -5 2 -7 -10 -19 -14 -33 -10 -14 3 -19 1 -14
-6 5 -8 2 -10 -8 -6 -9 3 -16 10 -16 16 0 5 4 7 9 3 5 -3 12 -1 16 5 4 6 11 7
17 4 7 -4 8 -2 4 4 -8 14 -10 14 -20 5z m-26 -77 c0 -3 -4 -8 -10 -11 -5 -3
-10 -1 -10 4 0 6 5 11 10 11 6 0 10 -2 10 -4z m220 -45 c0 -5 -9 -7 -20 -4
-11 3 -20 7 -20 9 0 2 9 4 20 4 11 0 20 -4 20 -9z m-52 -37 c-14 -14 -16 -14
-21 0 -4 10 -1 13 9 9 7 -3 14 1 14 8 0 7 3 9 7 5 4 -3 0 -13 -9 -22z m-258
12 c0 -2 -8 -10 -17 -17 -16 -13 -17 -12 -4 4 13 16 21 21 21 13z m165 -5 c3
-5 2 -12 -3 -15 -5 -3 -9 1 -9 9 0 17 3 19 12 6z m-245 -11 c0 -5 -5 -10 -11
-10 -5 0 -7 5 -4 10 3 6 8 10 11 10 2 0 4 -4 4 -10z"/>
<path d="M4788 5273 c7 -3 16 -2 19 1 4 3 -2 6 -13 5 -11 0 -14 -3 -6 -6z"/>
<path d="M4428 5243 c7 -3 16 -2 19 1 4 3 -2 6 -13 5 -11 0 -14 -3 -6 -6z"/>
<path d="M4330 5210 c-9 -6 -10 -10 -3 -10 6 0 15 5 18 10 8 12 4 12 -15 0z"/>
<path d="M4956 5111 c-3 -5 0 -14 7 -19 10 -8 13 -6 14 9 2 19 -11 26 -21 10z"/>
<path d="M4390 5100 c-13 -8 -13 -10 2 -10 9 0 20 5 23 10 8 13 -5 13 -25 0z"/>
<path d="M4335 5029 c-4 -6 -5 -12 -2 -15 2 -3 7 2 10 11 7 17 1 20 -8 4z"/>
<path d="M4960 4990 c-12 -7 -10 -9 7 -7 12 0 19 5 17 9 -6 10 -6 10 -24 -2z"/>
<path d="M4920 4925 c0 -5 5 -17 10 -25 5 -8 10 -10 10 -5 0 6 -5 17 -10 25
-5 8 -10 11 -10 5z"/>
<path d="M4900 4895 c0 -8 4 -15 10 -15 5 0 7 7 4 15 -4 8 -8 15 -10 15 -2 0
-4 -7 -4 -15z"/>
<path d="M4749 4813 c-13 -17 -13 -17 6 -3 11 8 22 16 24 17 2 2 0 3 -6 3 -6
0 -17 -8 -24 -17z"/>
<path d="M4484 4808 c4 -18 38 -16 43 2 4 13 3 13 -6 0 -10 -13 -11 -13 -11 0
0 12 -2 13 -9 1 -6 -9 -10 -10 -14 -2 -3 7 -5 7 -3 -1z"/>
<path d="M4545 4800 c3 -5 8 -10 11 -10 2 0 4 5 4 10 0 6 -5 10 -11 10 -5 0
-7 -4 -4 -10z"/>
<path d="M4756 4795 c-16 -12 -17 -15 -4 -15 9 0 18 7 22 15 7 18 6 18 -18 0z"/>
<path d="M4794 4803 c10 -11 37 -12 30 -2 -3 5 -12 9 -21 9 -9 0 -13 -3 -9 -7z"/>
</g>
</svg>
