<?xml version="1.0" encoding="utf-8"?>
<!-- Generator: Adobe Illustrator 22.0.1, SVG Export Plug-In . SVG Version: 6.00 Build 0)  -->
<svg height="22px" width="22px" version="1.1" id="Слой_1" xmlns="http://www.w3.org/2000/svg" xmlns:xlink="http://www.w3.org/1999/xlink" x="0px" y="0px"
	 viewBox="0 0 40 40" style="enable-background:new 0 0 40 40;" xml:space="preserve">
<style type="text/css">
	.st0{fill:url(#SVGID_1_);}
</style>
<linearGradient id="SVGID_1_" gradientUnits="userSpaceOnUse" x1="0" y1="22" x2="40" y2="22" gradientTransform="matrix(1 0 0 -1 0 42)">
	<stop  offset="0" style="stop-color:#C038F5"/>
	<stop  offset="1" style="stop-color:#3496FE"/>
</linearGradient>
<path class="st0" d="M20,0C9,0,0,9,0,20c0,11,9,20,20,20c11,0,20-9,20-20C40,9,31,0,20,0z M27.7,22.6c0,0,1.8,1.7,2.2,2.6
	c0,0,0,0,0,0c0.2,0.3,0.2,0.5,0.1,0.7c-0.1,0.3-0.6,0.4-0.8,0.4h-3.1c-0.2,0-0.7-0.1-1.2-0.4c-0.4-0.3-0.8-0.8-1.2-1.3
	c-0.6-0.7-1.1-1.3-1.7-1.3c-0.1,0-0.1,0-0.2,0c-0.4,0.1-0.9,0.7-0.9,2.2c0,0.5-0.4,0.7-0.6,0.7h-1.4c-0.5,0-3-0.2-5.3-2.5
	C10.8,20.9,8.3,15,8.3,15c-0.2-0.4,0.2-0.6,0.5-0.6h3.2c0.4,0,0.6,0.3,0.7,0.5c0.1,0.3,0.5,1.3,1.2,2.5c1.1,1.9,1.8,2.7,2.3,2.7
	c0.1,0,0.2,0,0.3-0.1c0.7-0.4,0.6-2.9,0.5-3.4c0-0.1,0-1.1-0.4-1.6c-0.3-0.4-0.7-0.5-1-0.5c0.1-0.1,0.3-0.3,0.4-0.4
	c0.5-0.2,1.4-0.3,2.2-0.3h0.5c0.9,0,1.2,0.1,1.5,0.2c0.7,0.2,0.7,0.6,0.6,2.1c0,0.4,0,0.9,0,1.5c0,0.1,0,0.3,0,0.4
	c0,0.8,0,1.7,0.5,2c0.1,0,0.2,0.1,0.2,0.1c0.2,0,0.8,0,2.3-2.7c0.5-0.9,0.9-1.7,1.2-2.7c0-0.1,0.1-0.2,0.2-0.3
	c0.1,0,0.2-0.1,0.3-0.1h3.7c0.4,0,0.7,0.1,0.7,0.2c0.1,0.2,0,1-1.7,3.3l-0.8,1C26.1,20.9,26.1,21,27.7,22.6z"/>
</svg>
