<?xml version="1.0" encoding="utf-8"?>
<!-- Generator: Adobe Illustrator 22.0.1, SVG Export Plug-In . SVG Version: 6.00 Build 0)  -->
<svg height="28px" width="28px" version="1.1" id="Слой_1" xmlns="http://www.w3.org/2000/svg" xmlns:xlink="http://www.w3.org/1999/xlink" x="0px" y="0px"
	 viewBox="0 0 29 28" style="enable-background:new 0 0 29 28;" xml:space="preserve">
<style type="text/css">
	.st0{fill:url(#SVGID_1_);}
</style>
<linearGradient id="SVGID_1_" gradientUnits="userSpaceOnUse" x1="0.6482" y1="16" x2="28.5141" y2="16" gradientTransform="matrix(1 0 0 -1 0 30)">
	<stop  offset="0" style="stop-color:#C038F5"/>
	<stop  offset="1" style="stop-color:#3496FE"/>
</linearGradient>
<path class="st0" d="M21,16.8c-0.3-0.2-2.1-1-2.4-1.1c-0.3-0.1-0.5-0.2-0.8,0.2c-0.2,0.3-0.9,1.1-1.1,1.4c-0.2,0.2-0.4,0.3-0.8,0.1
	c-0.3-0.2-1.5-0.5-2.8-1.7c-1-0.9-1.7-2.1-1.9-2.4c-0.2-0.3,0-0.5,0.2-0.7c0.2-0.2,0.3-0.4,0.5-0.6c0.2-0.2,0.2-0.3,0.3-0.6
	c0.1-0.2,0.1-0.4,0-0.6c-0.1-0.2-0.8-1.9-1.1-2.6c-0.3-0.7-0.6-0.6-0.8-0.6c-0.2,0-0.4,0-0.7,0c-0.2,0-0.6,0.1-0.9,0.4
	c-0.3,0.3-1.2,1.2-1.2,2.9c0,1.7,1.2,3.4,1.4,3.6c0.2,0.2,2.4,3.7,5.9,5.2c0.8,0.4,1.5,0.6,2,0.7c0.8,0.3,1.6,0.2,2.2,0.1
	c0.7-0.1,2.1-0.8,2.3-1.6c0.3-0.8,0.3-1.5,0.2-1.6C21.5,17,21.3,17,21,16.8L21,16.8z M14.6,25.4L14.6,25.4c-2.1,0-4.1-0.6-5.9-1.6
	l-0.4-0.2L4,24.7l1.2-4.3L4.9,20c-1.2-1.8-1.8-4-1.8-6.1c0-6.4,5.2-11.5,11.5-11.5c3.1,0,6,1.2,8.2,3.4c1.1,1.1,1.9,2.3,2.5,3.7
	c0.6,1.4,0.9,2.9,0.9,4.4C26.2,20.2,21,25.4,14.6,25.4z M24.5,4.1c-1.3-1.3-2.8-2.3-4.5-3C18.3,0.4,16.5,0,14.6,0
	C7,0,0.8,6.2,0.8,13.9c0,2.4,0.6,4.8,1.9,6.9l-2,7.2L8,26.1c2,1.1,4.3,1.7,6.6,1.7h0c7.6,0,13.9-6.2,13.9-13.9c0-1.8-0.4-3.6-1-5.3
	C26.8,6.9,25.7,5.4,24.5,4.1z"/>
</svg>
