<svg width="22" height="22" viewBox="0 0 22 22" fill="none" xmlns="http://www.w3.org/2000/svg">
<path fill-rule="evenodd" clip-rule="evenodd" d="M16.0406 13.1835C15.7661 13.0469 14.4204 12.3888 14.1699 12.2971C13.9193 12.2064 13.737 12.1614 13.5537 12.4346C13.3713 12.7059 12.8472 13.3201 12.6878 13.5016C12.5276 13.684 12.3682 13.706 12.0947 13.5703C11.8211 13.4328 10.9387 13.1459 9.8933 12.2183C9.07999 11.4959 8.5301 10.604 8.37076 10.3309C8.21141 10.0586 8.35326 9.91102 8.4905 9.77535C8.61392 9.65344 8.76406 9.45727 8.9013 9.29869C9.03854 9.13919 9.08367 9.02552 9.17486 8.84311C9.26697 8.66161 9.22091 8.50302 9.15183 8.36644C9.08367 8.22986 8.53655 6.88878 8.30812 6.34336C8.08614 5.81261 7.86048 5.88503 7.69284 5.87586C7.53258 5.86853 7.3502 5.86669 7.16783 5.86669C6.98546 5.86669 6.68887 5.93453 6.43833 6.20769C6.18688 6.47994 5.48041 7.13903 5.48041 8.48011C5.48041 9.82027 6.46044 11.1155 6.59768 11.2979C6.73492 11.4794 8.52734 14.2313 11.2731 15.411C11.927 15.6915 12.4364 15.8593 12.8334 15.9839C13.4892 16.192 14.086 16.1627 14.5576 16.0921C15.0827 16.0142 16.1769 15.433 16.4053 14.7968C16.6328 14.1607 16.6328 13.6153 16.5647 13.5016C16.4965 13.3879 16.3141 13.3201 16.0397 13.1835H16.0406ZM11.0465 19.9696H11.0428C9.41197 19.9699 7.81108 19.5336 6.40794 18.7064L6.07635 18.5103L2.62968 19.4104L3.54983 16.0664L3.33338 15.7236C2.42164 14.2792 1.93914 12.6076 1.94163 10.9019C1.94347 5.90611 6.02753 1.84162 11.0502 1.84162C13.4818 1.84162 15.7679 2.78578 17.4867 4.49811C18.3344 5.33831 19.0063 6.33746 19.4636 7.43776C19.9208 8.53807 20.1542 9.71768 20.1504 10.9084C20.1486 15.9042 16.0645 19.9696 11.0465 19.9696ZM18.7946 3.19737C17.7797 2.18071 16.5722 1.37461 15.2421 0.82577C13.9119 0.276929 12.4855 -0.00373655 11.0456 3.75627e-05C5.00882 3.75627e-05 0.09395 4.89045 0.0921078 10.901C0.0911867 12.8223 0.595016 14.6978 1.55386 16.3506L0 22L5.80648 20.4838C7.41272 21.3548 9.21271 21.8111 11.0419 21.8112H11.0465C17.0832 21.8112 21.9981 16.9208 21.9999 10.9093C22.0044 9.47677 21.7234 8.05762 21.1732 6.73389C20.623 5.41016 19.8146 4.20815 18.7946 3.19737Z" fill="#E3E1FB"/>
</svg>
