<svg width="141" height="93" viewBox="0 0 141 93" fill="none" xmlns="http://www.w3.org/2000/svg">
<path opacity="0.9" d="M40 89.1019V62.6574C40 60.5796 38 58.8796 35.5556 58.8796H4.44444C2 58.8796 0 60.5796 0 62.6574V89.1019C0 91.1796 2 92.8796 4.44444 92.8796H35.5556C38 92.8796 40 91.1796 40 89.1019ZM12.2222 78.713L17.7778 84.3985L25.5556 75.8796L35.5556 87.213H4.44444L12.2222 78.713Z" fill="url(#paint0_linear_357_8030)"/>
<path opacity="0.9" d="M137.024 58.8796H104.297C102.297 58.8796 100.66 60.5796 100.66 62.6574V89.1019C100.66 91.1796 102.297 92.8796 104.297 92.8796H137.024C139.024 92.8796 140.66 91.1796 140.66 89.1019V62.6574C140.66 60.5796 139.024 58.8796 137.024 58.8796ZM137.024 89.1019H104.297V62.6574H137.024V89.1019ZM113.387 81.5463C113.387 78.4107 115.824 75.8796 118.842 75.8796C119.478 75.8796 120.097 76.0119 120.66 76.2196V64.5463H129.751V68.3241H124.297V81.603C124.26 84.7007 121.842 87.213 118.842 87.213C115.824 87.213 113.387 84.6819 113.387 81.5463Z" fill="url(#paint1_linear_357_8030)"/>
<g filter="url(#filter0_d_357_8030)">
<path d="M33.2 15.2H24V68.4C24 72.58 28.14 76 33.2 76H97.6V68.4H33.2V15.2ZM106.8 0H51.6C46.54 0 42.4 3.42 42.4 7.6V53.2C42.4 57.38 46.54 60.8 51.6 60.8H106.8C111.86 60.8 116 57.38 116 53.2V7.6C116 3.42 111.86 0 106.8 0ZM70 47.5V13.3L97.6 30.4L70 47.5Z" fill="url(#paint2_linear_357_8030)"/>
</g>
<defs>
<filter id="filter0_d_357_8030" x="20" y="0" width="100" height="84" filterUnits="userSpaceOnUse" color-interpolation-filters="sRGB">
<feFlood flood-opacity="0" result="BackgroundImageFix"/>
<feColorMatrix in="SourceAlpha" type="matrix" values="0 0 0 0 0 0 0 0 0 0 0 0 0 0 0 0 0 0 127 0" result="hardAlpha"/>
<feOffset dy="4"/>
<feGaussianBlur stdDeviation="2"/>
<feComposite in2="hardAlpha" operator="out"/>
<feColorMatrix type="matrix" values="0 0 0 0 0.27451 0 0 0 0 0.0431373 0 0 0 0 0.85098 0 0 0 1 0"/>
<feBlend mode="normal" in2="BackgroundImageFix" result="effect1_dropShadow_357_8030"/>
<feBlend mode="normal" in="SourceGraphic" in2="effect1_dropShadow_357_8030" result="shape"/>
</filter>
<linearGradient id="paint0_linear_357_8030" x1="0" y1="75.8899" x2="40" y2="75.8899" gradientUnits="userSpaceOnUse">
<stop stop-color="#07F1D3"/>
<stop offset="0.572917" stop-color="#3A65F1"/>
<stop offset="0.984375" stop-color="#B93DF6"/>
</linearGradient>
<linearGradient id="paint1_linear_357_8030" x1="100.66" y1="75.8899" x2="140.66" y2="75.8899" gradientUnits="userSpaceOnUse">
<stop stop-color="#07F1D3"/>
<stop offset="0.572917" stop-color="#3A65F1"/>
<stop offset="0.984375" stop-color="#B93DF6"/>
</linearGradient>
<linearGradient id="paint2_linear_357_8030" x1="24" y1="38.0228" x2="116" y2="38.0228" gradientUnits="userSpaceOnUse">
<stop stop-color="#07F1D3"/>
<stop offset="0.572917" stop-color="#3A65F1"/>
<stop offset="0.984375" stop-color="#B93DF6"/>
</linearGradient>
</defs>
</svg>
