<svg width="141" height="93" viewBox="0 0 141 93" fill="none" xmlns="http://www.w3.org/2000/svg">
<path d="M5.71429 87.3035H34.2857V64.6369H5.71429V87.3035ZM11.4286 70.3035H28.5714V81.6369H11.4286V70.3035ZM2.85714 70.3035H0V60.3869L1.42857 58.9702H11.4286V61.8035H2.85714V70.3035ZM40 60.3869V70.3035H37.1429V61.8035H28.5714V58.9702H38.5714L40 60.3869ZM37.1429 81.6369H40V91.5535L38.5714 92.9702H28.5714V90.1369H37.1429V81.6369ZM2.85714 90.1369H11.4286V92.9702H1.42857L0 91.5535V81.6369H2.85714V90.1369Z" fill="url(#paint0_linear_357_8029)"/>
<g opacity="0.9">
<path d="M137.803 78.1876H122.089C120.511 78.1876 119.232 79.5113 119.232 81.1441V90.0137C119.232 91.6465 120.511 92.9702 122.089 92.9702H137.803C139.381 92.9702 140.66 91.6465 140.66 90.0137V81.1441C140.66 79.5113 139.381 78.1876 137.803 78.1876Z" fill="url(#paint1_linear_357_8029)"/>
<path d="M114.946 66.3615V71.6626L108.813 65.3164L106.793 67.4066L112.926 73.7528H107.803V76.7093H117.803V66.3615H114.946Z" fill="url(#paint2_linear_357_8029)"/>
<path d="M116.374 84.1006H103.517C102.76 84.0999 102.033 83.7881 101.498 83.2338C100.962 82.6796 100.661 81.928 100.66 81.1441V61.9267C100.661 61.1429 100.962 60.3913 101.498 59.837C102.033 59.2827 102.76 58.971 103.517 58.9702H134.946C135.703 58.971 136.43 59.2827 136.965 59.837C137.501 60.3913 137.802 61.1429 137.803 61.9267V75.2311H134.946V61.9267H103.517V81.1441H116.374V84.1006Z" fill="url(#paint3_linear_357_8029)"/>
</g>
<g filter="url(#filter0_d_357_8029)">
<path d="M48.3127 44.5989C48.6491 44.8735 49.2024 44.8735 49.5387 44.5989L60.583 35.5817L69.9241 43.2171C70.2604 43.4917 70.8137 43.4917 71.15 43.2171L95.7014 23.1542C96.0377 22.8796 96.0377 22.4279 95.7014 22.1533L91.709 18.8936C91.3726 18.619 90.8193 18.619 90.483 18.8936L70.5425 35.1919L61.2014 27.5565C60.8651 27.2819 60.3118 27.2819 59.9755 27.5565L44.3203 40.3383C43.984 40.6129 43.984 41.0647 44.3203 41.3392L48.3127 44.5989Z" fill="url(#paint4_linear_357_8029)"/>
<path d="M112.528 6.3776H73.9057V0.708622C73.9057 0.31888 73.5151 0 73.0377 0H66.9623C66.4849 0 66.0943 0.31888 66.0943 0.708622V6.3776H27.4717C25.5514 6.3776 24 7.64426 24 9.21209V55.2725C24 56.8404 25.5514 58.107 27.4717 58.107H66.1377V60.9415L48.2585 70.5168C47.8571 70.7293 47.7486 71.1634 48.009 71.4911L51.2962 75.672V75.6808C51.5566 76.0086 52.0991 76.0972 52.5005 75.8846L70 66.513L87.4995 75.8846C87.9009 76.0972 88.4434 76.0086 88.7038 75.6808V75.672L91.991 71.4911C92.2514 71.1634 92.1321 70.7293 91.7415 70.5168L73.9057 60.9681V58.107H112.528C114.449 58.107 116 56.8404 116 55.2725V9.21209C116 7.64426 114.449 6.3776 112.528 6.3776ZM108.189 51.7294H31.8113V12.7552H108.189V51.7294Z" fill="url(#paint5_linear_357_8029)"/>
</g>
<defs>
<filter id="filter0_d_357_8029" x="20" y="0" width="100" height="84" filterUnits="userSpaceOnUse" color-interpolation-filters="sRGB">
<feFlood flood-opacity="0" result="BackgroundImageFix"/>
<feColorMatrix in="SourceAlpha" type="matrix" values="0 0 0 0 0 0 0 0 0 0 0 0 0 0 0 0 0 0 127 0" result="hardAlpha"/>
<feOffset dy="4"/>
<feGaussianBlur stdDeviation="2"/>
<feComposite in2="hardAlpha" operator="out"/>
<feColorMatrix type="matrix" values="0 0 0 0 0.27451 0 0 0 0 0.0431373 0 0 0 0 0.85098 0 0 0 1 0"/>
<feBlend mode="normal" in2="BackgroundImageFix" result="effect1_dropShadow_357_8029"/>
<feBlend mode="normal" in="SourceGraphic" in2="effect1_dropShadow_357_8029" result="shape"/>
</filter>
<linearGradient id="paint0_linear_357_8029" x1="0" y1="75.9804" x2="40" y2="75.9804" gradientUnits="userSpaceOnUse">
<stop stop-color="#07F1D3"/>
<stop offset="0.572917" stop-color="#3A65F1"/>
<stop offset="0.984375" stop-color="#B93DF6"/>
</linearGradient>
<linearGradient id="paint1_linear_357_8029" x1="100.66" y1="75.9804" x2="140.66" y2="75.9804" gradientUnits="userSpaceOnUse">
<stop stop-color="#07F1D3"/>
<stop offset="0.572917" stop-color="#3A65F1"/>
<stop offset="0.984375" stop-color="#B93DF6"/>
</linearGradient>
<linearGradient id="paint2_linear_357_8029" x1="100.66" y1="75.9804" x2="140.66" y2="75.9804" gradientUnits="userSpaceOnUse">
<stop stop-color="#07F1D3"/>
<stop offset="0.572917" stop-color="#3A65F1"/>
<stop offset="0.984375" stop-color="#B93DF6"/>
</linearGradient>
<linearGradient id="paint3_linear_357_8029" x1="100.66" y1="75.9804" x2="140.66" y2="75.9804" gradientUnits="userSpaceOnUse">
<stop stop-color="#07F1D3"/>
<stop offset="0.572917" stop-color="#3A65F1"/>
<stop offset="0.984375" stop-color="#B93DF6"/>
</linearGradient>
<linearGradient id="paint4_linear_357_8029" x1="24" y1="38" x2="116" y2="38" gradientUnits="userSpaceOnUse">
<stop stop-color="#C038F5"/>
<stop offset="1" stop-color="#3496FE"/>
</linearGradient>
<linearGradient id="paint5_linear_357_8029" x1="24" y1="38" x2="116" y2="38" gradientUnits="userSpaceOnUse">
<stop stop-color="#C038F5"/>
<stop offset="1" stop-color="#3496FE"/>
</linearGradient>
</defs>
</svg>
